<svg xmlns="http://www.w3.org/2000/svg" id="birthday-icon" width="30" height="30" viewBox="0 0 30 30">
    <defs>
        <style>
            .cls-2{fill:#5c8aff}
        </style>
    </defs>
    <circle id="Oval" cx="15" cy="15" r="15" fill="#e7eeff"/>
    <g id="birthday-cake" transform="translate(9.014 9.014)">
        <path id="Path_8116" d="M209.321 2.361a.987.987 0 0 1-.762-1.727l.516-.534a.344.344 0 0 1 .492 0l.531.543a.986.986 0 0 1-.777 1.718z" class="cls-2" transform="translate(-203.313 -.001)"/>
        <path id="Path_8117" d="M11.663 447H.352c-.194 0-.352.105-.352.235v1.019c0 .13.158.235.352.235h11.311c.194 0 .352-.105.352-.235v-1.019c0-.135-.157-.235-.352-.235z" class="cls-2" transform="translate(0 -437.141)"/>
        <path id="Path_8118" d="M25.414 210.933a1.043 1.043 0 0 0 .468.263.869.869 0 0 0 .54-.264 1.646 1.646 0 0 1 1-.466 1.646 1.646 0 0 1 1 .467.967.967 0 0 0 .5.266.968.968 0 0 0 .5-.267 1.646 1.646 0 0 1 1-.466 1.646 1.646 0 0 1 1 .467.967.967 0 0 0 .5.266.968.968 0 0 0 .5-.267 1.309 1.309 0 0 1 2 0 .96.96 0 0 0 .5.266.959.959 0 0 0 .5-.267 2 2 0 0 1 .413-.3v-.6A1.046 1.046 0 0 0 34.811 209h-8.752A1.046 1.046 0 0 0 25 210.03v.6a2 2 0 0 1 .414.3z" class="cls-2" transform="translate(-24.427 -204.068)"/>
        <path id="Path_8119" d="M211.154 122.328v-.985a.344.344 0 0 0-.344-.344h-1.467a.344.344 0 0 0-.344.344v.985z" class="cls-2" transform="translate(-204.069 -118.151)"/>
        <path id="Path_8120" d="M35.868 305.611v-2.271a2.079 2.079 0 0 1-.195.144 1.176 1.176 0 0 1-1.415.02 2.015 2.015 0 0 1-.31-.24.967.967 0 0 0-.5-.266.968.968 0 0 0-.5.267 1.309 1.309 0 0 1-2 0 .967.967 0 0 0-.5-.266.968.968 0 0 0-.5.267 1.645 1.645 0 0 1-1 .466 1.646 1.646 0 0 1-1-.467.967.967 0 0 0-.5-.266.968.968 0 0 0-.5.267 2.008 2.008 0 0 1-.314.242 1.175 1.175 0 0 1-1.412-.024 2.081 2.081 0 0 1-.193-.143v2.271h10.87z" class="cls-2" transform="translate(-24.425 -295.84)"/>
    </g>
</svg>
