<svg xmlns="http://www.w3.org/2000/svg" width="20" height="20" viewBox="0 0 20 20">
    <defs>
        <style>
            .cls-1{fill:#909ab2}
        </style>
    </defs>
    <g id="dentfx-social-icon" transform="translate(-2 -2)">
        <path fill="#1a5aff" id="Path_8516" d="M11 15.5a.5.5 0 0 0-.5-.5H4a1 1 0 0 0-1 1v3a3 3 0 0 0 3 3h4.5a.5.5 0 0 0 .5-.5z" class="cls-1"/>
        <path fill="#1a5aff" id="Path_8517" d="M13 21.5a.5.5 0 0 0 .5.5H18a3 3 0 0 0 3-3v-3a1 1 0 0 0-1-1h-6.5a.5.5 0 0 0-.5.5z" class="cls-1"/>
        <path fill="#1a5aff" id="Path_8518" d="M11 8.5a.5.5 0 0 0-.5-.5H4a2 2 0 0 0-2 2v1a2 2 0 0 0 2 2h6.5a.5.5 0 0 0 .5-.5z" class="cls-1"/>
        <path fill="#1a5aff" id="Path_8519" d="M13 12.5a.5.5 0 0 0 .5.5H20a2 2 0 0 0 2-2v-1a2 2 0 0 0-2-2h-6.5a.5.5 0 0 0-.5.5z" class="cls-1"/>
        <path fill="#1a5aff" id="Path_8520" d="M7 4a2 2 0 1 1 4 0v1.5a.5.5 0 0 1-.5.5H9a2 2 0 0 1-2-2z" class="cls-1"/>
        <path fill="#1a5aff" id="Path_8521" d="M17 4a2 2 0 1 0-4 0v1.5a.5.5 0 0 0 .5.5H15a2 2 0 0 0 2-2z" class="cls-1"/>
    </g>
</svg>
