<svg xmlns="http://www.w3.org/2000/svg" width="16" height="16" viewBox="0 0 16 16">
    <g>
        <path fill="#909ab2" d="M11.735 16H4.264a4.282 4.282 0 0 1-3.152-1.112A4.282 4.282 0 0 1 0 11.736V4.264a4.282 4.282 0 0 1 1.112-3.152A4.282 4.282 0 0 1 4.264 0h7.472a4.276 4.276 0 0 1 3.15 1.112A4.3 4.3 0 0 1 16 4.264v7.472a4.282 4.282 0 0 1-1.112 3.152A4.283 4.283 0 0 1 11.735 16zm-.016-7.27a.692.692 0 0 0-.359.1.645.645 0 0 0-.3.631v2.624a.661.661 0 0 0 .664.6.674.674 0 0 0 .664-.6V9.464a.671.671 0 0 0-.312-.631.659.659 0 0 0-.357-.103zM8.041 3.2a.658.658 0 0 0-.352.1.677.677 0 0 0-.313.632v8.152a.675.675 0 0 0 .665.6.662.662 0 0 0 .664-.6V3.936A.653.653 0 0 0 8.4 3.3a.7.7 0 0 0-.359-.1zM4.312 5.826a.658.658 0 0 0-.352.1.675.675 0 0 0-.312.632v5.528a.667.667 0 0 0 1.327 0V6.56a.676.676 0 0 0-.311-.632.66.66 0 0 0-.352-.102z"/>
    </g>
</svg>
