<svg xmlns="http://www.w3.org/2000/svg" width="40" height="40" viewBox="0 0 40 40">
    <g>
        <g transform="translate(-7952 -9097) translate(7952 9097)">
            <circle cx="20" cy="20" r="20" fill="#1a5aff"/>
        </g>
        <path fill="#fff" d="M13.229.523a5.475 5.475 0 0 0-4.238.727l-.223.115a.365.365 0 0 1-.377-.029A5.563 5.563 0 0 0 5.406 0a5.2 5.2 0 0 0-2.864.84 5.026 5.026 0 0 0-1.076.955.459.459 0 0 1-.063.089A4.827 4.827 0 0 0 1.56 8.2a.322.322 0 0 1 .026.033c.025.036.056.078.088.119s.067.09.1.13A7.272 7.272 0 0 1 2.955 11.2c.082.392.165.812.22 1.263a11 11 0 0 0 .753 3.09v.012c.351.806.772 1.249 1.25 1.291h.092c.2 0 .618-.246 1.229-1.842v-.012l.674-1.641a1.185 1.185 0 0 1 1.111-.725h.026a1.181 1.181 0 0 1 1.105.761l.6 1.62c.516 1.349.973 1.839 1.227 1.839h.091c.333-.042.816-.294 1.251-1.291a12.1 12.1 0 0 0 .755-3.1c.055-.449.138-.871.219-1.259a7.271 7.271 0 0 1 1.192-2.729 5.753 5.753 0 0 0 1.021-5.321A3.888 3.888 0 0 0 13.229.523zm0 0" transform="translate(-7952 -9097) translate(7964.061 9109.362)"/>
    </g>
</svg>
