<svg xmlns="http://www.w3.org/2000/svg" width="30" height="30" viewBox="0 0 30 30">
    <circle cx="15" cy="15" r="15" fill="#e7eeff"/>
    <g>
        <path fill="#5c8aff" d="M8.964 10H3.036A2.931 2.931 0 0 1 0 7.194V2.806A2.931 2.931 0 0 1 3.036 0h5.928a3.183 3.183 0 0 1 2.148.823A2.684 2.684 0 0 1 12 2.806v4.388A2.931 2.931 0 0 1 8.964 10zM2.421 2.914a.458.458 0 0 0-.321.125.4.4 0 0 0-.043.555l.079.072 2.73 1.972a1.974 1.974 0 0 0 1.17.378 2.007 2.007 0 0 0 1.175-.378l2.707-2.004.048-.045a.406.406 0 0 0-.007-.556.515.515 0 0 0-.317-.145h-.025A.477.477 0 0 0 9.305 3L6.6 5a.986.986 0 0 1-.6.2 1 1 0 0 1-.6-.2L2.7 3a.492.492 0 0 0-.279-.086z" transform="translate(9.105 9.622) translate(-.104 .378)"/>
    </g>
</svg>
