<svg xmlns="http://www.w3.org/2000/svg" id="facebook-icon" width="20" height="20" viewBox="0 0 20 20">
    <defs>
        <style>
            .cls-1{fill:#909ab2}
        </style>
    </defs>
    <path id="Path_3275" d="M291.111 508.668q-.127.021-.255.038.127-.017.255-.038zm0 0" class="cls-1" transform="translate(-279.496 -488.8)"/>
    <path id="Path_3276" d="M299.461 507.793l-.121.021zm0 0" class="cls-1" transform="translate(-287.648 -487.96)"/>
    <path id="Path_3277" d="M277.908 510.34q-.149.017-.3.029.151-.012.3-.029zm0 0" class="cls-1" transform="translate(-266.768 -490.406)"/>
    <path id="Path_3278" d="M286.589 509.738l-.143.018zm0 0" class="cls-1" transform="translate(-275.257 -489.828)"/>
    <path id="Path_3279" d="M306.771 506.41l-.107.022zm0 0" class="cls-1" transform="translate(-294.686 -486.632)"/>
    <path id="Path_3280" d="M324.571 502.113l-.087.024zm0 0" class="cls-1" transform="translate(-311.81 -482.506)"/>
    <path id="Path_3281" d="M319.153 503.543l-.094.025zm0 0" class="cls-1" transform="translate(-306.596 -483.879)"/>
    <path id="Path_3282" d="M312.167 505.254l-.1.023zm0 0" class="cls-1" transform="translate(-299.877 -485.522)"/>
    <path id="Path_3283" d="M273.641 511.09l-.161.012zm0 0" class="cls-1" transform="translate(-262.799 -491.126)"/>
    <path id="Path_3284" d="M20 10a10 10 0 1 0-10 10h.176v-7.787H8.027v-2.5h2.148V7.867a3.008 3.008 0 0 1 3.211-3.3 17.685 17.685 0 0 1 1.926.1V6.9H14c-1.037 0-1.238.493-1.238 1.216v1.593h2.48l-.323 2.5H12.76v7.4A10.005 10.005 0 0 0 20 10zm0 0" class="cls-1"/>
    <path id="Path_3285" d="M265.209 511.43c-.106.007-.212.012-.319.016.11-.004.21-.01.319-.016zm0 0" class="cls-1" transform="translate(-254.546 -491.452)"/>
    <path id="Path_3286" d="M260.673 511.836h-.169zm0 0" class="cls-1" transform="translate(-250.329 -491.842)"/>
</svg>
