<svg width="512" height="512" viewBox="0 0 512 512" fill="none" xmlns="http://www.w3.org/2000/svg">
<g clip-path="url(#clip0)">
<path d="M475.934 108.229H380.35V54.285C380.35 48.29 375.488 43.428 369.493 43.428H142.507C136.512 43.428 131.65 48.29 131.65 54.285V108.23H36.066C16.179 108.229 0 124.409 0 144.296V317.133C0 337.02 16.179 353.2 36.066 353.2H131.65V457.715C131.65 463.71 136.512 468.572 142.507 468.572H369.494C375.489 468.572 380.351 463.71 380.351 457.715V353.2H475.935C495.821 353.2 512.001 337.021 512.001 317.133V144.296C512 124.409 495.82 108.229 475.934 108.229ZM380.349 129.942H406.246V160.327H380.349V129.942ZM153.363 65.142H358.636V160.328H153.363V65.142ZM105.753 129.943H131.65V160.328H105.753V129.943V129.943ZM358.637 446.858H153.363V303.879H358.636V446.858H358.637ZM490.288 317.133H490.287C490.287 325.048 483.848 331.487 475.935 331.487H380.35V303.88H400.155C406.15 303.88 411.012 299.018 411.012 293.023C411.012 287.028 406.15 282.166 400.155 282.166H369.494H142.507H111.846C105.851 282.166 100.989 287.028 100.989 293.023C100.989 299.018 105.851 303.88 111.846 303.88H131.651V331.487H36.066C28.153 331.487 21.714 325.048 21.714 317.133V144.296C21.714 136.382 28.153 129.942 36.066 129.942H84.04V171.183C84.04 177.178 88.901 182.04 94.897 182.04H417.104C423.099 182.04 427.961 177.178 427.961 171.183V129.942H475.935C483.848 129.942 490.288 136.381 490.288 144.296V317.133Z" fill="#1A5AFF"/>
<path d="M68.799 232.863C76.3112 232.863 82.401 226.773 82.401 219.261C82.401 211.749 76.3112 205.659 68.799 205.659C61.2868 205.659 55.197 211.749 55.197 219.261C55.197 226.773 61.2868 232.863 68.799 232.863Z" fill="#1A5AFF"/>
<path d="M252.849 386.456H202.169C196.174 386.456 191.312 391.316 191.312 397.313C191.312 403.308 196.173 408.17 202.169 408.17H252.849C258.844 408.17 263.706 403.308 263.706 397.313C263.706 391.316 258.844 386.456 252.849 386.456Z" fill="#1A5AFF"/>
<path d="M309.831 331.483H202.169C196.174 331.483 191.312 336.345 191.312 342.34C191.312 348.336 196.173 353.197 202.169 353.197H309.83C315.825 353.197 320.687 348.336 320.687 342.34C320.687 336.345 315.826 331.483 309.831 331.483Z" fill="#1A5AFF"/>
</g>
<defs>
<clipPath id="clip0">
<rect width="512" height="512" fill="white"/>
</clipPath>
</defs>
</svg>
