<svg xmlns="http://www.w3.org/2000/svg" width="14" height="12.25" viewBox="0 0 14 12.25">
    <defs>
        <style>
            .cls-1{fill:#141257}
        </style>
    </defs>
    <g id="filter-icon" transform="translate(-908 -74)">
        <path id="Path" d="M4.375 0h-3.5A.827.827 0 0 0 0 .875a.827.827 0 0 0 .875.875h3.5A.827.827 0 0 0 5.25.875.827.827 0 0 0 4.375 0z" class="cls-1" transform="translate(916.75 75.75)"/>
        <path id="Path-2" d="M4.375 0a2.667 2.667 0 0 0-2.45 1.75H.875A.827.827 0 0 0 0 2.625a.827.827 0 0 0 .875.875h1.05a2.667 2.667 0 0 0 2.45 1.75A2.578 2.578 0 0 0 7 2.625 2.578 2.578 0 0 0 4.375 0z" class="cls-1" transform="translate(908 74)"/>
        <path id="Path-3" d="M.875 1.75h3.5A.827.827 0 0 0 5.25.875.827.827 0 0 0 4.375 0h-3.5A.827.827 0 0 0 0 .875a.827.827 0 0 0 .875.875z" class="cls-1" transform="translate(908 82.75)"/>
        <path id="Path-4" d="M6.125 1.75h-1.05A2.549 2.549 0 0 0 2.625 0 2.578 2.578 0 0 0 0 2.625 2.578 2.578 0 0 0 2.625 5.25a2.667 2.667 0 0 0 2.45-1.75h1.05A.827.827 0 0 0 7 2.625a.827.827 0 0 0-.875-.875z" class="cls-1" transform="translate(915 81)"/>
    </g>
</svg>
