<svg width="512" height="512" viewBox="0 0 512 512" fill="none" xmlns="http://www.w3.org/2000/svg">
<path d="M270.948 302.936C260.386 287.993 243.423 278.862 225.235 278.171C224.85 278.128 224.46 278.104 224.064 278.104C200.929 278.104 181.812 260.62 179.205 238.174C185.866 233.323 192.012 227.167 197.459 219.793C208.474 204.88 215.624 186.246 218.275 166.095C219.087 165.212 219.771 164.184 220.262 163.014C224.926 151.908 227.291 140.051 227.291 127.772C227.291 80.551 191.589 42.135 147.707 42.135C136.358 42.135 125.347 44.713 114.939 49.8C111.048 50.128 107.235 50.828 103.574 51.888C66.888 62.487 46.153 106.845 57.354 150.768C58.481 155.187 59.914 159.533 61.616 163.684C62.08 164.818 62.73 165.814 63.496 166.684C67.721 197.706 82.404 223.517 102.485 238.118C99.904 260.592 80.773 278.106 57.618 278.106C57.262 278.106 56.91 278.125 56.562 278.159C25.185 279.268 0 305.121 0 336.763V399.903C0 405.794 4.775 410.569 10.666 410.569H199.117C205.007 410.569 209.783 405.794 209.783 399.903C209.783 394.012 205.007 389.237 199.117 389.237H21.331V336.762C21.331 316.177 38.077 299.432 58.661 299.432C59.017 299.432 59.369 299.413 59.717 299.379C67.4 299.139 74.757 297.593 81.575 294.95L132.072 367.833C134.064 370.708 137.34 372.425 140.839 372.425C144.338 372.425 147.614 370.709 149.606 367.833L200.104 294.95C206.923 297.593 214.279 299.139 221.962 299.379C222.31 299.413 222.662 299.432 223.018 299.432C235.123 299.432 246.529 305.344 253.528 315.247C255.606 318.187 258.9 319.757 262.247 319.757C264.375 319.757 266.524 319.121 268.394 317.8C273.205 314.402 274.347 307.746 270.948 302.936ZM109.492 72.377C112.29 71.569 115.249 71.089 118.288 70.952C119.854 70.882 121.382 70.468 122.77 69.739C130.696 65.575 139.084 63.463 147.703 63.463C179.173 63.463 204.877 91.157 205.907 125.625C199.493 120.775 191.514 117.892 182.872 117.892H127.093C124.315 117.892 121.677 117.02 119.468 115.371C117.577 113.96 116.117 112.066 115.244 109.889C113.229 104.875 108.244 101.743 102.861 102.083C97.445 102.43 92.888 106.194 91.523 111.444C88.802 121.897 83.722 131.632 76.815 139.899C71.283 108.973 85.213 79.392 109.492 72.377ZM84.479 162.705C93.795 154.165 101.334 143.815 106.598 132.385C106.634 132.412 106.671 132.439 106.708 132.466C112.633 136.888 119.681 139.224 127.092 139.224H182.871C189.571 139.224 195.358 143.144 198.105 148.801C198.034 170.958 191.721 191.655 180.299 207.116C169.528 221.696 155.514 229.726 140.837 229.726C127.254 229.726 114.03 222.709 103.601 209.969C93.483 197.61 86.788 180.974 84.479 162.705ZM140.838 343.031L100.021 284.119C110.971 275.033 118.953 262.503 122.328 248.211C128.271 250.071 134.469 251.059 140.837 251.059C147.171 251.059 153.374 250.098 159.357 248.242C162.736 262.52 170.715 275.038 181.657 284.118L140.838 343.031Z" fill="#1A5AFF"/>
<path d="M455.441 337.455C455.093 337.421 454.741 337.402 454.385 337.402C431.218 337.402 412.08 319.871 409.514 297.379C422.576 287.867 433.346 273.605 440.445 256.26C441.461 259.584 444.062 262.268 447.484 263.329C448.524 263.651 449.588 263.808 450.641 263.808C453.873 263.808 457.001 262.335 459.058 259.694C473.939 240.582 481.674 215.708 480.842 189.653C480.024 164.093 471.039 140.098 455.539 122.09C439.67 103.652 418.72 93.391 396.527 93.179C395.35 93.131 392.423 93.232 391.95 93.261C380.548 88.089 368.5 85.673 356.092 86.067C330.467 86.886 306.896 99.658 289.723 122.03C273.035 143.771 264.368 172.128 265.319 201.88C265.48 206.921 265.878 211.563 266.522 215.983C268.259 228.662 271.752 240.805 276.903 252.074C278.542 255.661 282.027 258.051 285.963 258.287C289.886 258.524 293.644 256.569 295.702 253.204C296.56 251.801 297.663 250.052 298.88 248.338C303.635 262.783 310.904 275.761 320.133 286.007C324.07 290.378 328.322 294.18 332.8 297.423C330.214 319.892 311.085 337.4 287.934 337.4C287.578 337.4 287.226 337.419 286.878 337.453C255.504 338.565 230.32 364.42 230.32 396.06V459.2C230.32 465.091 235.096 469.866 240.986 469.866H501.332C507.222 469.866 511.998 465.091 511.998 459.2V396.06C512 364.422 486.815 338.568 455.441 337.455ZM290.112 225.625C289.06 221.517 288.236 217.304 287.645 212.999C287.105 209.291 286.777 205.431 286.642 201.2C285.848 176.363 292.952 152.859 306.646 135.02C319.854 117.812 337.656 108 356.774 107.389C357.413 107.368 371.161 106.594 385.195 113.666C386.764 114.456 388.572 114.823 390.333 114.773C390.535 114.767 396.01 114.508 396.169 114.51C412.189 114.616 427.531 122.251 439.372 136.007C451.703 150.335 458.859 169.629 459.521 190.336C459.88 201.583 458.3 212.516 454.954 222.575C453.946 219.889 452.822 217.244 451.585 214.643C441.287 192.733 423.952 175.762 402.773 166.855C400.09 165.727 397.064 165.744 394.395 166.902C391.725 168.059 389.645 170.257 388.636 172.987C387.216 176.823 385.496 180.56 383.52 184.093C377.936 194.079 366.678 200.02 354.159 199.582C352.28 199.518 350.373 199.515 348.493 199.575C339.27 199.87 330.276 201.628 321.713 204.817C313.255 208.009 299.041 216.018 290.112 225.625ZM316.351 231.43C320.395 228.721 324.698 226.49 329.204 224.787C335.548 222.425 342.267 221.115 349.174 220.894C350.584 220.848 352.012 220.85 353.42 220.899C374.014 221.604 392.637 211.494 402.138 194.503C402.722 193.458 403.29 192.397 403.839 191.326C413.567 197.319 421.882 205.766 428.134 216.018C428.08 216.334 428.034 216.651 428.008 216.977C426.372 237.214 419.391 255.786 408.35 269.272C397.921 282.013 384.697 289.029 371.114 289.029C346.004 289.027 323.666 265.158 316.351 231.43ZM352.654 307.492C358.657 309.368 364.848 310.358 371.114 310.358C377.498 310.358 383.711 309.364 389.669 307.494C393.953 325.657 405.698 340.96 421.487 349.989C415.328 372.244 394.86 388.247 371.163 388.247C347.464 388.247 326.997 372.243 320.839 349.987C336.626 340.96 348.371 325.656 352.654 307.492ZM490.669 448.537H251.654V396.062C251.654 375.479 268.4 358.732 288.984 358.732C289.34 358.732 289.692 358.713 290.04 358.679C293.713 358.564 297.314 358.16 300.815 357.47C310.08 387.886 338.428 409.58 371.162 409.58C403.896 409.58 432.243 387.886 441.51 357.471C445.01 358.161 448.611 358.565 452.283 358.679C452.631 358.713 452.983 358.732 453.339 358.732C473.923 358.732 490.669 375.478 490.669 396.062V448.537V448.537Z" fill="#1A5AFF"/>
</svg>
