<svg xmlns="http://www.w3.org/2000/svg" width="20" height="20" viewBox="0 0 20 20">
    <g>
        <path fill="none" d="M0 0H20V20H0z" transform="translate(-138 -341) translate(138 341)"/>
        <path fill="#909ab2" fill-rule="evenodd" d="M23.982 11.324l-1.7 8.818A4.762 4.762 0 0 1 17.6 24h-7.2a4.762 4.762 0 0 1-4.676-3.858l-1.7-8.818a.952.952 0 0 1 .4-.967l9.047-6.19a.952.952 0 0 1 1.075 0l9.047 6.19a.952.952 0 0 1 .4.967zm-6.649 2.1L14 11.143l-3.333 2.281.624 3.228a1.429 1.429 0 0 0 1.4 1.157h2.613a1.428 1.428 0 0 0 1.4-1.157z" transform="translate(-138 -341) translate(134 336.999)"/>
    </g>
</svg>
