<svg xmlns="http://www.w3.org/2000/svg" width="60" height="57" viewBox="0 0 60 57">
    <defs>
        <linearGradient id="linear-gradient" x1=".5" x2=".5" y2="1" gradientUnits="objectBoundingBox">
            <stop offset="0" stop-color="#fece77"/>
            <stop offset="1" stop-color="#d07204"/>
        </linearGradient>
        <style>
            .cls-3{fill:#fff}.cls-4{fill:#3e0f66}.cls-5{fill:url(#linear-gradient)}.cls-6{fill:#553096}.cls-7{fill:#96a5ff}.cls-8{fill:#fece77}.cls-14,.cls-9{fill:#f75959}.cls-11,.cls-13,.cls-15,.cls-21{fill-rule:evenodd}.cls-11,.cls-14{opacity:.53}.cls-12{fill:#f4c9c9}.cls-13{opacity:.23}.cls-15{opacity:.38}.cls-17{fill:#ffc7b9}.cls-18{fill:#ff7486}.cls-19{fill:#553197}.cls-20{fill:#553097}
        </style>
    </defs>
    <g id="illustration_2" transform="translate(-107.875 -114.887)">
        <ellipse id="Ellipse_463" cx="25.343" cy="25.309" fill="#f1eaff" rx="25.343" ry="25.309" transform="translate(115.94 121.27)"/>
        <path id="Path_7911" fill="rgba(85,49,151,0.75)" d="M50.328 30.7l-24.543 1.94a2.237 2.237 0 0 1-2.532-1.87l-1.44-18.228a2.233 2.233 0 0 1 2.2-2.245L48.56 8.353a2.237 2.237 0 0 1 2.532 1.87l1.444 18.232a2.234 2.234 0 0 1-2.2 2.245" transform="translate(88.993 107.662)"/>
        <path id="Path_7912" d="M51.062 10.223a2.237 2.237 0 0 0-2.532-1.87L23.987 10.3a2.235 2.235 0 0 0-2.2 2.245l.164 2.067 29.276-2.32z" class="cls-3" transform="translate(89.019 107.662)"/>
        <path id="Line_6" d="M29.277 0L0 2.32" class="cls-3" transform="translate(110.969 119.964)"/>
        <path id="Rectangle_3524" d="M0 0H29.369V0.397H0z" class="cls-4" transform="rotate(-4.53 1598.813 -1341.58)"/>
        <path id="Path_7913" d="M24.285 31.567a2.389 2.389 0 0 1-2.512-2.067l-1.444-18.228a2.436 2.436 0 0 1 2.389-2.458l24.543-1.945c.078 0 .157-.009.235-.009a2.386 2.386 0 0 1 2.511 2.061l1.446 18.232a2.436 2.436 0 0 1-2.389 2.458L24.52 31.556c-.083.007-.157.011-.235.011zm23.2-24.31a1.716 1.716 0 0 0-.2.008L22.742 9.211a2.041 2.041 0 0 0-2.024 2.031l1.452 18.231a1.994 1.994 0 0 0 2.115 1.7 1.715 1.715 0 0 0 .2-.008l24.543-1.945a2.041 2.041 0 0 0 2.022-2.032L49.6 8.952a2 2 0 0 0-2.115-1.7z" class="cls-4" transform="translate(90.278 108.947)"/>
        <path id="Path_7914" d="M75.828 22.424a.984.984 0 1 1-1.06-.9.984.984 0 0 1 1.06.9" class="cls-3" transform="translate(43.918 96.256)"/>
        <path id="Path_7915" d="M73.556 22.4a1.187 1.187 0 1 1 .1 0zm0-1.969a.485.485 0 0 0-.063 0 .816.816 0 1 0 .066 0z" class="cls-4" transform="translate(45.183 97.542)"/>
        <path id="Path_7916" d="M77.073 13.916a.492.492 0 0 1-.527-.451l-.146-1.856a.491.491 0 0 1 .978-.076l.146 1.856a.491.491 0 0 1-.449.527" class="cls-5" transform="translate(41.723 105.273)"/>
        <path id="Path_7917" d="M179.689 14.153a.984.984 0 1 1-1.06-.9.984.984 0 0 1 1.06.9" class="cls-3" transform="translate(-46.072 103.416)"/>
        <path id="Path_7918" d="M177.423 14.169a1.187 1.187 0 1 1 .1 0c-.037-.002-.068 0-.1 0zm0-1.969h-.063a.8.8 0 1 0 .063 0z" class="cls-4" transform="translate(-44.79 104.668)"/>
        <path id="Path_7919" d="M180.933 5.548a.494.494 0 0 1-.527-.451l-.146-1.856a.49.49 0 0 1 .976-.076l.148 1.856a.492.492 0 0 1-.451.527" class="cls-5" transform="translate(-48.268 112.537)"/>
        <path id="Path_7920" d="M213.908 11.474a.984.984 0 1 1-1.058-.9.984.984 0 0 1 1.058.9" class="cls-3" transform="translate(-75.714 105.737)"/>
        <path id="Path_7921" d="M212.024 11.618a1.171 1.171 0 1 1 .094 0zm0-1.969h-.063a.783.783 0 1 0 .063 0z" class="cls-4" transform="translate(-74.811 106.854)"/>
        <path id="Path_7922" d="M215.154 2.832a.491.491 0 0 1-.527-.449L214.48.527a.49.49 0 1 1 .976-.078l.148 1.856a.491.491 0 0 1-.449.527" class="cls-5" transform="translate(-77.909 114.888)"/>
        <path id="Path_7923" d="M41.308 25.144a.983.983 0 1 1-.342-.671.984.984 0 0 1 .342.671" class="cls-3" transform="translate(73.809 93.9)"/>
        <path id="Path_7924" d="M39.084 25.129a1.188 1.188 0 1 1 .09 0 .848.848 0 0 1-.09 0zm0-1.969h-.063a.784.784 0 1 0 .063 0z" class="cls-4" transform="translate(75.056 95.177)"/>
        <path id="Path_7925" d="M42.572 16.481a.491.491 0 0 1-.536-.449l-.148-1.856a.492.492 0 1 1 .98-.083l.148 1.856a.491.491 0 0 1-.444.532" class="cls-5" transform="translate(71.606 103.075)"/>
        <path id="Path_7926" d="M110.518 19.674a.984.984 0 1 1-1.06-.9.984.984 0 0 1 1.06.9" class="cls-3" transform="translate(13.845 98.637)"/>
        <path id="Path_7927" d="M108.53 19.61a1.187 1.187 0 1 1 .094 0zm0-1.969a.506.506 0 0 0-.063 0 .782.782 0 1 0 .063 0z" class="cls-4" transform="translate(14.851 99.962)"/>
        <path id="Path_7928" d="M111.765 11.054a.491.491 0 0 1-.527-.447l-.148-1.856a.49.49 0 1 1 .976-.076l.148 1.856a.491.491 0 0 1-.449.527" class="cls-5" transform="translate(11.648 107.766)"/>
        <path id="Path_7929" d="M145.216 16.889a1.2 1.2 0 1 1 0-.005" class="cls-3" transform="translate(-16.21 101.053)"/>
        <path id="Path_7930" d="M143.233 16.877a1.186 1.186 0 1 1 .1 0zm0-1.969a.485.485 0 0 0-.063 0 .782.782 0 1 0 .063 0z" class="cls-4" transform="translate(-15.211 102.325)"/>
        <path id="Path_7931" d="M146.463 8.413a.492.492 0 0 1-.527-.451l-.148-1.855a.491.491 0 0 1 .978-.078l.146 1.856a.491.491 0 0 1-.449.527" class="cls-5" transform="translate(-18.408 110.039)"/>
        <path id="Path_7932" d="M63.027 63.614a.974.974 0 0 1-.893 1.049l-24.286 1.922a.975.975 0 0 1-1.048-.895L35.74 52.3a.972.972 0 0 1 .895-1.047l24.284-1.926a.975.975 0 0 1 1.047.892z" class="cls-3" transform="translate(76.931 72.175)"/>
        <path id="Path_7933" d="M0 0h.23l.04 15.421H.04z" class="cls-6" transform="rotate(-4.574 1600.994 -1392.8)"/>
        <path id="Rectangle_3525" d="M0 0H0.231V15.993H0z" class="cls-6" transform="rotate(-4.53 1610.204 -1505.068)"/>
        <path id="Path_7934" d="M0 0h.229l.04 15.5H.04z" class="cls-6" transform="rotate(-4.55 1601.59 -1544.208)"/>
        <path id="Path_7935" d="M0 0h.231L.27 15.5H.04z" class="cls-6" transform="rotate(-4.57 1593.016 -1583.624)"/>
        <path id="Path_7936" d="M0 0h.229l.04 15.5h-.23z" class="cls-6" transform="rotate(-4.53 1604.661 -1645.663)"/>
        <path id="Path_7937" d="M0 0h.229l.039 15.373H.039z" class="cls-6" transform="rotate(-4.44 1611.169 -1458.108)"/>
        <path id="Rectangle_3526" d="M0 0H26.714V0.24H0z" class="cls-6" transform="rotate(-4.44 1736.9 -1384.722)"/>
        <path id="Rectangle_3527" d="M0 0H26.714V0.24H0z" class="cls-7" transform="rotate(-4.44 1762.508 -1370.031)"/>
        <path id="Rectangle_3528" d="M0 0H26.295V0.24H0z" class="cls-6" transform="rotate(-4.53 1665.494 -1363.519)"/>
        <path id="Path_7938" d="M39.2 62.19l-2.57.2a.972.972 0 0 0-.895 1.047l.225 2.843 3.546-.28z" class="cls-8" transform="translate(76.931 61.037)"/>
        <path id="Rectangle_3529" d="M0 0H3.534V3.84H0z" class="cls-3" transform="rotate(-4.53 1658.92 -1603.204)"/>
        <path id="Rectangle_3530" d="M0 0H3.699V3.84H0z" class="cls-3" transform="rotate(-4.53 1666.301 -1411.46)"/>
        <path id="Rectangle_3531" d="M0 0H3.451V3.419H0z" class="cls-3" transform="rotate(-4.574 1746.354 -1499.853)"/>
        <path id="Rectangle_3532" d="M0 0H3.534V3.586H0z" class="cls-8" transform="rotate(-4.53 1708.432 -1652.675)"/>
        <path id="Path_7939" d="M42.24 151.434l.2 2.426a.988.988 0 0 0 1.069.891l2.623-.2-.274-3.4z" class="cls-8" transform="translate(71.3 -16.072)"/>
        <path id="Rectangle_3533" d="M0 0H3.451V3.81H0z" class="cls-8" transform="rotate(-4.574 1647.475 -1495.701)"/>
        <path id="Path_7940" d="M273.117 18.584l-.146-1.84a.551.551 0 0 0-.589-.5l-5.759.457a.547.547 0 0 0-.5.582l.146 1.845a.549.549 0 0 0 .544.5h.044l5.758-.456a.55.55 0 0 0 .502-.588z" class="cls-4" transform="translate(-122.652 100.825)"/>
        <path id="Path_7941" d="M275.226 21a.165.165 0 0 1-.153.18l-5.758.456a.166.166 0 0 1-.18-.153l-.141-1.847a.158.158 0 0 1 .039-.121.165.165 0 0 1 .114-.059L274.9 19h.013a.168.168 0 0 1 .166.153z" class="cls-3" transform="translate(-125.14 98.435)"/>
        <path id="Path_7942" d="M280.791 23.705a.185.185 0 0 0 .046-.134.19.19 0 0 0-.211-.178l-3.3.268a.19.19 0 0 0 .015.38h.016l3.3-.26a.188.188 0 0 0 .134-.076z" class="cls-4" transform="translate(-132.21 94.632)"/>
        <path id="Path_7943" d="M291.719 29.51l-1.648.134a.194.194 0 0 0-.134.066.189.189 0 0 0 .145.314h.015l1.648-.134a.19.19 0 1 0-.025-.378z" class="cls-4" transform="translate(-143.233 89.334)"/>
        <path id="Path_7944" d="M8.458 234.793l8.717-3.608A11.338 11.338 0 0 0 13.7 226.1a11.005 11.005 0 0 1-3.124-4.576l-8.716 3.604a12.661 12.661 0 0 0 3.42 5.009 9.9 9.9 0 0 1 3.178 4.656z" class="cls-3" transform="translate(106.264 -77.068)"/>
        <path id="Path_7945" d="M6.715 233.34l-.059-.219a9.791 9.791 0 0 0-3.111-4.553 12.826 12.826 0 0 1-3.487-5.1L0 223.292l9.09-3.762.064.209a10.9 10.9 0 0 0 3.063 4.483 11.448 11.448 0 0 1 3.538 5.19l.044.168zM.5 223.515a12.338 12.338 0 0 0 3.3 4.745 10.193 10.193 0 0 1 3.174 4.54l8.345-3.453a11.616 11.616 0 0 0-3.362-4.828 11.279 11.279 0 0 1-3.1-4.458z" class="cls-4" transform="translate(107.875 -75.346)"/>
        <path id="Path_7946" d="M52.62 205.566l.819-2.989 7.048-10.217 1.672 1.153-7.047 10.217z" class="cls-3" transform="translate(62.312 -51.8)"/>
        <path id="Path_7947" d="M51.6 204.685a.16.16 0 0 1-.153-.2l.819-2.989a.134.134 0 0 1 .023-.048l7.048-10.217a.16.16 0 0 1 .221-.04l1.672 1.153a.16.16 0 0 1 .04.221l-7.048 10.22a.194.194 0 0 1-.036.038l-2.493 1.836a.161.161 0 0 1-.093.026zm.966-3.085l-.691 2.521 2.1-1.548 6.942-10.059-1.411-.974z" transform="translate(63.335 -50.762)"/>
        <path id="Path_7948" d="M55.112 268.318l-2.492 1.835.819-2.989.393-.213.1.565.577-.1.032.624.63-.165-.06.443z" class="cls-3" transform="translate(62.312 -116.403)"/>
        <path id="Path_7949" d="M51.6 269.275a.16.16 0 0 1-.153-.2l.819-2.989a.157.157 0 0 1 .078-.1l.393-.213a.154.154 0 0 1 .145 0 .158.158 0 0 1 .087.115l.074.409.42-.071a.158.158 0 0 1 .185.149l.023.429.441-.117a.16.16 0 0 1 .2.173l-.06.443a.159.159 0 0 1-.066.109l-2.491 1.835a.161.161 0 0 1-.095.028zm.955-3.042l-.68 2.482 2.069-1.521.019-.134-.4.1a.16.16 0 0 1-.134-.025.162.162 0 0 1-.064-.119l-.024-.447-.4.068a.158.158 0 0 1-.182-.134l-.062-.347z" transform="translate(63.335 -115.368)"/>
        <path id="Path_7950" d="M54.864 281.38l.469.351-.713.524z" class="cls-9" transform="translate(60.58 -128.899)"/>
        <path id="Path_7951" d="M61.389 204.648a.165.165 0 0 1-.091-.028.161.161 0 0 1-.039-.221l7.135-10.167a.159.159 0 0 1 .26.182l-7.134 10.167a.158.158 0 0 1-.131.067z" transform="translate(54.856 -53.356)"/>
        <path id="Path_7952" d="M65.961 208.4a.165.165 0 0 1-.091-.028.162.162 0 0 1-.043-.223l7.12-10.193a.16.16 0 0 1 .221-.04.162.162 0 0 1 .039.223l-7.119 10.193a.162.162 0 0 1-.127.068z" transform="translate(50.9 -56.585)"/>
        <path id="Path_7953" d="M253.517 62.817a1.67 1.67 0 0 0 1.274 1.989l13.57 2.972a1.671 1.671 0 0 0 1.989-1.278l1.117-5.107a1.67 1.67 0 0 0-1.273-1.988l-13.57-2.972a1.67 1.67 0 0 0-1.989 1.274z" class="cls-3" transform="translate(-111.752 66.052)"/>
        <path id="Path_7954" d="M267.5 66.69a1.932 1.932 0 0 1-.4-.043l-13.562-2.969a1.878 1.878 0 0 1-1.424-2.226l1.117-5.106a1.878 1.878 0 0 1 1.824-1.475 1.838 1.838 0 0 1 .4.044l13.562 2.977a1.868 1.868 0 0 1 1.426 2.226l-1.119 5.106a1.878 1.878 0 0 1-1.824 1.466zm-12.458-11.416a1.475 1.475 0 0 0-1.435 1.156l-1.119 5.107a1.475 1.475 0 0 0 1.123 1.752l13.57 2.972a1.467 1.467 0 0 0 1.752-1.123l1.119-5.107a1.475 1.475 0 0 0-1.123-1.752l-13.57-2.971a1.487 1.487 0 0 0-.317-.034z" class="cls-4" transform="translate(-110.529 67.376)"/>
        <path id="Path_7955" d="M329.561 82.7a.73.73 0 0 0 .557.868l4.648 1.018a.73.73 0 0 0 .868-.557l.587-2.682a.73.73 0 0 0-.557-.868l-4.648-1.018a.727.727 0 0 0-.868.557z" class="cls-3" transform="translate(-177.592 46.056)"/>
        <path id="Path_7956" d="M333.645 83.551a1 1 0 0 1-.2-.021l-4.645-1.018a.928.928 0 0 1-.707-1.105l.586-2.682a.939.939 0 0 1 .907-.724.908.908 0 0 1 .2.021l4.648 1.018a.931.931 0 0 1 .708 1.106l-.587 2.682a.939.939 0 0 1-.91.723zm-4.062-5.157a.536.536 0 0 0-.518.417l-.587 2.682a.536.536 0 0 0 .4.632l4.647 1.018a.562.562 0 0 0 .115.012.536.536 0 0 0 .516-.417l.587-2.682a.53.53 0 0 0-.4-.632L329.7 78.4a.549.549 0 0 0-.118-.006z" class="cls-4" transform="translate(-176.314 47.305)"/>
        <path id="Path_7957" d="M342.26 81.236l-3.215 1.612-2.265-2.728" class="cls-3" transform="translate(-183.857 45.47)"/>
        <path id="Path_7958" d="M337.763 81.768a.2.2 0 0 1-.153-.072l-2.265-2.736a.2.2 0 1 1 .306-.253l2.163 2.607 3.078-1.541a.2.2 0 0 1 .178.355l-3.219 1.609a.192.192 0 0 1-.088.031z" class="cls-4" transform="translate(-182.576 46.757)"/>
        <path id="Line_7" d="M7.757 1.699L0 0" class="cls-3" transform="translate(143.929 124.694)"/>
        <path id="Path_7959" d="M276.041 74.022a.163.163 0 0 1-.043 0l-7.757-1.7a.2.2 0 1 1 .086-.389l7.757 1.7a.2.2 0 0 1-.043.393z" class="cls-4" transform="translate(-124.356 52.571)"/>
        <path id="Line_8" d="M4.023 0.881L0 0" class="cls-3" transform="translate(147.329 127.018)"/>
        <path id="Path_7960" d="M297.674 90.631a.235.235 0 0 1-.043 0l-4.023-.881a.2.2 0 1 1 .084-.389l4.023.882a.2.2 0 0 1 .152.236.2.2 0 0 1-.193.152z" class="cls-4" transform="translate(-146.322 37.469)"/>
        <path id="Path_7961" fill="none" d="M283.725 127.711a.571.571 0 0 0 .649-.715.614.614 0 0 0-.536-.451 2.767 2.767 0 0 1-.46 0c-.012 0-.011.016-.009.029-.024.182-.134.253-.173.4a.62.62 0 0 0 .53.734z" transform="translate(-137.423 5.25)"/>
        <path id="Path_7962" d="M124.292 100.285a.7.7 0 0 0 .3-.727.864.864 0 0 0-.268-.386.587.587 0 0 0 .176-.642c-.19-.511-.895-.436-1.435-.292a4.855 4.855 0 0 0-1.055.42c-.114.062-.2.158-.306.169a2.445 2.445 0 0 0-2.086-2.081 2.082 2.082 0 0 0-1.207.152.7.7 0 0 0-.346.491c-.495-.09-.722.255-.921.551a2.816 2.816 0 0 0-.5 1.524 2.715 2.715 0 0 0 1.341 2.229c-1.053 1.735-2.041 3.574-2.951 5.418a7.618 7.618 0 0 1-.4.8 45.7 45.7 0 0 0-4.308-2.631 14.448 14.448 0 0 0-2.454-1.019 10.98 10.98 0 0 0-3.078-.388c.007-.154.021-.3.038-.447l.618.078a1.61 1.61 0 0 0 .646.035c.174-.063.268-.38.374-.491.031.217-.1.392-.008.53s.429.072.6.106c.3-.193.349-.617.511-.939a2.682 2.682 0 0 1-.023.488c-.016.148-.093.351-.038.46s.349.115.506.134c.186.021.464.083.577.008.068-.046.091-.286.122-.392a6.528 6.528 0 0 1 .495-1.049 3.212 3.212 0 0 0 .42-1.647 2.511 2.511 0 0 0-.66-1.414 2.556 2.556 0 0 1-.743-1.341 4.983 4.983 0 0 1 .156-1.3 6.236 6.236 0 0 0 .1-1.365 3.736 3.736 0 0 0-2.575-3.353 4.943 4.943 0 0 0-2.289-.172 1.687 1.687 0 0 1-.323.058 1.056 1.056 0 0 1-.24-.134 3.846 3.846 0 0 0-.79-.339 3.332 3.332 0 0 0-1.316-.213 3.719 3.719 0 0 0-.9.217 3.958 3.958 0 0 0-1.9 1.271 3.834 3.834 0 0 0-.7 1.385 14.82 14.82 0 0 1-.939 3.24 11.632 11.632 0 0 1-.929 1.179 4.459 4.459 0 0 0-1 2.126c-.047.256-.152.779-.047.919.076.1.331.11.477.134s.41.11.536.05c.067-.032.066-.11.11-.237a1.657 1.657 0 0 1 .4-.617 3.326 3.326 0 0 0-.066.447.952.952 0 0 0 .046.473c.068.1.319.113.452.134 1.176.2 2.481.417 3.558.62-.072.358-.11.748-.186 1.1a12.9 12.9 0 0 0-3.636.063 11.519 11.519 0 0 0-2.91 1.031c-.429.205-.85.453-1.257.695-1.235.735-2.43 1.522-3.571 2.319-.959-1.609-1.943-3.2-2.9-4.817a2.71 2.71 0 0 0 1.261-1.823 2.481 2.481 0 0 0-.154-1.321 2.607 2.607 0 0 0-.6-.955.786.786 0 0 0-.671-.2c-.094-.608-.958-.695-1.579-.583a2.462 2.462 0 0 0-2.029 2.123 4.357 4.357 0 0 0-.974-.451 2.917 2.917 0 0 0-1.195-.225.653.653 0 0 0-.653.7c.023.172.127.253.215.388-.414.2-.3.919.052 1.1a.59.59 0 0 0-.161.754c.161.3.6.393.876.536a4.681 4.681 0 0 1 1.609 1.279 11.426 11.426 0 0 1 1.357 2.493c.386.9.752 1.793 1.151 2.7.181.414.414.869.6 1.332a6.4 6.4 0 0 0 .6 1.33 2.867 2.867 0 0 0 2.79.988 7.779 7.779 0 0 0 1.554-.377c.514-.164 1-.327 1.442-.5 1.918-.762 3.68-1.4 5.5-2.253a3.583 3.583 0 0 0 .754 1.009c.1.086.268.174.311.275a3.266 3.266 0 0 1 .023.8c-.009.294-.012.582-.035.794a2.855 2.855 0 0 1-.409 1.245.591.591 0 0 1-.039.046c.094.017 7.748.333 8.129.429a3.061 3.061 0 0 1-.268-.928 2.452 2.452 0 0 1 .2-1.6 2.712 2.712 0 0 1 .459-.367 5.241 5.241 0 0 0 .917-1.073.714.714 0 0 1 .165-.239c.959.42 1.91.8 2.877 1.169s1.958.735 2.973 1.085c.491.168 1.006.333 1.549.472a5.28 5.28 0 0 0 1.827.177 2.816 2.816 0 0 0 1.475-.571 2.75 2.75 0 0 0 .817-1.22c.094-.245.16-.5.26-.74.494-1.192 1-2.367 1.5-3.551.4-.952.793-1.911 1.192-2.853a6.832 6.832 0 0 1 .317-.7 6.748 6.748 0 0 1 .4-.617 4.724 4.724 0 0 1 1.639-1.38c.355-.185 1.022-.331.917-.939a.736.736 0 0 0-.239-.379zm-6.007-1.685c.047-.223.213-.325.247-.586 0-.02 0-.04.013-.043a3.429 3.429 0 0 0 .66.008.88.88 0 0 1 .764.646.82.82 0 0 1-.931 1.026.888.888 0 0 1-.754-1.051zm-6.734 7.725c.134.06.233.149.366.205a3.462 3.462 0 0 1-.306.337c-.134-.068-.247-.17-.381-.247.095-.108.225-.184.321-.291zm-2.779 3.077c.055-.134.166-.207.236-.323.2.1.359.237.565.33-.034.118-.125.182-.18.28-.216-.089-.403-.198-.621-.284zm.413.567a1.729 1.729 0 0 1-.193.28c-.227-.08-.424-.19-.636-.287.04-.122.134-.188.194-.294.213.103.418.209.635.304zm.046-1.156c.075-.1.162-.192.235-.3.2.082.374.194.565.287-.068.121-.166.215-.235.337-.207-.083-.375-.215-.565-.321zm.471-.562c.075-.111.178-.194.249-.308.193.076.333.208.523.287a1 1 0 0 1-.249.3c-.173-.095-.345-.188-.525-.276zm.5-.562c.07-.113.181-.182.251-.3.181.06.292.192.465.26-.051.125-.157.2-.221.308-.178-.069-.321-.18-.497-.265zm.515-.549c.072-.1.169-.185.249-.28.152.071.26.186.409.26-.062.1-.162.173-.221.28-.154-.076-.292-.169-.437-.256zm-5.492-2.94a1.8 1.8 0 0 1-.235.378c-.134-.067-.255-.144-.394-.205a.365.365 0 0 1 .134-.182 4.536 4.536 0 0 0 .495.009zm-3.01.88a2.261 2.261 0 0 1-1.734-.763 1.245 1.245 0 0 1-.287-.536 2.511 2.511 0 0 1 .079-.586c.087-.565.177-1.1.268-1.7a4.52 4.52 0 0 0 .8 0c.158-.013.294-.008.292-.169s-.189-.146-.366-.134a2.65 2.65 0 0 1-2.548-1.144 5.313 5.313 0 0 1-.429-3.574c.017-.064.055.017.071.027a.952.952 0 0 0 .3.122c.245.048.616-.017.616-.215 0-.268-.318-.076-.536-.106s-.268-.161-.367-.288a15.682 15.682 0 0 1 .5-1.878 7.164 7.164 0 0 0 4.237-.321h.028a4.132 4.132 0 0 0 .772 2.861c.076.093.177.228.268.248a1.341 1.341 0 0 0 .38-.032 1.159 1.159 0 0 1 1.245.939.958.958 0 0 1-.3.783 1.431 1.431 0 0 1-1.317.291c-.09-.025-.182-.1-.282-.094-.169.015-.367.361-.444.506a2.267 2.267 0 0 0-.247.684 15.711 15.711 0 0 0-.052 1.811 3.654 3.654 0 0 1-.215.95c-.034.1-.1.215-.082.307.031.122.17.118.353.134.424.04.869.126 1.279.169 0 .1-.007.2-.012.306a1.319 1.319 0 0 1-.011.292 1.611 1.611 0 0 1-.389.449 2.845 2.845 0 0 1-1.87.665zm1.187.726a2.682 2.682 0 0 1-.575.134c.009-.207.025-.4.051-.6.109-.019.2-.05.308-.072.067.185.147.363.214.542zm-.874-.409c-.024.188-.031.393-.051.586a4.1 4.1 0 0 1-.618-.036c.076-.188.172-.358.247-.546.138.008.325-.007.422-.001zm-.787-.048a2.849 2.849 0 0 1-.233.518 3.89 3.89 0 0 1-.465-.176 2.927 2.927 0 0 1 .333-.421 1.633 1.633 0 0 0 .366.079zm-.719-.216a3.679 3.679 0 0 1-.29.38 2.746 2.746 0 0 1-.439-.317 1.974 1.974 0 0 1 .39-.253c.117.067.223.133.339.193zm2.7-.1a2.185 2.185 0 0 1 .41.4 2.226 2.226 0 0 1-.4.227 4.12 4.12 0 0 1-.215-.527.631.631 0 0 0 .201-.092zm.335-.2a1.62 1.62 0 0 0 .268-.212 2.862 2.862 0 0 1 .451.219 1.341 1.341 0 0 1-.346.366 2.156 2.156 0 0 1-.377-.363zm-7.728-3.307a2.448 2.448 0 0 1 .091-.754c.04-.164.2-.569-.034-.612-.158-.03-.268.134-.35.212a3.154 3.154 0 0 0-.692.982c-.178-.016-.331-.059-.506-.079A4.406 4.406 0 0 1 96 98.468a7.144 7.144 0 0 0 .86-1.136c.708-1.251.621-3.331 1.514-4.443a3.8 3.8 0 0 1 1.8-1.206 3.016 3.016 0 0 1 1.5-.134 3.578 3.578 0 0 1 1.341.5c.083.052.149.127.227.134a1.059 1.059 0 0 0 .308-.059 3.923 3.923 0 0 1 3.873 1.258 3.418 3.418 0 0 1 .751 2.08 6.169 6.169 0 0 1-.114 1.282 4.777 4.777 0 0 0-.141 1.256 2.424 2.424 0 0 0 .7 1.385 2.456 2.456 0 0 1 .7 1.372 2.62 2.62 0 0 1-.393 1.466 6.461 6.461 0 0 0-.562 1.3c-.174-.007-.317-.046-.492-.051a3.218 3.218 0 0 0-.07-1.294c-.039-.114-.091-.253-.227-.248-.157.008-.173.207-.207.35a4.45 4.45 0 0 1-.287.8c-.052.118-.074.317-.268.253-.051-.068-.019-.181-.017-.292 0-.262.039-.766-.19-.791s-.268.292-.346.463a2.036 2.036 0 0 1-.3.5c-.916-.1-1.827-.215-2.728-.335a4.5 4.5 0 0 0 .243-1.033c.034-.518-.039-1.073.013-1.56a1.927 1.927 0 0 1 .452-1.119 1.783 1.783 0 0 0 1.794-.338 1.263 1.263 0 0 0 .384-1.034 1.5 1.5 0 0 0-1.852-1.192 3.726 3.726 0 0 1-.826-2.682c.009-.189.1-.481-.075-.536-.153-.052-.342.123-.448.17a6.955 6.955 0 0 1-3.732.33 1.513 1.513 0 0 0-.477-.094c-.1.032-.17.311-.22.463a10.382 10.382 0 0 0-.62 4.072c.145 1.7.887 2.749 2.347 3.11-.025.256-.084.479-.106.739-1.269-.202-2.525-.421-3.784-.639zm3.806 2.889c.109.072.158.205.268.276a2.216 2.216 0 0 1-.363.24c-.1-.126-.2-.252-.284-.388a2.5 2.5 0 0 1 .375-.119zm-.229-.471c.03.044.039.11.071.152a1.946 1.946 0 0 1-.392.134c-.047-.1-.083-.207-.134-.306a1.63 1.63 0 0 1 .455.017zm-7.147 1.434c.085.064.125.174.2.249-.117.106-.278.17-.4.268a.74.74 0 0 1-.213-.276 3.541 3.541 0 0 0 .417-.244zm1.151 2.792c-.047-.107-.119-.189-.158-.3a3.541 3.541 0 0 0 .448-.215c.094.059.114.2.185.278a3.22 3.22 0 0 1-.475.241zm.618.078a.962.962 0 0 1 .172.3c-.142.087-.3.157-.433.255-.068-.1-.118-.219-.185-.319a4.718 4.718 0 0 1 .441-.247zm-.962-.671a1.369 1.369 0 0 0-.142-.249 2.319 2.319 0 0 1 .475-.241c.04.1.118.161.144.278-.164.056-.307.142-.476.2zm-.3-.554a.966.966 0 0 1-.17-.278c.134-.083.288-.16.418-.253.09.068.118.2.2.276-.129.09-.307.15-.447.245zm-.37-.567c-.044-.091-.107-.164-.157-.249.106-.122.283-.176.4-.282a1.082 1.082 0 0 1 .2.29c-.16.056-.276.17-.445.232zm-7.632-6.572a.889.889 0 0 1-.735 1.025.823.823 0 0 1-.964-.994c.114-.507.553-.756 1.286-.671a.494.494 0 0 1 .1-.03c.072.012.059.089.071.125a1.184 1.184 0 0 0 .043.134c.064.142.181.247.207.405zm7.2 11.431c-1.085.414-2.171.869-3.372 1.218a5.352 5.352 0 0 1-1.289.235 3.239 3.239 0 0 1-1.322-.2 2 2 0 0 1-.919-.7 3.755 3.755 0 0 1-.33-.679c-.288-.693-.612-1.436-.905-2.094-.393-.881-.8-1.866-1.207-2.787a13.913 13.913 0 0 0-.671-1.33 6.875 6.875 0 0 0-.8-1.19 5.071 5.071 0 0 0-1.1-.895 5.768 5.768 0 0 0-.638-.347c-.186-.08-.559-.16-.551-.44a.346.346 0 0 1 .149-.252c.164-.08.485.036.661.091a4.971 4.971 0 0 1 .578.217 5.121 5.121 0 0 1 .536.268c.074.043.414.345.507.119.08-.192-.385-.414-.51-.481a6.478 6.478 0 0 0-1.475-.557c-.248-.071-.551-.18-.536-.481.02-.429.689-.3 1.037-.192a5.521 5.521 0 0 1 1.3.586c.071.042.209.144.28 0 .11-.225-.373-.4-.5-.469a5.174 5.174 0 0 0-1.451-.514c-.247-.047-.61-.078-.608-.37 0-.268.294-.319.644-.286a3.593 3.593 0 0 1 .76.174 4.222 4.222 0 0 1 .972.449c.08.052.172.18.3.165s.15-.172.165-.378a1.825 1.825 0 0 1 .467-1.132 2.146 2.146 0 0 1 1.817-.785c.2.013.642.068.671.314a.253.253 0 0 1-.152.294.979.979 0 0 1-.4.032 1.552 1.552 0 0 0-.714.146 1.152 1.152 0 0 0-.563 1.3 1.108 1.108 0 0 0 1.117.852 1.2 1.2 0 0 0 1.019-.566 1.273 1.273 0 0 0 .146-.8 1.048 1.048 0 0 0-.144-.333.526.526 0 0 1-.115-.361.307.307 0 0 1 .362-.253c.169.016.268.16.354.26a2.45 2.45 0 0 1 .561 1.29 2.24 2.24 0 0 1-.393 1.466 2.788 2.788 0 0 1-.709.689c-.062.04-.239.134-.251.211s.106.252.172.361c.928 1.536 1.829 3.032 2.784 4.61.078.134.157.262.241.276.168.03.374-.152.5-.241 1.03-.723 1.99-1.353 3.1-2.012a3.205 3.205 0 0 1 .4.511c.362.526.7 1.108 1.027 1.689a20.519 20.519 0 0 1 1.207 2.414c-.759.31-1.474.606-2.2.882zm1.958-2.218c.141-.079.287-.154.42-.241a2.3 2.3 0 0 1 .229.472 1.954 1.954 0 0 0-.42.212 2.027 2.027 0 0 1-.229-.448zm.536 1.192c-.046-.161-.123-.288-.173-.444a2.569 2.569 0 0 1 .433-.2c.051.16.118.3.158.472-.145.05-.27.122-.422.166zm2.774 3.663a8.29 8.29 0 0 0 .258-.895c1.247.02 2.438.127 3.68.173.4.015.8.082 1.182.1.31.013.62 0 .927.019s.585.048.885.047a5.312 5.312 0 0 0 .148.834c-2.364-.1-4.7-.212-7.083-.284zm.276-2.626a1.022 1.022 0 0 1 .282.024c-.021.444-.028.9-.043 1.352a.581.581 0 0 1-.225-.012c-.016-.427-.003-.89-.016-1.355zm.575 1.387c.032-.433 0-.923.056-1.341.1.02.219.013.31.039-.023.436-.051.869-.058 1.322a1.23 1.23 0 0 1-.306-.02zm.646.05c.019-.447.02-.909.071-1.324a3.254 3.254 0 0 0 .393.038c-.015.44-.044.866-.056 1.309-.129-.013-.266-.02-.405-.023zm.758.034c-.008-.453.027-.866.058-1.281.134.015.26.028.394.038-.025.425-.056.846-.086 1.267a3.518 3.518 0 0 1-.363-.024zm.7.05c.035-.413.064-.83.086-1.254.168.013.335.027.492.051-.032.4-.054.821-.086 1.226-.163.003-.313-.019-.491-.015zm.844.047c0-.37.052-.813.072-1.207.1-.016.256.03.393.024 0 .373-.074.783-.072 1.2-.142.007-.245-.025-.39-.015zm.731.035c.013-.409.058-.789.086-1.184a2.8 2.8 0 0 1 .3.039c-.05.384-.1.766-.143 1.157a1.475 1.475 0 0 1-.235-.012zm1.011.046c-.111.02-.279-.017-.422-.009.021-.4.1-.762.134-1.157.11.016.233.017.338.039a10.527 10.527 0 0 0-.047 1.128zm.337.024a7.759 7.759 0 0 1 .059-1.115c.144-.008.24.028.38.024-.031.37-.062.74-.087 1.115-.111-.011-.241-.005-.349-.023zm1.053.059c-.134.012-.22-.02-.35-.009a9.418 9.418 0 0 1 .087-1.1c.148.023.319.023.464.051a2.425 2.425 0 0 0-.2 1.06zm2.979-2.7c-.229-.1-.461-.208-.7-.3a5.86 5.86 0 0 0 .571-1.76c.025-.219.09-.591-.134-.6-.243-.007-.161.382-.19.6a4.879 4.879 0 0 1-.616 1.733 4.977 4.977 0 0 1-1.263 1.5.9.9 0 0 1-.236.156 2.324 2.324 0 0 1-.464-.038q-3.1-.319-6.2-.621a3.056 3.056 0 0 1-.449-.038 1.174 1.174 0 0 1-.3-.22 3.455 3.455 0 0 1-1.188-2.37 4.8 4.8 0 0 1 0-.528c.007-.134.134-.565-.1-.57-.3-.008-.221.917-.2 1.171a4.059 4.059 0 0 0 .268 1.14 1.3 1.3 0 0 1-.377.185 1.674 1.674 0 0 1-.392.17 17.613 17.613 0 0 0-1.878-3.672c-.209-.331-.416-.645-.641-.968-.027-.036-.093-.066-.072-.123a17.649 17.649 0 0 1 2.028-.912 10.356 10.356 0 0 1 3.983-.429 3.393 3.393 0 0 0 1.1 1.675 3.278 3.278 0 0 0 1.988.774 3.5 3.5 0 0 0 2.17-.62 3.643 3.643 0 0 0 1.263-1.489 12.027 12.027 0 0 1 5.633 1.922c.007.063-.062.094-.1.126-.29.259-.586.562-.861.858a29 29 0 0 0-2.429 2.961 1.7 1.7 0 0 1-.208.28zm.987.394c-.22-.082-.425-.178-.648-.258.025-.109.1-.165.152-.252.237.074.412.212.649.286a.754.754 0 0 1-.15.224zm15.112-9.561a5.534 5.534 0 0 0-1.646 1.131 7.274 7.274 0 0 0-1.353 2.324q-.555 1.314-1.084 2.587c-.359.865-.728 1.721-1.084 2.587-.173.421-.362.86-.536 1.3a2.988 2.988 0 0 1-.648 1.19 2.33 2.33 0 0 1-1.273.583 4.579 4.579 0 0 1-1.671-.109 22.085 22.085 0 0 1-2.79-.892c-.892-.323-1.729-.634-2.682-.99a.771.771 0 0 1 .165-.28 29.511 29.511 0 0 1 3.085-3.889c.739.421 1.427.908 2.162 1.385.1.064.24.174.338.164.123-.012.215-.241.278-.378.742-1.609 1.572-3.14 2.426-4.66.219-.392.46-.8.718-1.218.059-.1.231-.317.221-.42-.015-.149-.342-.275-.467-.372a2.935 2.935 0 0 1-.426-.414 2.179 2.179 0 0 1-.507-1.554 2.381 2.381 0 0 1 .536-1.314c.115-.148.2-.323.5-.283.268.079.229.372.118.583a1.135 1.135 0 0 0-.164.4 1.187 1.187 0 0 0 .685 1.207 1.159 1.159 0 0 0 1.6-1.395 1.182 1.182 0 0 0-1.061-.8c-.3-.019-.8.091-.79-.286.009-.251.425-.334.642-.354a2.135 2.135 0 0 1 1.743.624 1.961 1.961 0 0 1 .6 1.178c.031.236.009.4.158.431.1.021.2-.07.28-.134a3.947 3.947 0 0 1 1.482-.641c.3-.066.888-.158.915.215.02.282-.286.331-.6.4a5.038 5.038 0 0 0-1.442.53c-.1.052-.57.268-.5.477.08.244.479-.106.546-.145a5.75 5.75 0 0 1 1.035-.441 2.106 2.106 0 0 1 .587-.145c.224 0 .428.084.453.268.043.33-.3.457-.558.536a7.038 7.038 0 0 0-1.538.628c-.134.078-.463.249-.4.421.082.233.38-.039.5-.115a5.084 5.084 0 0 1 1.119-.512c.173-.059.479-.182.645-.1a.349.349 0 0 1 .157.249c.02.275-.318.367-.481.441z" transform="translate(39.364 35.867)"/>
        <path id="Path_7963" d="M202.739 103.616c-1.461-.361-2.2-1.407-2.347-3.11a10.383 10.383 0 0 1 .62-4.072c.05-.152.117-.428.22-.463s.339.066.477.094a6.955 6.955 0 0 0 3.732-.33c.106-.047.3-.223.448-.17.18.06.084.353.075.536a3.735 3.735 0 0 0 .826 2.682 1.51 1.51 0 0 1 1.852 1.192 1.263 1.263 0 0 1-.384 1.034 1.783 1.783 0 0 1-1.794.338 1.927 1.927 0 0 0-.452 1.119c-.052.487.02 1.042-.013 1.56a4.5 4.5 0 0 1-.243 1.033c.9.121 1.812.231 2.728.335a2.036 2.036 0 0 0 .3-.5c.079-.17.125-.487.346-.463s.194.53.19.791c0 .111-.034.224.017.292.19.063.212-.134.268-.253a4.447 4.447 0 0 0 .287-.8c.034-.144.05-.342.207-.35.134 0 .188.134.227.248a3.219 3.219 0 0 1 .07 1.294c.176 0 .318.044.492.051a6.483 6.483 0 0 1 .562-1.3 2.625 2.625 0 0 0 .393-1.466 2.44 2.44 0 0 0-.7-1.372 2.424 2.424 0 0 1-.7-1.385 4.777 4.777 0 0 1 .142-1.255 6.168 6.168 0 0 0 .114-1.282 3.419 3.419 0 0 0-.751-2.08 3.912 3.912 0 0 0-3.873-1.258 1.059 1.059 0 0 1-.308.059c-.078-.009-.144-.084-.227-.134a3.579 3.579 0 0 0-1.341-.5 3.016 3.016 0 0 0-1.5.134 3.8 3.8 0 0 0-1.8 1.21c-.893 1.112-.8 3.192-1.514 4.443a7.143 7.143 0 0 1-.86 1.136 4.375 4.375 0 0 0-1.165 2.816c.174.02.327.063.506.079a3.155 3.155 0 0 1 .692-.982c.079-.079.192-.241.35-.212.235.043.074.448.034.612a2.447 2.447 0 0 0-.091.754c1.259.217 2.515.437 3.783.645.021-.271.08-.494.105-.75z" class="cls-7" transform="translate(-63.1 33.711)"/>
        <path id="Path_7964" d="M259.8 107.938h.028c.087.291.125.558.19.793a2.5 2.5 0 0 0 .742 1.218c.51.448 1.254.681 1.743 1.194a2 2 0 0 1 .646 1.511 1.561 1.561 0 0 1-.384.951 2.187 2.187 0 0 1-.752.578c-.468.2-1.182.208-1.427.683a4.366 4.366 0 0 0-.168 1.52 3.33 3.33 0 0 1-.213 1.046c-.038.091-.079.211-.181.239a.383.383 0 0 1-.071-.068c-.021-.043.042-.093-.015-.084-.134-.028-.291-.032-.351-.134-.007-.142.079-.213.109-.322a4.473 4.473 0 0 0 .091-.766c.019-.268.012-.547.02-.822a4.546 4.546 0 0 1 .224-1.475c.063-.157.233-.48.4-.506a3.505 3.505 0 0 1 .632.064 1.263 1.263 0 0 0 .723-.119 1.546 1.546 0 0 0 .569-.632 1.082 1.082 0 0 0-.021-.822 1.239 1.239 0 0 0-.511-.621 1.655 1.655 0 0 0-.563-.119 1.5 1.5 0 0 1-.648-.106 1.39 1.39 0 0 1-.413-.622 5.2 5.2 0 0 1-.245-.777 5.5 5.5 0 0 1-.215-1.794c.038.016.061-.039.061-.008z" class="cls-11" transform="translate(-116.987 21.368)"/>
        <path id="Path_7965" d="M217.575 111c.188 0-.043.39-.066.445a7.856 7.856 0 0 0-.445 1.52 9.473 9.473 0 0 0-.2 2.414 4.872 4.872 0 0 0 .205.972 3.6 3.6 0 0 0 .817 1.524 2.265 2.265 0 0 0 .654.5c.227.1.465.117.732.244-.021.168-.1.353-.121.536-.012.087.021.169-.012.237a1.658 1.658 0 0 1-.62-.134 3.56 3.56 0 0 1-2.194-3.279 8.632 8.632 0 0 1 .954-4.437 2.681 2.681 0 0 1 .3-.545z" class="cls-11" transform="translate(-79.489 18.708)"/>
        <path id="Path_7966" d="M228.524 121.094a1.32 1.32 0 0 0 .011-.292c0-.107.009-.2.012-.306-.41-.043-.856-.134-1.279-.169-.182-.017-.322-.013-.353-.134-.023-.093.048-.212.082-.307a3.653 3.653 0 0 0 .215-.95 15.711 15.711 0 0 1 .052-1.811 2.266 2.266 0 0 1 .247-.684c.076-.145.268-.491.444-.506.1-.009.192.068.282.094a1.431 1.431 0 0 0 1.317-.291.958.958 0 0 0 .3-.783 1.166 1.166 0 0 0-1.245-.939 1.341 1.341 0 0 1-.38.032c-.091-.02-.192-.156-.268-.248a4.132 4.132 0 0 1-.773-2.861h-.028a7.164 7.164 0 0 1-4.237.321 15.685 15.685 0 0 0-.5 1.878c.1.134.157.26.367.288s.536-.166.536.106c0 .2-.37.268-.616.215a.952.952 0 0 1-.3-.122c-.016-.009-.054-.091-.071-.027a5.317 5.317 0 0 0 .429 3.574 2.658 2.658 0 0 0 2.548 1.144c.177-.009.365-.034.366.134s-.134.156-.292.169a4.52 4.52 0 0 1-.8 0c-.087.6-.177 1.136-.268 1.7a2.512 2.512 0 0 0-.079.586 1.245 1.245 0 0 0 .287.536 2.261 2.261 0 0 0 1.734.763 2.845 2.845 0 0 0 1.871-.663 1.656 1.656 0 0 0 .389-.447zm-.229-6.32a1.609 1.609 0 0 1 .392-.087c.247-.03.815-.039.775.243-.032.215-.288.078-.463.06a1.409 1.409 0 0 0-.225 0c-.279.025-.5.192-.616.16a.174.174 0 0 1-.114-.134c-.01-.141.175-.216.25-.242zm-5.425-2.453c.015-.255.362-.33.614-.339.22-.009.38.028.367.233-.011.184-.287.312-.5.338-.263.031-.5.004-.482-.232zm1.341.656a2.641 2.641 0 0 1-.161.684c-.074.213-.188.426-.233.614a.754.754 0 0 0 .019.445c.052.115.223.178.228.276a.188.188 0 0 1-.134.169c-.217.035-.424-.286-.455-.536a1.643 1.643 0 0 1 .188-.85 3.114 3.114 0 0 0 .231-.8c.02-.192-.05-.376.123-.418.194-.067.204.149.194.416zm1.22 2.717a1.167 1.167 0 0 1-.8.355c-.153 0-.288-.064-.3-.164a.2.2 0 0 1 .1-.168c.071-.03.141.013.212.011a.849.849 0 0 0 .573-.268c.059-.067.054-.134.134-.2.359-.107.241.262.08.429zm-.185-1.628c-.235.03-.656-.078-.661-.268a.145.145 0 0 1 .125-.169c.113-.02.259.122.421.122a.536.536 0 0 0 .169-.03c.119-.044.207-.205.321-.227a.157.157 0 0 1 .2.134c0 .2-.384.414-.579.437zm1.145-1.375a.268.268 0 0 1-.208.154 1.056 1.056 0 0 1-.634-.2c-.134-.075-.417-.2-.412-.428 0-.154.134-.2.268-.211a1.253 1.253 0 0 1 .634.216c.142.085.407.244.352.47z" class="cls-12" transform="translate(-84.632 18.756)"/>
        <path id="Path_7967" d="M239.1 166.633c.013.146-.117.247-.221.322a2.28 2.28 0 0 1-.742.342c-.134.036-.3.117-.4.017-.016-.083.089-.051.111-.1.016-.371.134-.574.527-.6h.225c.172-.014.38-.062.5.019z" class="cls-13" transform="translate(-98.057 -29.443)"/>
        <path id="Path_7968" d="M227.938 118.935c.012-.205-.148-.243-.367-.233-.252.009-.6.084-.614.339-.013.229.224.268.48.232.214-.026.49-.154.501-.338z" transform="translate(-88.717 12.046)"/>
        <path id="Path_7969" d="M244.783 119.1a1.253 1.253 0 0 0-.634-.216c-.134.009-.26.056-.268.211 0 .227.279.353.412.428a1.057 1.057 0 0 0 .634.2.268.268 0 0 0 .208-.154c.058-.228-.208-.387-.352-.469z" transform="translate(-103.378 11.89)"/>
        <path id="Path_7970" d="M231.911 122.877c-.173.043-.1.227-.123.418a3.114 3.114 0 0 1-.231.8 1.637 1.637 0 0 0-.188.85c.031.253.237.574.455.536a.188.188 0 0 0 .134-.169c0-.1-.176-.161-.228-.276a.754.754 0 0 1-.019-.445c.046-.188.16-.4.233-.614a2.641 2.641 0 0 0 .161-.684c.024-.254.013-.47-.194-.416z" transform="translate(-92.534 8.432)"/>
        <path id="Path_7971" d="M240.761 129.962c-.114.021-.2.182-.321.227a.537.537 0 0 1-.169.029c-.162 0-.308-.142-.421-.122a.145.145 0 0 0-.125.169c0 .193.426.3.661.268.2-.023.583-.241.573-.437a.157.157 0 0 0-.2-.134z" transform="translate(-99.777 2.294)"/>
        <path id="Path_7972" d="M265.692 139.282c.115.032.337-.134.616-.16a1.413 1.413 0 0 1 .225 0c.174.017.431.154.463-.06.04-.282-.528-.268-.775-.243a1.61 1.61 0 0 0-.392.087c-.075.028-.26.1-.251.24a.174.174 0 0 0 .114.136z" transform="translate(-122.172 -5.374)"/>
        <path id="Path_7973" d="M238.835 143.059c-.085.063-.079.134-.134.2a.849.849 0 0 1-.573.268c-.071 0-.141-.04-.212-.011a.2.2 0 0 0-.1.168c.009.1.145.162.3.164a1.167 1.167 0 0 0 .8-.355c.169-.172.284-.54-.081-.434z" transform="translate(-98.128 -9.042)"/>
        <path id="Path_7974" d="M202.35 188.1c.036-.032.1-.063.1-.126a12.037 12.037 0 0 0-5.633-1.922 3.643 3.643 0 0 1-1.263 1.489 3.5 3.5 0 0 1-2.17.62 3.278 3.278 0 0 1-1.988-.774 3.393 3.393 0 0 1-1.1-1.675 10.356 10.356 0 0 0-3.983.429 17.646 17.646 0 0 0-2.028.912c-.02.058.046.087.072.123.225.323.432.637.641.968a17.875 17.875 0 0 1 1.878 3.672 1.676 1.676 0 0 0 .392-.17 1.3 1.3 0 0 0 .377-.185 4.058 4.058 0 0 1-.268-1.14c-.023-.253-.1-1.179.2-1.171.244 0 .111.439.1.57a4.791 4.791 0 0 0 0 .528 3.455 3.455 0 0 0 1.188 2.37 1.174 1.174 0 0 0 .3.22 3.056 3.056 0 0 0 .449.038q3.107.3 6.2.621a2.324 2.324 0 0 0 .464.038.9.9 0 0 0 .236-.156 4.977 4.977 0 0 0 1.263-1.5 4.879 4.879 0 0 0 .614-1.726c.03-.219-.052-.608.19-.6.221.007.157.38.134.6a5.86 5.86 0 0 1-.571 1.76c.243.091.475.194.7.3a1.7 1.7 0 0 0 .208-.28 29.01 29.01 0 0 1 2.429-2.961 10.329 10.329 0 0 1 .869-.872z" class="cls-8" transform="translate(-51.777 -46.002)"/>
        <path id="Path_7975" d="M232.3 186.391c-.032-.042-.042-.107-.071-.152a1.921 1.921 0 0 0-.451-.024c.047.1.083.208.134.306a1.945 1.945 0 0 0 .388-.13z" class="cls-9" transform="translate(-92.895 -46.438)"/>
        <path id="Path_7976" d="M270.14 188.472c.134.062.262.134.394.205a1.794 1.794 0 0 0 .235-.378 4.534 4.534 0 0 1-.491-.009.365.365 0 0 0-.138.182z" class="cls-9" transform="translate(-126.123 -48.245)"/>
        <path id="Path_7977" d="M234.323 190.5a2.215 2.215 0 0 0 .363-.24c-.111-.071-.161-.2-.268-.276a2.5 2.5 0 0 0-.378.134c.087.133.185.252.283.382z" class="cls-9" transform="translate(-94.853 -49.71)"/>
        <path id="Path_7978" d="M266.433 192.125a1.341 1.341 0 0 0 .346-.366 2.865 2.865 0 0 0-.451-.219 1.623 1.623 0 0 1-.268.212 2.157 2.157 0 0 0 .373.373z" class="cls-9" transform="translate(-122.589 -51.062)"/>
        <path id="Path_7979" d="M238.5 194.46a3.677 3.677 0 0 0 .29-.38c-.115-.06-.227-.126-.338-.19a1.973 1.973 0 0 0-.39.253 2.747 2.747 0 0 0 .438.317z" class="cls-9" transform="translate(-98.335 -53.098)"/>
        <path id="Path_7980" d="M262.65 194.982a2.186 2.186 0 0 0-.41-.4.63.63 0 0 1-.209.1 4.121 4.121 0 0 0 .215.527 2.226 2.226 0 0 0 .405-.224z" class="cls-9" transform="translate(-119.098 -53.696)"/>
        <path id="Path_7981" d="M244.105 196.927a2.851 2.851 0 0 0 .233-.518 1.633 1.633 0 0 1-.366-.079 2.928 2.928 0 0 0-.333.421 3.893 3.893 0 0 0 .466.176z" class="cls-9" transform="translate(-103.169 -55.212)"/>
        <path id="Path_7982" d="M257 196.981a2.683 2.683 0 0 0 .575-.134c-.07-.182-.149-.357-.216-.536-.1.023-.2.054-.308.072a3.6 3.6 0 0 0-.051.598z" class="cls-9" transform="translate(-114.741 -55.195)"/>
        <path id="Path_7983" d="M249.977 197.273c-.075.188-.17.358-.247.546a4.1 4.1 0 0 0 .618.036c.02-.193.027-.4.051-.586-.099-.007-.284.008-.422.004z" class="cls-9" transform="translate(-108.444 -56.023)"/>
        <path id="Path_7984" d="M178.935 197.658c.126-.1.287-.162.4-.268-.074-.075-.114-.185-.2-.249a3.54 3.54 0 0 1-.418.241.74.74 0 0 0 .218.276z" class="cls-9" transform="translate(-46.934 -55.913)"/>
        <path id="Path_7985" d="M181.7 201.472c.05.086.113.158.157.249.169-.062.283-.176.447-.241a1.082 1.082 0 0 0-.2-.29c-.121.11-.298.16-.404.282z" class="cls-9" transform="translate(-49.516 -59.422)"/>
        <path id="Path_7986" d="M184.778 205.42c-.134.094-.279.17-.418.253a.965.965 0 0 0 .17.278c.134-.1.314-.156.447-.255-.077-.078-.109-.208-.199-.276z" class="cls-9" transform="translate(-51.82 -63.087)"/>
        <path id="Path_7987" d="M186.81 210.091a1.369 1.369 0 0 1 .142.249c.169-.062.312-.148.476-.213-.025-.117-.1-.178-.144-.278a2.319 2.319 0 0 0-.474.242z" class="cls-9" transform="translate(-53.942 -66.925)"/>
        <path id="Path_7988" d="M189.7 214.08a3.533 3.533 0 0 1-.448.215c.039.115.111.2.158.3a3.217 3.217 0 0 0 .475-.241c-.073-.078-.093-.215-.185-.274z" class="cls-9" transform="translate(-56.055 -70.59)"/>
        <path id="Path_7989" d="M192.328 218.834a.962.962 0 0 0-.172-.3 4.722 4.722 0 0 0-.447.24c.067.1.117.22.185.319.133-.093.292-.171.434-.259z" class="cls-9" transform="translate(-58.186 -74.446)"/>
        <path id="Path_7990" d="M194.68 223.07c-.134.087-.279.162-.42.241a2.026 2.026 0 0 0 .229.443 1.955 1.955 0 0 1 .42-.212 2.3 2.3 0 0 0-.229-.472z" class="cls-9" transform="translate(-60.395 -78.379)"/>
        <path id="Path_7991" d="M196.94 229.16c.05.156.127.283.173.444.153-.044.278-.117.418-.172-.04-.169-.107-.312-.158-.472a2.567 2.567 0 0 0-.433.2z" class="cls-9" transform="translate(-62.717 -83.482)"/>
        <path id="Path_7992" d="M319.991 204.742a3.458 3.458 0 0 0 .306-.337c-.134-.056-.236-.145-.366-.205-.1.109-.227.184-.321.3.134.076.241.173.381.242z" class="cls-9" transform="translate(-168.975 -62.03)"/>
        <path id="Path_7993" d="M316.439 208.45c-.149-.074-.257-.189-.409-.26-.081.1-.177.177-.249.28.145.087.286.18.437.26.058-.107.159-.175.221-.28z" class="cls-9" transform="translate(-165.657 -65.487)"/>
        <path id="Path_7994" d="M312.656 212.43c-.173-.068-.284-.2-.465-.26-.07.113-.181.182-.251.3.174.082.317.2.495.268a2.51 2.51 0 0 0 .221-.308z" class="cls-9" transform="translate(-162.331 -68.935)"/>
        <path id="Path_7995" d="M309.013 216.547c-.19-.079-.33-.211-.523-.287-.071.114-.174.2-.249.308.178.087.35.181.523.268a1 1 0 0 0 .249-.289z" class="cls-9" transform="translate(-159.126 -72.479)"/>
        <path id="Path_7996" d="M305.5 220.837c-.19-.093-.362-.205-.565-.287-.072.1-.16.193-.235.3.19.106.358.237.565.329.068-.127.166-.221.235-.342z" class="cls-9" transform="translate(-156.06 -76.196)"/>
        <path id="Path_7997" d="M302.081 225.06c-.205-.093-.369-.228-.565-.33a2.7 2.7 0 0 0-.236.323c.217.086.4.2.621.287.055-.098.146-.162.18-.28z" class="cls-9" transform="translate(-153.097 -79.817)"/>
        <path id="Path_7998" d="M298.18 229.424c.212.1.409.207.636.287a1.732 1.732 0 0 0 .193-.28c-.217-.1-.422-.2-.634-.3-.058.105-.155.169-.195.293z" class="cls-9" transform="translate(-150.412 -83.629)"/>
        <path id="Path_7999" d="M295.4 233.672c.223.079.428.176.648.258a.753.753 0 0 0 .153-.224c-.237-.074-.412-.212-.649-.286-.052.087-.127.144-.152.252z" class="cls-9" transform="translate(-148.004 -87.346)"/>
        <path id="Path_8000" d="M221.033 242.885c.051.028.152 0 .225.012.015-.449.021-.908.043-1.352a1.023 1.023 0 0 0-.282-.024c.012.465-.002.928.014 1.364z" class="cls-14" transform="translate(-83.575 -94.365)"/>
        <path id="Path_8001" d="M225.366 241.9c-.051.414-.024.9-.056 1.341a1.232 1.232 0 0 0 .308.024c0-.453.035-.887.058-1.322-.091-.03-.213-.023-.31-.043z" class="cls-14" transform="translate(-87.291 -94.695)"/>
        <path id="Path_8002" d="M230.2 242.37c-.051.414-.052.877-.071 1.324a3.916 3.916 0 0 1 .4.023c.012-.443.042-.869.056-1.309a3.258 3.258 0 0 1-.385-.038z" class="cls-14" transform="translate(-91.466 -95.102)"/>
        <path id="Path_8003" d="M235.83 242.94c-.031.414-.066.828-.058 1.281a3.517 3.517 0 0 0 .366.024c.029-.421.06-.842.086-1.267-.134-.01-.265-.023-.394-.038z" class="cls-14" transform="translate(-96.352 -95.596)"/>
        <path id="Path_8004" d="M241.106 243.51c-.021.424-.051.841-.086 1.254.176 0 .326.017.492.023.032-.4.054-.821.086-1.226-.157-.024-.325-.038-.492-.051z" class="cls-14" transform="translate(-100.899 -96.09)"/>
        <path id="Path_8005" d="M247.7 245.367c0-.414.078-.825.072-1.2a3.674 3.674 0 0 0-.393-.024c-.02.4-.071.842-.072 1.207.148-.003.251.029.393.017z" class="cls-14" transform="translate(-106.347 -96.637)"/>
        <path id="Path_8006" d="M253.141 244.679a2.8 2.8 0 0 0-.3-.039c-.028.4-.072.775-.086 1.184a1.477 1.477 0 0 0 .237.012l.149-1.157z" class="cls-14" transform="translate(-111.068 -97.068)"/>
        <path id="Path_8007" d="M257.244 245.11c-.032.4-.107.75-.134 1.157.144-.008.311.03.422.009-.017-.4.025-.756.044-1.128-.099-.021-.222-.022-.332-.038z" class="cls-14" transform="translate(-114.836 -97.476)"/>
        <path id="Path_8008" d="M263.239 245.7c-.134 0-.236-.032-.38-.024a7.765 7.765 0 0 0-.059 1.115c.107.019.237.013.351.024.027-.379.058-.749.088-1.115z" class="cls-14" transform="translate(-119.764 -97.961)"/>
        <path id="Path_8009" d="M268.4 247.26a2.425 2.425 0 0 1 .2-1.06c-.145-.028-.316-.028-.464-.051a9.423 9.423 0 0 0-.087 1.1c.128-.009.22.024.351.011z" class="cls-14" transform="translate(-124.313 -98.376)"/>
        <path id="Path_8010" d="M219.581 241.427c-.144-.012-.287-.043-.432-.047a4.013 4.013 0 0 0-.475.027 3.152 3.152 0 0 1 .051.622 5.316 5.316 0 0 1-.055.754c.2 0 .4 0 .6.012.1.009.2.03.3.046.011-.421 0-.853 0-1.279.005-.047.008-.091.011-.135z" class="cls-15" transform="translate(-81.54 -94.244)"/>
        <path id="Path_8011" d="M197.656 215.317c-.268-.593-.877-.927-1.249-1.367a3.219 3.219 0 0 1-.557-.939 6.385 6.385 0 0 1-.22-.9.65.65 0 0 0-.1-.278c-.122-.031-.2.063-.268.134a18.019 18.019 0 0 1-1.8 1.526 3.161 3.161 0 0 1 .38.766 4.468 4.468 0 0 1 .259.739 12.219 12.219 0 0 0 1.118-.5c.149-.078.428-.223.46-.31s-.021-.178 0-.251a4.972 4.972 0 0 0 .8 1.3 3.8 3.8 0 0 1 .268.326.164.164 0 0 1 .076-.03 3 3 0 0 1 .491-.028c.145.009.288.036.433.047a1.448 1.448 0 0 0-.094-.239z" class="cls-15" transform="translate(-59.707 -68.643)"/>
        <path id="Path_8012" d="M266.531 220.306a2.711 2.711 0 0 1 .8-1.77.146.146 0 0 0 .141-.015 2.583 2.583 0 0 0 .4-.477c.035-.058.047-.125.082-.181a1.225 1.225 0 0 1 .111-.127 4.442 4.442 0 0 0 1.042-2.4.134.134 0 0 1-.07-.2v-.019a.463.463 0 0 0 0-.062v-.075a.625.625 0 0 0-.083.307 3.286 3.286 0 0 1-.1.335 4.526 4.526 0 0 1-1.829 2.445 4.292 4.292 0 0 0-.991.734 1.087 1.087 0 0 0-.207.35 4.383 4.383 0 0 0-.063.794c-.007.119-.008.235-.008.349a6.72 6.72 0 0 1 .775.012z" class="cls-15" transform="translate(-122.333 -71.38)"/>
        <path id="Path_8013" d="M288.5 216.874a.17.17 0 0 1 .025-.034c-.225-.134-.447-.268-.66-.4a18.187 18.187 0 0 1-1.486-1.188c0 .047.047.194.021.239s-.025.08-.058.089v.013a5.051 5.051 0 0 1-.613 1.941c-.042.031-.164-.036-.181.044.024.113.162.107.24.134s.193.072.282.109c.463.189.924.378 1.388.566.298-.541.742-.975 1.042-1.513z" class="cls-15" transform="translate(-139.475 -71.609)"/>
        <path id="Path_8014" d="M317.916 138.309c-.166-.078-.472.046-.645.1a5.084 5.084 0 0 0-1.119.512c-.125.076-.422.349-.5.115-.06-.172.268-.343.4-.421a7.037 7.037 0 0 1 1.538-.628c.26-.078.6-.205.558-.536-.025-.189-.229-.278-.453-.268a2.106 2.106 0 0 0-.587.145 5.751 5.751 0 0 0-1.035.441c-.067.039-.465.389-.546.145-.07-.212.4-.425.5-.477a5.038 5.038 0 0 1 1.438-.534c.314-.064.62-.114.6-.4-.027-.373-.617-.28-.915-.215a3.947 3.947 0 0 0-1.482.641c-.082.059-.178.15-.28.134-.149-.032-.134-.194-.158-.431a1.961 1.961 0 0 0-.6-1.178 2.135 2.135 0 0 0-1.743-.624c-.217.02-.633.1-.642.354-.013.377.485.268.79.286a1.182 1.182 0 0 1 1.061.8 1.159 1.159 0 0 1-1.6 1.395 1.187 1.187 0 0 1-.685-1.207 1.135 1.135 0 0 1 .164-.4c.111-.212.144-.5-.118-.583-.3-.04-.388.134-.5.283a2.381 2.381 0 0 0-.536 1.314 2.18 2.18 0 0 0 .507 1.554 2.933 2.933 0 0 0 .426.414c.125.1.452.223.467.372.009.1-.162.325-.221.42-.258.418-.5.826-.718 1.218-.853 1.521-1.683 3.052-2.425 4.662-.063.134-.154.366-.278.378-.1.011-.239-.1-.338-.164-.735-.477-1.423-.964-2.162-1.385a29.872 29.872 0 0 0-3.085 3.889.771.771 0 0 0-.165.28c.948.355 1.8.671 2.682.99a21.2 21.2 0 0 0 2.79.892 4.578 4.578 0 0 0 1.671.109 2.33 2.33 0 0 0 1.273-.583 2.988 2.988 0 0 0 .648-1.19c.173-.44.362-.878.536-1.3.355-.866.724-1.722 1.084-2.587s.714-1.711 1.084-2.587a7.274 7.274 0 0 1 1.353-2.324 5.534 5.534 0 0 1 1.636-1.13c.164-.074.5-.166.488-.436a.349.349 0 0 0-.158-.252z" class="cls-12" transform="translate(-154.477 -1.947)"/>
        <path id="Path_8015" d="M369.271 141.666c.063.021-.019.054-.028.07a.269.269 0 0 1-.027.085 1.037 1.037 0 0 0-.11.181 1.152 1.152 0 0 0 .6 1.341 1.882 1.882 0 0 0 .282.122 1.079 1.079 0 0 0 1.119-.511 1.19 1.19 0 0 0 .176-.8.836.836 0 0 0-.2-.347 1.986 1.986 0 0 0-.325-.288c-.015 0-.012-.017-.015-.028a.074.074 0 0 1 .042-.015 1.3 1.3 0 0 1 .641.97 1.265 1.265 0 0 1-1.3 1.432 1.3 1.3 0 0 1-1.247-1.2 1.249 1.249 0 0 1 .392-1.012z" class="cls-13" transform="translate(-211.669 -7.693)"/>
        <path id="Path_8016" d="M399.277 160.42a.354.354 0 0 1 .326.288c.021.268-.3.4-.487.507a9.316 9.316 0 0 0-1.242.735 2.941 2.941 0 0 0-.848.915c-.031.051-.035.114-.1.153a4.162 4.162 0 0 1 1.793-1.813c.2-.115.64-.282.671-.536a.233.233 0 0 0-.113-.249z" class="cls-13" transform="translate(-235.965 -24.103)"/>
        <path id="Path_8017" d="M313.7 190.5a5.026 5.026 0 0 0-.233.49c-.08.162-.157.331-.235.49a13.092 13.092 0 0 1-3.019 4.249 4.808 4.808 0 0 1-1.856 1.073 3.824 3.824 0 0 1-2.5-.087 18.029 18.029 0 0 1-2.03-.885c-.334-.161-.66-.327-.974-.5a.286.286 0 0 1-.015.039c-.292.527-.728.955-1.025 1.475.735.292 1.475.577 2.257.833.747.247 1.55.484 2.351.742a5.469 5.469 0 0 0 2.63.351 2.4 2.4 0 0 0 1.911-1.207 14.527 14.527 0 0 0 .862-2.222c.134-.37.292-.726.453-1.09a32.415 32.415 0 0 1 1.372-3.271c.034-.239.232-.5.268-.727-.067.119-.155.147-.217.247z" class="cls-13" transform="translate(-153.602 -49.96)"/>
        <path id="Path_8018" d="M94.276 152.3a3.205 3.205 0 0 0-.4-.511c-1.106.654-2.067 1.285-3.1 2.012-.134.09-.335.268-.5.241-.084-.015-.164-.148-.241-.276-.955-1.577-1.856-3.074-2.784-4.61-.066-.109-.185-.276-.172-.361s.189-.17.251-.211a2.788 2.788 0 0 0 .709-.689 2.24 2.24 0 0 0 .393-1.466 2.45 2.45 0 0 0-.561-1.29.563.563 0 0 0-.354-.26.307.307 0 0 0-.362.253.526.526 0 0 0 .115.361 1.047 1.047 0 0 1 .144.333 1.273 1.273 0 0 1-.146.8 1.2 1.2 0 0 1-1.019.566 1.108 1.108 0 0 1-1.117-.852 1.152 1.152 0 0 1 .563-1.3 1.552 1.552 0 0 1 .713-.146.979.979 0 0 0 .4-.032.253.253 0 0 0 .152-.294c-.035-.245-.477-.3-.671-.314a2.146 2.146 0 0 0-1.817.785 1.825 1.825 0 0 0-.467 1.132c-.015.207-.035.362-.165.378s-.216-.113-.3-.165a4.223 4.223 0 0 0-.972-.449 3.594 3.594 0 0 0-.76-.174c-.35-.034-.64.013-.644.286 0 .292.361.323.608.37a5.174 5.174 0 0 1 1.451.514c.123.062.606.244.5.469-.071.146-.209.044-.28 0a5.522 5.522 0 0 0-1.3-.586c-.347-.1-1.017-.237-1.037.192-.013.3.29.41.536.481a6.479 6.479 0 0 1 1.475.557c.125.067.59.29.51.481-.093.225-.433-.076-.507-.119a5.122 5.122 0 0 0-.536-.268 4.971 4.971 0 0 0-.578-.217c-.176-.055-.5-.172-.661-.091a.346.346 0 0 0-.152.252c-.008.28.365.359.551.44a5.77 5.77 0 0 1 .649.342 5.071 5.071 0 0 1 1.112.893 6.874 6.874 0 0 1 .8 1.19 13.916 13.916 0 0 1 .671 1.33c.4.921.814 1.906 1.207 2.787.294.657.617 1.4.905 2.094a3.756 3.756 0 0 0 .33.679 2 2 0 0 0 .919.7 3.239 3.239 0 0 0 1.322.2 5.352 5.352 0 0 0 1.289-.235c1.2-.349 2.28-.8 3.372-1.218.727-.276 1.442-.573 2.182-.884a20.515 20.515 0 0 0-1.207-2.414c-.319-.586-.657-1.164-1.019-1.686z" class="cls-12" transform="translate(37.611 -10.113)"/>
        <path id="Path_8019" d="M83.639 173.589c-.115-.056-.134-.176-.213-.268a2.046 2.046 0 0 0-.283-.207 8.481 8.481 0 0 0-1.45-.912 1.8 1.8 0 0 1-.566-.385c-.062-.082-.145-.268-.074-.347.017 0 .025 0 .03.013.072.047.083.152.142.221a2.031 2.031 0 0 0 .692.384 3.747 3.747 0 0 1 1.722 1.501z" class="cls-13" transform="translate(37.688 -33.676)"/>
        <path id="Path_8020" d="M113.107 194.035a2.624 2.624 0 0 0-.325-.656c-.422.3-.864.586-1.332.856a6.843 6.843 0 0 1-5.031 1 6.012 6.012 0 0 1-3.5-2.806c-.416-.648-.709-1.379-1.073-2.079-.178-.343-.374-.68-.571-1.011a3.811 3.811 0 0 0-.656-.925h-.019a.036.036 0 0 0-.027.042.3.3 0 0 0 .059.268c.038-.063-.054-.19-.017-.251a2.576 2.576 0 0 1 .512.677c0 .017.023.028-.013.028 0-.023-.02 0-.013.028a4.207 4.207 0 0 1 .312.484c0 .058-.021.066 0 .111.168.308.306.648.473.956.029.039-.056.058-.027.134a5.418 5.418 0 0 1 .359.832c.115.278.268.547.358.833a19.957 19.957 0 0 0 1.263 2.8c-.039.154.11.279.173.416 0 .1.1.19.172.268-.021.034-.1.06-.056.111a2.414 2.414 0 0 0 .75.55c.1.05.215.07.311.122.05.028.089.086.141.11a1.693 1.693 0 0 0 .338.08 2.827 2.827 0 0 0 .38.052 7.828 7.828 0 0 0 1.36-.181 4.338 4.338 0 0 0 1.219-.331 20.656 20.656 0 0 1 2.28-.8 23.14 23.14 0 0 0 2.253-.829l.231-.093a4.227 4.227 0 0 0-.284-.796z" class="cls-13" transform="translate(20.761 -48.366)"/>
        <path id="Path_8021" d="M112.227 151.83h.042a1.45 1.45 0 0 1 .431.873 1.267 1.267 0 1 1-2.527.122 1.161 1.161 0 0 1 .412-.939c-.06.11-.153.192-.208.308a1.038 1.038 0 0 0 .035.626c-.051-.009-.039-.083-.071-.111a1.124 1.124 0 0 0 .724.9 1.053 1.053 0 0 0 1.176-.333 1.394 1.394 0 0 0 .3-.978c-.024-.134-.229-.326-.314-.428-.027-.009-.002-.017 0-.04zm-1.933.536v.013c-.066.074.067-.028 0-.016z" class="cls-13" transform="translate(12.442 -16.66)"/>
        <path id="Path_8022" d="M218.91 255.295c2.381.072 4.718.186 7.079.279a5.313 5.313 0 0 1-.148-.834c-.3 0-.59-.032-.885-.047s-.617 0-.927-.019c-.384-.019-.783-.086-1.182-.1-1.242-.046-2.433-.153-3.68-.173a8.294 8.294 0 0 1-.257.894zm3.926-.536c.353-.042.174.487-.122.4a.193.193 0 0 1-.114-.159.249.249 0 0 1 .236-.247z" class="cls-12" transform="translate(-81.756 -105.524)"/>
        <path id="Path_8023" d="M216.857 254h-.585a4.009 4.009 0 0 1-.312.939c.394.012.787.024 1.183.025.024-.165.035-.35.05-.518.012-.134.02-.268.027-.4a1.708 1.708 0 0 0-.363-.046z" class="cls-13" transform="translate(-79.193 -105.177)"/>
        <path id="Path_8024" d="M266.394 257.541c.134.024.268.059.4.086a2.917 2.917 0 0 1-.239-.939 5.576 5.576 0 0 0-.778-.015c.013.3.047.578.083.852a2.23 2.23 0 0 1 .534.016z" class="cls-13" transform="translate(-122.347 -107.487)"/>
        <path id="Path_8025" d="M246.534 257.445c.3.082.475-.447.122-.4a.249.249 0 0 0-.236.24.193.193 0 0 0 .114.162z" transform="translate(-105.576 -107.81)"/>
        <path id="Path_8026" fill="#260641" d="M151.271 263.9a8.3 8.3 0 0 0-2.719-1.207 25.32 25.32 0 0 0-7.076-.782 6.6 6.6 0 0 0-.469-.593c-.174-.169-.377-.325-.566-.5a3.582 3.582 0 0 1-1.27-1.49c-2.568-.134-5.1-.282-7.712-.38a3.764 3.764 0 0 1-.536.579c-.18.166-.367.334-.551.5a5.424 5.424 0 0 0-.8.773c-.082.113-.134.278-.233.3a2.408 2.408 0 0 1-.483 0c-.491 0-1.006.012-1.422.028a21.722 21.722 0 0 0-5.075.72 8.892 8.892 0 0 0-2.682 1.175 2.772 2.772 0 0 0-1.406 2.456 2.917 2.917 0 0 0 .536 1.393 5.512 5.512 0 0 0 .911 1.019 11.913 11.913 0 0 0 2.28 1.585 26.925 26.925 0 0 0 5.547 2.175 1.958 1.958 0 0 0 .268 1.38c.6 1.442 1.194 2.816 1.809 4.233.172.4.378.849.553 1.269.075.18.1.342.235.371.16.038.349-.122.483-.207a1.683 1.683 0 0 0 .882-1.3 5.073 5.073 0 0 0-.043-.9 2.618 2.618 0 0 1-.028-.869c.114-.4.455-.421.911-.483.248-.034.5-.072.718-.111.422-.074 1.011-.134 1.1-.536.047-.211-.059-.37-.07-.566.554-.02 1.042-.062 1.56-.111a2.671 2.671 0 0 1 .51-.055c.06.012.047.016.083.055a.793.793 0 0 0 .248.193 4.659 4.659 0 0 0 1.062.247 4.041 4.041 0 0 1 1.117.207c.349.2.256.731.208 1.214a4.841 4.841 0 0 0-.04.9 1.725 1.725 0 0 0 .869 1.282c.11.071.346.259.511.221.141-.032.268-.461.345-.649.671-1.541 1.3-3 1.942-4.525.058-.134.1-.3.165-.345a2 2 0 0 1 .386-.1c.134-.036.268-.076.386-.11a26.326 26.326 0 0 0 4.922-1.949 9.809 9.809 0 0 0 3.309-2.582 3.2 3.2 0 0 0 .616-1.359 2.638 2.638 0 0 0-1.285-2.578m-12.339-4.241a3.422 3.422 0 0 0 .994 1.186c.192.172.389.339.579.51a1.855 1.855 0 0 1 .511.566 3.109 3.109 0 0 1-2.787-2.28c.215-.032.46.027.7.013m-1.835-.082c.217-.013.5.027.746.028l.22.634c-.345-.019-.671-.051-1.021-.068.012-.205.031-.4.055-.594m-3.365-.177c.99.058 2 .1 2.993.15a3.651 3.651 0 0 1-.055.593c-.98-.082-1.982-.141-2.967-.219a4.422 4.422 0 0 1 .028-.524m2.043 1.9a10.37 10.37 0 0 1-.232 2.221c-.058.233-.134.447-.386.428 0-1.165.1-2.355.205-3.463.012-.011.008-.038.027-.042.339.047.388.42.388.856m-3.146-1.957c.235.023.491.024.731.04.011.185-.019.331-.013.511-.3-.007-.575-.04-.869-.055a3.834 3.834 0 0 0 .152-.5M129.876 261a5.256 5.256 0 0 1 .813-.786c.166-.144.325-.3.483-.443s.3-.307.455-.455a.1.1 0 0 1 .042-.028c.184.028.4.027.593.042a2.13 2.13 0 0 1-.9 1.242 2.588 2.588 0 0 1-1.544.553c-.052-.025.03-.09.055-.125m-2.7 10.167a23.8 23.8 0 0 1-5.278-2.167 8.189 8.189 0 0 1-2.719-2.232 2.411 2.411 0 0 1-.512-1.89 2.506 2.506 0 0 1 1.047-1.435 6.274 6.274 0 0 1 1.6-.866 21.459 21.459 0 0 1 7.557-1.136c.2 0 .418-.016.621 0a3.7 3.7 0 0 0 .566.04 2.886 2.886 0 0 0 1.282-.456 3.635 3.635 0 0 0 .909-.827c0-.011.046-.043.042-.015.92.055 1.815.134 2.731.192a51.627 51.627 0 0 0-.216 6.706c-.173-.021-.333.082-.483.07s-.416-.237-.524-.3a20.74 20.74 0 0 0-3.9-1.833 12.917 12.917 0 0 0-4.069-.852 6.806 6.806 0 0 0-1.187.028c-.142.027-.22.06-.22.18 0 .2.2.168.345.15a8.155 8.155 0 0 1 1.558.027 11.936 11.936 0 0 1 1.878.316 21.937 21.937 0 0 1 6.07 2.682 8.74 8.74 0 0 0 2.885 1.489c.038.021-.007.082-.013.1-.117.232-.282.5-.414.744a15.491 15.491 0 0 0-1.156 2.816 41.057 41.057 0 0 1-8.388-1.526m9.522-3.288c-.182.143-.4.252-.593.386-.472-.232-.876-.536-1.312-.8-.015 0 0-.013 0-.013.771-.05 1.167.4 1.9.426m-4.943 5.555a.607.607 0 0 1-.526-.939c.366.08.77.122 1.132.207a.624.624 0 0 1-.606.731m-2.332-1.309a1.428 1.428 0 0 1-.565.524c-.084-.247-.2-.461-.278-.718.28.066.544.146.842.193m1.094 6.372q-1.172-2.752-2.377-5.543a1.86 1.86 0 0 1-.268-1.159c0-.02 0-.039.013-.042.084.021.169.043.248.068.888 2.163 1.754 4.349 2.645 6.51a.71.71 0 0 1-.262.166m.785-2.548c-.134-.074-.245-.16-.373-.235a1.043 1.043 0 0 1 .013-.248c.127.083.247.176.373.268a.829.829 0 0 0-.013.221m.042.428c.023.275.055.536.068.827-.283-.2-.349-.617-.441-1.007.126 0 .235.142.373.18m.082-1.021a.847.847 0 0 1-.318-.248c.04-.058.1-.1.134-.153a2.013 2.013 0 0 1 .276.221c-.025.067-.072.111-.1.18m.413-.4c-.119-.05-.182-.158-.29-.22a2.433 2.433 0 0 1 1.365-.4.583.583 0 0 1 .579.33 15.156 15.156 0 0 0-1.655.291m2.028-.4c-.071-.07-.083-.165-.152-.248-.508-.606-1.773-.252-2.318.085a1.591 1.591 0 0 0-.827 1.1 3.12 3.12 0 0 0 .125 1.1 1.533 1.533 0 0 0 .536.923.342.342 0 0 1 .123.1 1.252 1.252 0 0 1-.207.4c-.023.028-.052.087-.1.068-.671-1.7-1.369-3.376-2.044-5.074a1.184 1.184 0 0 1 .22-.166 3.186 3.186 0 0 0 .593-.621c.339.07.671.148 1.021.205a1.073 1.073 0 0 0 .194 1.073 1.006 1.006 0 0 0 1.7-.76c.24.036.479.072.731.1a7.04 7.04 0 0 1 .608 1.585.268.268 0 0 1-.207.125m.33-.952c-.107-.219-.186-.467-.3-.671 0-.016.024-.035.027-.013.279.02.536.056.814.082.074.18.134.375.193.566-.248.009-.486.03-.731.042m2.234-.181c-.365.05-.755.074-1.131.111-.058-.162-.114-.329-.166-.5q.693.044 1.38.1c-.025.1-.051.2-.083.29m.235-.648c-.262 0-.495-.029-.746-.042a15.558 15.558 0 0 1 .951-2.346 5.91 5.91 0 0 1 .413-.758c.224.042.463.07.689.11-.455.992-.878 2.012-1.308 3.035m2.366 1.34c-.5-.156-1.133-.172-1.67-.288.109-.283.43-.341.787-.318a2.8 2.8 0 0 1 1.159.373 1.5 1.5 0 0 1-.276.233m.3.248c.051-.109.173-.149.248-.235.093.013.113.1.165.152a.9.9 0 0 1-.317.235.7.7 0 0 0-.1-.152m.593.511a3.989 3.989 0 0 1-.373.235.825.825 0 0 0-.013-.221 3.084 3.084 0 0 0 .345-.248c.076.016.028.156.042.235m-.413.671c.122-.067.239-.134.358-.208a1.5 1.5 0 0 1-.426 1.022c.013-.282.048-.536.068-.814m.291 1.71a.886.886 0 0 1-.3-.483 2.394 2.394 0 0 0 .3-.235 1.827 1.827 0 0 0 .358-.814 3.219 3.219 0 0 0 .123-1.049 1.508 1.508 0 0 0-.759-1.073 2.793 2.793 0 0 0-1.365-.455 1.112 1.112 0 0 0-1.073.428.41.41 0 0 1-.11.152c-.314-.034-.15-.386-.056-.634.181-.476.4-.955.593-1.392.134-.33.268-.64.4-.925.152-.331.292-.659.441-.952.8.042 1.522.178 2.28.275a2.547 2.547 0 0 0 1.215 2.068c-.671 1.707-1.369 3.384-2.037 5.1M141 270.2v-.028a7.4 7.4 0 0 1 1.558.262c-.177.467-.369.917-.551 1.379a1.913 1.913 0 0 1-.671-.633 2.485 2.485 0 0 1-.336-.98m1.973 1.322a6.591 6.591 0 0 1-.331.772c-.742 1.744-1.55 3.659-2.28 5.365a.823.823 0 0 1-.268-.152c.919-2.28 1.843-4.56 2.753-6.84.017 0 .021.024.042.028a1.106 1.106 0 0 1 .083.827m8.632-3.845a8.378 8.378 0 0 1-2.358 1.974 24.831 24.831 0 0 1-6.169 2.5 2.24 2.24 0 0 0 .268-1.117 1.113 1.113 0 0 0-.511-.856 3.373 3.373 0 0 0-1.283-.3c-1.322-.178-2.888-.424-4.1-.59.021-.2.237-.283.178-.483s-.39-.11-.608-.152a3.18 3.18 0 0 1-.565-.193 21.148 21.148 0 0 1 4.426-2.237 13.528 13.528 0 0 1 4.1-.9c.239-.009.561-.025.814-.015.177.009.614.134.621-.123.008-.318-.939-.227-1.257-.22a12.362 12.362 0 0 0-3.791.719 21.727 21.727 0 0 0-3.668 1.609 2.369 2.369 0 0 1-.483.268 2.044 2.044 0 0 1-.579-.027c-.573-.067-.9-.342-1.49-.413-.011-.924 0-1.836 0-2.787a.732.732 0 0 0 .621-.373 2.548 2.548 0 0 0 .207-.786c.04-.268.072-.565.1-.882a3.887 3.887 0 0 0-.1-1.821c0-.012 0-.013.013-.013.613.034 1.322.107 1.973.15a1.393 1.393 0 0 1 .275.013 1.575 1.575 0 0 1 .249.3 3.232 3.232 0 0 0 2.442 1.351c.339.028.7 0 1.062 0a23.093 23.093 0 0 1 6.731.852 6.543 6.543 0 0 1 2.828 1.5 1.962 1.962 0 0 1 .664 1.517 2.651 2.651 0 0 1-.62 1.545" transform="translate(5.386 -109.548)"/>
        <path id="Path_8027" d="M251.36 338.49a5.91 5.91 0 0 0-.413.758 15.556 15.556 0 0 0-.947 2.346c.251.012.484.04.746.042.429-1.019.853-2.043 1.308-3.036-.227-.039-.465-.067-.689-.109" class="cls-17" transform="translate(-108.68 -178.386)"/>
        <path id="Path_8028" d="M260.185 340.295c-.754-.1-1.467-.233-2.28-.275-.149.294-.29.621-.441.952-.134.286-.26.6-.4.924-.185.439-.412.917-.593 1.393-.094.248-.258.6.056.634a.411.411 0 0 0 .11-.152 1.116 1.116 0 0 1 1.073-.428 2.793 2.793 0 0 1 1.365.455 1.511 1.511 0 0 1 .759 1.073 3.219 3.219 0 0 1-.123 1.049 1.826 1.826 0 0 1-.358.814 2.4 2.4 0 0 1-.3.235.886.886 0 0 0 .3.483c.671-1.707 1.369-3.384 2.037-5.1a2.548 2.548 0 0 1-1.215-2.068m-.55 2.056a.98.98 0 0 1-.882.8 1 1 0 0 1-1.073-.979.928.928 0 0 1 .827-.952 1.162 1.162 0 0 1 .536.055 1.007 1.007 0 0 1 .594 1.073" class="cls-3" transform="translate(-114.177 -179.745)"/>
        <path id="Path_8029" d="M283.713 346.261c-.911 2.289-1.835 4.56-2.753 6.84a.823.823 0 0 0 .268.152c.735-1.709 1.544-3.621 2.28-5.365a6.368 6.368 0 0 0 .331-.773 1.106 1.106 0 0 0-.083-.827c-.02 0-.024-.023-.042-.028" class="cls-3" transform="translate(-135.499 -185.148)"/>
        <path id="Path_8030" d="M288.717 344.22c.182-.461.374-.912.551-1.379a7.4 7.4 0 0 0-1.558-.262v.028a2.506 2.506 0 0 0 .331.979 1.9 1.9 0 0 0 .671.633" class="cls-18" transform="translate(-141.344 -181.962)"/>
        <path id="Path_8031" d="M260.68 367.769c.536.117 1.172.134 1.668.288a1.5 1.5 0 0 0 .276-.233 2.8 2.8 0 0 0-1.159-.373c-.357-.023-.679.035-.786.318" class="cls-18" transform="translate(-117.931 -203.493)"/>
        <path id="Path_8032" d="M275.8 372.252c-.052-.052-.072-.134-.165-.152-.075.086-.2.126-.248.235a.63.63 0 0 1 .1.153.916.916 0 0 0 .317-.236" class="cls-18" transform="translate(-130.671 -207.522)"/>
        <path id="Path_8033" d="M277.275 375.91a3.087 3.087 0 0 1-.345.248.825.825 0 0 1 .013.221 3.977 3.977 0 0 0 .373-.235c-.013-.079.035-.219-.042-.235" class="cls-18" transform="translate(-132.004 -210.822)"/>
        <path id="Path_8034" d="M276.646 381.15c-.119.07-.236.141-.358.208-.02.275-.055.536-.068.814a1.5 1.5 0 0 0 .426-1.022" class="cls-18" transform="translate(-131.39 -215.359)"/>
        <path id="Path_8035" d="M269.546 351.553a.614.614 0 0 0-.134 1.159.624.624 0 0 0 .9-.553.715.715 0 0 0-.193-.455.651.651 0 0 0-.565-.152" class="cls-18" transform="translate(-125.186 -189.72)"/>
        <path id="Path_8036" d="M234.887 362.941c0-.021-.023 0-.027.013.117.209.2.457.3.671.245-.012.483-.032.731-.042-.062-.19-.119-.386-.193-.566-.268-.025-.536-.063-.814-.082" class="cls-17" transform="translate(-95.564 -199.584)"/>
        <path id="Path_8037" d="M189.872 354.37c-.016 0-.015.021-.013.042a1.793 1.793 0 0 0 .268 1.159q1.207 2.8 2.377 5.543a.711.711 0 0 0 .262-.166c-.9-2.161-1.762-4.347-2.639-6.509-.079-.025-.165-.047-.248-.068" class="cls-3" transform="translate(-56.564 -192.17)"/>
        <path id="Path_8038" d="M202.174 358.408a1.006 1.006 0 0 1-1.7.76 1.073 1.073 0 0 1-.194-1.073c-.35-.058-.681-.134-1.021-.205a3.186 3.186 0 0 1-.593.621 1.24 1.24 0 0 0-.22.165c.671 1.7 1.369 3.378 2.044 5.075.044.019.074-.04.1-.068a1.251 1.251 0 0 0 .207-.4.342.342 0 0 0-.123-.1 1.508 1.508 0 0 1-.536-.923 3.119 3.119 0 0 1-.125-1.1 1.592 1.592 0 0 1 .827-1.1c.545-.337 1.809-.691 2.318-.084.07.083.08.18.152.248a.268.268 0 0 0 .207-.125 7.116 7.116 0 0 0-.608-1.585c-.252-.024-.491-.06-.731-.1" class="cls-3" transform="translate(-64.03 -195.218)"/>
        <path id="Path_8039" d="M196.092 355.893c-.3-.047-.562-.127-.842-.193.076.256.193.471.276.718a1.423 1.423 0 0 0 .566-.524" class="cls-18" transform="translate(-61.253 -193.322)"/>
        <path id="Path_8040" d="M214.829 360.847a.624.624 0 0 0 .606-.731c-.362-.085-.766-.126-1.132-.207a.608.608 0 0 0 .526.939" class="cls-18" transform="translate(-77.664 -196.967)"/>
        <path id="Path_8041" d="M218.745 373.579a2.433 2.433 0 0 0-1.365.4c.107.062.17.17.29.22a15.164 15.164 0 0 1 1.655-.291.583.583 0 0 0-.579-.33" class="cls-18" transform="translate(-80.423 -208.803)"/>
        <path id="Path_8042" d="M214.09 378.363a.847.847 0 0 0 .318.248c.024-.068.071-.113.1-.18a2.014 2.014 0 0 0-.276-.221c-.039.058-.1.1-.134.153" class="cls-18" transform="translate(-77.572 -212.813)"/>
        <path id="Path_8043" d="M212.759 381.957a1.041 1.041 0 0 0-.013.248c.134.075.244.161.372.235a.884.884 0 0 1 .015-.221c-.126-.086-.245-.178-.373-.268" class="cls-18" transform="translate(-76.406 -216.052)"/>
        <path id="Path_8044" d="M213.511 388.5c-.013-.286-.046-.553-.068-.827-.134-.038-.247-.177-.373-.18a1.654 1.654 0 0 0 .441 1.007" class="cls-18" transform="translate(-76.688 -220.848)"/>
        <path id="Path_8045" d="M244.276 364.4c.376-.038.766-.062 1.131-.111.032-.091.059-.19.083-.29l-1.38-.1c.052.168.109.334.166.5" class="cls-7" transform="translate(-103.577 -200.422)"/>
        <path id="Path_8046" d="M139.05 277.776c.134-.248.3-.514.413-.744.007-.015.051-.075.013-.1a8.822 8.822 0 0 1-2.883-1.489 21.964 21.964 0 0 0-6.071-2.682 11.936 11.936 0 0 0-1.878-.316 8.044 8.044 0 0 0-1.558-.027c-.145.017-.345.047-.345-.15 0-.119.079-.153.22-.18a6.815 6.815 0 0 1 1.187-.028 12.918 12.918 0 0 1 4.069.852 20.74 20.74 0 0 1 3.9 1.832 2.123 2.123 0 0 0 .524.3c.131.011.31-.091.483-.07a51.661 51.661 0 0 1 .216-6.706c-.916-.056-1.811-.134-2.731-.192 0-.028-.04 0-.042.015a3.611 3.611 0 0 1-.909.827 2.886 2.886 0 0 1-1.282.456 3.7 3.7 0 0 1-.566-.04c-.2-.016-.42 0-.621 0a21.5 21.5 0 0 0-7.557 1.135 6.272 6.272 0 0 0-1.6.87 2.518 2.518 0 0 0-1.047 1.435 2.4 2.4 0 0 0 .512 1.89 8.314 8.314 0 0 0 2.719 2.233 23.925 23.925 0 0 0 5.284 2.162 41.148 41.148 0 0 0 8.388 1.525 15.4 15.4 0 0 1 1.157-2.816" class="cls-19" transform="translate(3.093 -117.403)"/>
        <path id="Path_8047" d="M257.819 272.769a23.048 23.048 0 0 0-6.731-.852c-.365 0-.723.029-1.062 0a3.232 3.232 0 0 1-2.442-1.351 1.577 1.577 0 0 0-.249-.3 1.4 1.4 0 0 0-.275-.013c-.65-.043-1.36-.117-1.973-.15-.008 0-.016 0-.013.013a3.887 3.887 0 0 1 .1 1.821c-.024.318-.056.618-.1.882a2.548 2.548 0 0 1-.207.786.737.737 0 0 1-.621.373c0 .951-.008 1.863 0 2.787.594.071.917.346 1.49.413a2.043 2.043 0 0 0 .579.027 1.946 1.946 0 0 0 .483-.268 21.728 21.728 0 0 1 3.668-1.609 12.362 12.362 0 0 1 3.791-.719c.321-.007 1.265-.1 1.257.22-.007.262-.444.134-.621.123-.253-.011-.575 0-.814.015a13.529 13.529 0 0 0-4.1.9 21.145 21.145 0 0 0-4.426 2.237 3.179 3.179 0 0 0 .565.193c.217.042.553-.034.608.152s-.157.287-.178.483c1.207.166 2.773.412 4.1.59a3.373 3.373 0 0 1 1.283.3 1.113 1.113 0 0 1 .511.856 2.317 2.317 0 0 1-.268 1.117 25.087 25.087 0 0 0 6.169-2.5 8.3 8.3 0 0 0 2.358-1.974 2.636 2.636 0 0 0 .62-1.545 1.966 1.966 0 0 0-.664-1.517 6.544 6.544 0 0 0-2.828-1.5" class="cls-19" transform="translate(-103.722 -119.159)"/>
        <path id="Path_8048" d="M204.375 263.316a2.588 2.588 0 0 0 1.548-.553 2.118 2.118 0 0 0 .9-1.242c-.2-.015-.409-.013-.593-.042a.1.1 0 0 0-.042.028c-.152.148-.292.306-.455.455s-.317.3-.483.443a5.257 5.257 0 0 0-.813.786c-.025.035-.107.1-.055.125" class="cls-20" transform="translate(-69.148 -111.66)"/>
        <path id="Path_8049" d="M225.183 261.93c-.24-.016-.5-.017-.731-.04a3.831 3.831 0 0 1-.152.5c.294.015.567.048.869.055 0-.18.024-.326.013-.511" class="cls-20" transform="translate(-86.416 -112.012)"/>
        <path id="Path_8050" d="M236.492 262.44c-1-.052-2-.093-2.993-.15-.02.165-.023.346-.028.524.984.078 1.986.134 2.967.219a3.653 3.653 0 0 0 .055-.593" class="cls-20" transform="translate(-94.363 -112.359)"/>
        <path id="Path_8051" d="M259.141 263.621c-.249 0-.53-.042-.746-.028-.024.193-.043.389-.055.594.346.017.671.05 1.021.068-.074-.212-.146-.424-.22-.634" class="cls-20" transform="translate(-115.903 -113.485)"/>
        <path id="Path_8052" d="M270.007 266.332a1.879 1.879 0 0 0-.511-.566c-.186-.164-.388-.338-.579-.51a3.422 3.422 0 0 1-.994-1.186c-.243.013-.487-.046-.7-.013a3.123 3.123 0 0 0 2.787 2.28" class="cls-20" transform="translate(-123.597 -113.886)"/>
        <path id="Path_8053" d="M244.475 270.142c-.106 1.108-.2 2.3-.205 3.463.259.019.329-.194.386-.428a10.36 10.36 0 0 0 .233-2.221c0-.436-.048-.8-.388-.856-.019 0-.015.031-.027.042" class="cls-20" transform="translate(-103.714 -119.133)"/>
        <path id="Path_8054" d="M167.138 293.517c.143-.054.31.074.441.134a3.559 3.559 0 0 1 .593.358c.107.082.209.174.208.262a.174.174 0 0 1-.153.166c-.118.011-.211-.126-.3-.193a3.842 3.842 0 0 0-.621-.358c-.107-.052-.268-.1-.276-.207a.162.162 0 0 1 .111-.166" class="cls-21" transform="translate(-36.806 -139.403)"/>
        <path id="Path_8055" d="M307.149 297.454c-.089-.174.064-.329.166-.455a3.025 3.025 0 0 1 1.116-.9.184.184 0 0 1 .248.152c0 .161-.278.224-.385.29a2.84 2.84 0 0 0-.7.649c-.1.128-.223.414-.441.262" class="cls-21" transform="translate(-158.159 -141.645)"/>
        <path id="Path_8056" d="M267.691 348.96a1.163 1.163 0 0 0-.536-.055.928.928 0 0 0-.827.952 1 1 0 0 0 1.073.978.978.978 0 0 0 .882-.8 1.007 1.007 0 0 0-.594-1.073m-.648 1.462a.616.616 0 0 1 .134-1.159.65.65 0 0 1 .565.152.715.715 0 0 1 .193.455.624.624 0 0 1-.9.553" transform="translate(-122.822 -187.429)"/>
        <path id="Path_8057" d="M267.286 299.313c-.094.035-.042-.078-.1-.082a1.543 1.543 0 0 1-.621.1.581.581 0 0 1 .013-.249 2.063 2.063 0 0 1 .083-.233 1 1 0 0 0 .11-.524c-.016-.059 0-.042-.042-.07-.009-.007-.048 0-.055-.04 0-.086.109-.067.125-.134a1.448 1.448 0 0 0-.469-.663 3.56 3.56 0 0 0-1.227-.386c-.9-.16-1.911-.256-2.816-.4-.235-.038-.468-.072-.691-.11a1.13 1.13 0 0 1-.62-.18.852.852 0 0 1 .082-.373c.028-.064-.1-.083-.055-.207a1.428 1.428 0 0 1 .483.013c1.1.134 2.331.262 3.38.469a7.4 7.4 0 0 1 1.7.5 1.632 1.632 0 0 1 1.062 1.131 16.519 16.519 0 0 0 6.234-3.172 3.249 3.249 0 0 0 1.159-1.973 2.005 2.005 0 0 0-.771-1.668 4.608 4.608 0 0 0-.98-.634c-.1-.052-.421-.125-.3-.248a1.007 1.007 0 0 1 .373.152 4.328 4.328 0 0 1 .911.579c.051 0 .074-.027.134-.013a1.725 1.725 0 0 1 .268.123 2.8 2.8 0 0 1 .671.441 2.953 2.953 0 0 1 .248.318 1.651 1.651 0 0 1 .345.979 3.755 3.755 0 0 1-.083.786.892.892 0 0 0-.068.358 5.722 5.722 0 0 1-.827 1.187 6.5 6.5 0 0 1-.746.759c-.134.113-.228.24-.413.235a9.543 9.543 0 0 1-2.965 1.765 28.918 28.918 0 0 1-2.951 1.186 2.3 2.3 0 0 0-.441.134c-.058.038-.071.118-.134.152" class="cls-11" transform="translate(-118.215 -136.54)"/>
        <path id="Path_8058" d="M142.842 306.207a1.6 1.6 0 0 0 .055 1.255c-.039.078-.084.146-.125.22-.2.378-.35.747-.536 1.187-.059.134-.141.4-.276.413s-.251-.156-.3-.207a1.971 1.971 0 0 1-.621-.882 2.909 2.909 0 0 1-.083-.924 2.57 2.57 0 0 0-.027-.98.988.988 0 0 0-.551-.441 2.774 2.774 0 0 0-.443-.11c-.152-.03-.3-.074-.441-.1a3.5 3.5 0 0 1-.441-.068 2.984 2.984 0 0 1-.7-.3.966.966 0 0 1-.29-.208 10.018 10.018 0 0 1-2.566.248 13.289 13.289 0 0 1-3.448-.468 10.67 10.67 0 0 1-2.511-.939c-.093-.052-.252-.085-.268-.22.084-.079.154.043.235.055-.016-.194-.009-.451.125-.511s.325.044.483.1c.181.06.35.1.455.15.058 0 .074-.063.134-.068a1.491 1.491 0 0 1 .221.068 18.125 18.125 0 0 0 3.158.608 2.146 2.146 0 0 1 .51.07c.059.031.071.039.07.11 1.179.118 2.469.123 3.655.235.008-.067.03-.118.042-.18-.974-.024-2.088-.071-3.035-.152s-1.887-.252-2.759-.414-1.743-.353-2.592-.579c-.823-.217-1.655-.479-2.469-.7a14.246 14.246 0 0 1-4.3-2.061 12.5 12.5 0 0 1-1.768-1.414 6.011 6.011 0 0 1-.731-.854 2.324 2.324 0 0 1-.456-1.587c0-.064.013-.117.013-.18a1.055 1.055 0 0 1 .524-1.021c.016 0 .008.015 0 .013-.012.231-.228.319-.317.5a.939.939 0 0 0-.055.551 2.135 2.135 0 0 0 .593.979 5.886 5.886 0 0 0 .841.717 14.9 14.9 0 0 0 1.931 1.2 33.471 33.471 0 0 0 4.387 1.878 50.53 50.53 0 0 0 8.731 2.234c.449.071.9.172 1.352.207.284.021.563.023.827.055a5.738 5.738 0 0 1 2.055.551 4.023 4.023 0 0 1 1.007.746 2.146 2.146 0 0 1 .593 1.144c.02.052.093 0 .111.07m-4.694-1.187c.06 0 .084.035.123.055-.008-.059.019-.156-.013-.192-.023.059-.082.083-.11.134" class="cls-11" transform="translate(3.699 -141.074)"/>
        <path id="Path_8059" fill="#281747" fill-rule="evenodd" d="M172.719 297.561c-.012-.051-.089-.039-.134-.055.08-.028.18.042.276.042-.268-.15-.612-.225-.9-.358-.02.035.04.075.082.11s.134.054.083.07c-.358-.134-.691-.284-1.021-.443-.075 0 0-.064-.055-.082a16.138 16.138 0 0 0-2.759-1.035 10.845 10.845 0 0 0-1.628-.262 11.065 11.065 0 0 0-1.833-.028.6.6 0 0 0-.1.015c-.046.011-.107.074-.166.082a.134.134 0 0 1-.134-.068c-.062-.162.326-.268.511-.318a7.573 7.573 0 0 1 2.253-.26 8.547 8.547 0 0 1 2.773.621c.86.323 1.609.7 2.358 1.049a6.813 6.813 0 0 0 2.221.758c.058.007.114.023.18.028a1.635 1.635 0 0 1 .18 0c.113.021.186.114.29.134a3.751 3.751 0 0 0 1.545-.055c1.43-.29 2.52-.837 3.875-1.227a10.905 10.905 0 0 1 4.525-.428 4.156 4.156 0 0 1 1.007.276c.083.036.224.07.165.22a.511.511 0 0 1-.29-.027 7.914 7.914 0 0 0-2.386.068 12.03 12.03 0 0 0-2.373.594 34.585 34.585 0 0 0-4.056 1.862c-.833.076-1.435-.377-2.138-.428a3.586 3.586 0 0 0-.414.015 2.341 2.341 0 0 1-.413.013.927.927 0 0 1-.29-.166c-.268-.166-.575-.346-.827-.5-.091.011-.161-.035-.235 0-.047-.008-.047-.063-.1-.068a2.959 2.959 0 0 1-.386-.1 1.99 1.99 0 0 1-.373-.111c-.134-.071-.213-.207-.345-.268a8.448 8.448 0 0 0 1.021.316" opacity="0.53" transform="translate(-34.587 -140.677)"/>
        <g id="Group_4752" transform="translate(109.764 120.737)">
            <path id="Path_8060" d="M410.6 188.936a.182.182 0 0 1 .078.085.328.328 0 0 1 .023.08.243.243 0 0 1-.115.149 1.623 1.623 0 0 1-.146.1l-.087.054c-.35.231-.655.433-.95.63l-.152.1-1.081.713c-.038.025-.086.055-.134.089-.094.056-.209.134-.318.2a1.173 1.173 0 0 0-.413.4.732.732 0 0 0-.054.451.824.824 0 0 0 .146.325.879.879 0 0 0 .747.357.7.7 0 0 0 .3-.089 3.247 3.247 0 0 0 .28-.17l1.255-.829 1.241-.815c.047-.032.107-.067.172-.1.117-.068.248-.146.372-.236a.818.818 0 0 0 .394-.565.424.424 0 0 0-.086-.259.481.481 0 0 0-.251-.186.654.654 0 0 0-.524.111 3.414 3.414 0 0 0-.316.211l-.134.093c-.4.268-.742.5-1.053.705-.386.256-.726.476-1.039.671l-.029.019a1.867 1.867 0 0 0-.227.152c-.035.031-.142.125-.118.239a.159.159 0 0 0 .03.067c.083.113.268.023.422-.07.118-.07.247-.156.359-.231l.09-.06.039-.024.861-.57.909-.6.023-.015a.939.939 0 0 1 .188-.107.123.123 0 0 1 .134.015.134.134 0 0 1 .032.2.907.907 0 0 1-.268.231c-.3.193-.636.412-.971.632l-.963.63-.166.115a2.142 2.142 0 0 1-.245.162.6.6 0 0 1-.4.079.52.52 0 0 1-.373-.228.477.477 0 0 1-.062-.392.828.828 0 0 1 .316-.385c.107-.082.227-.158.331-.224.051-.032.1-.063.142-.093.312-.208.636-.421.92-.608l.025-.017c.3-.2.587-.386.864-.57l.182-.126c.1-.068.2-.134.3-.2a1.158 1.158 0 0 1 .443-.184.775.775 0 0 1 .8.4.887.887 0 0 1-.066.939 1.319 1.319 0 0 1-.3.3c-.094.071-.193.134-.288.2l-.07.046c-.365.243-.731.477-1.086.7l-.107.07c-.4.259-.8.515-1.207.787l-.134.089c-.126.086-.256.174-.385.251a1.3 1.3 0 0 1-.463.2 1.27 1.27 0 0 1-1.145-.506 1.188 1.188 0 0 1-.208-.5 1.015 1.015 0 0 1 .134-.73 1.207 1.207 0 0 1 .37-.357c.086-.059.176-.114.268-.168s.147-.09.216-.134c.314-.212.609-.4.907-.6l.928-.609c.056-.038.123-.087.2-.134s.2-.146.3-.211c.23-.162.339-.168.393-.145z" class="cls-20" transform="translate(-354.329 -169.531)"/>
            <path id="Path_8061" d="M14.628 220.283a.536.536 0 1 1 .486-.334.537.537 0 0 1-.486.334zm0-.759a.224.224 0 0 0-.083.016.22.22 0 0 0 .083.424.225.225 0 0 0 .084-.016.22.22 0 0 0-.084-.424z" class="cls-20" transform="translate(-14.089 -195.766)"/>
            <path id="Path_8062" d="M119.965 349.093a.161.161 0 0 0-.079.071.268.268 0 0 0-.027.074.232.232 0 0 0 .094.146 1.09 1.09 0 0 0 .134.1.556.556 0 0 1 .076.056l.83.655.134.1.939.742.125.093c.08.059.182.134.278.211a1.073 1.073 0 0 1 .351.4.671.671 0 0 1 .016.416.757.757 0 0 1-.158.29.819.819 0 0 1-.718.268.67.67 0 0 1-.268-.1 3.045 3.045 0 0 1-.247-.178l-1.1-.861-1.085-.848c-.04-.032-.094-.07-.15-.109-.1-.072-.219-.154-.326-.247a.753.753 0 0 1-.321-.551.389.389 0 0 1 .1-.233.453.453 0 0 1 .247-.149.616.616 0 0 1 .477.142c.1.067.192.148.276.219l.115.1c.346.278.646.518.919.731.338.268.634.495.909.7l.025.019a1.953 1.953 0 0 1 .193.16c.03.032.121.126.091.231a.169.169 0 0 1-.032.059c-.086.1-.244 0-.385-.1-.1-.072-.217-.162-.315-.24l-.079-.062-.034-.027-.752-.59-.794-.625-.02-.016a.855.855 0 0 0-.166-.114.112.112 0 0 0-.126 0 .118.118 0 0 0-.044.18.805.805 0 0 0 .223.233l.85.657c.294.228.585.455.841.656.051.04.1.08.145.119a2.042 2.042 0 0 0 .215.168.551.551 0 0 0 .361.1.483.483 0 0 0 .362-.182.445.445 0 0 0 .087-.357.763.763 0 0 0-.268-.38c-.093-.085-.2-.164-.288-.232-.046-.034-.087-.066-.126-.1-.268-.216-.554-.436-.8-.63l-.023-.017-.755-.593-.158-.134c-.086-.071-.176-.145-.262-.209a1.083 1.083 0 0 0-.4-.2.718.718 0 0 0-.777.31.844.844 0 0 0-.1.212.853.853 0 0 0 .086.654 1.279 1.279 0 0 0 .264.306c.08.072.168.141.251.205l.06.047c.319.252.64.5.951.734l.094.072c.354.268.7.536 1.055.817.038.03.075.062.115.093.11.089.223.181.335.262a1.239 1.239 0 0 0 .413.219 1.18 1.18 0 0 0 1.1-.381 1.1 1.1 0 0 0 .244-.431.939.939 0 0 0-.067-.684 1.11 1.11 0 0 0-.314-.357c-.075-.062-.154-.119-.231-.176s-.134-.094-.189-.142c-.275-.219-.536-.42-.793-.624l-.813-.633c-.05-.039-.109-.09-.17-.143s-.17-.149-.259-.217c-.214-.157-.315-.172-.362-.155z" class="cls-20" transform="translate(-104.245 -308.334)"/>
            <path id="Path_8063" d="M403.369 112.947a.536.536 0 0 1-.2-1.037.526.526 0 0 1 .2-.04.536.536 0 1 1 0 1.073zm0-.759a.2.2 0 0 0-.085.017.22.22 0 0 0 .085.424.221.221 0 0 0 0-.441z" class="cls-20" transform="translate(-350.832 -102.758)"/>
            <path id="Path_8064" d="M397.392 313.007a.586.586 0 0 1-.1-.008.539.539 0 0 1 .1-1.073.615.615 0 0 1 .1.009.539.539 0 0 1-.1 1.073zm0-.759a.224.224 0 1 0 .04 0 .2.2 0 0 0-.042.005z" class="cls-20" transform="translate(-345.62 -276.1)"/>
            <path id="Path_8065" d="M325.752 378.168a.609.609 0 0 1-.1-.009.539.539 0 1 1 .1-1.073.49.49 0 0 1 .1.009.526.526 0 0 1 .345.224.536.536 0 0 1-.443.844zm0-.759a.224.224 0 1 0 .042 0 .224.224 0 0 0-.042 0z" class="cls-20" transform="translate(-283.55 -332.575)"/>
            <path id="Path_8066" d="M165.769 404.823a.538.538 0 0 1-.1-1.068.5.5 0 0 1 .1-.009.539.539 0 1 1 .1 1.073.482.482 0 0 1-.1.004zm0-.759a.221.221 0 0 0 0 .441.206.206 0 0 0 .04 0 .22.22 0 0 0-.039-.437z" class="cls-20" transform="translate(-145.013 -355.66)"/>
            <path id="Path_8067" d="M125.578 268.033a.538.538 0 0 1-.1-1.068.5.5 0 0 1 .1-.009.539.539 0 0 1 .1 1.073.484.484 0 0 1-.1.004zm0-.759a.221.221 0 0 0 0 .441h.04a.22.22 0 0 0-.039-.437z" class="cls-20" transform="translate(-110.197 -237.134)"/>
            <path id="Path_8068" d="M398.089 344.86h-.03a.16.16 0 0 1-.127-.186l.216-1.172a.16.16 0 0 1 .314.058l-.217 1.172a.158.158 0 0 1-.156.128z" class="cls-20" transform="translate(-346.595 -303.388)"/>
            <path id="Path_8069" d="M395.606 347.432h-.029l-1.174-.217a.16.16 0 1 1 .059-.312l1.172.217a.158.158 0 0 1-.028.315z" class="cls-20" transform="translate(-343.418 -306.436)"/>
            <path id="Path_8070" d="M333.308 185.982a.5.5 0 0 1-.178-.031.532.532 0 1 1 .178.031zm0-.759a.222.222 0 1 0 .07.013.193.193 0 0 0-.07-.013z" class="cls-20" transform="translate(-290.137 -166.045)"/>
            <path id="Path_8071" d="M329.561 152.019a.155.155 0 0 1-.143-.09l-.516-1.073a.16.16 0 0 1 .075-.212.157.157 0 0 1 .212.074l.516 1.073a.16.16 0 0 1-.075.212.157.157 0 0 1-.069.016z" class="cls-20" transform="translate(-286.773 -136.341)"/>
            <path id="Path_8072" d="M326.967 153.52a.159.159 0 0 1-.07-.3l1.073-.515a.158.158 0 0 1 .134.286l-1.073.516a.157.157 0 0 1-.064.013z" class="cls-20" transform="translate(-284.974 -138.13)"/>
            <path id="Path_8073" d="M185.113 256.518a.161.161 0 0 1-.056-.011l-1.115-.425a.16.16 0 1 1 .113-.3l1.114.425a.161.161 0 0 1 .093.205.158.158 0 0 1-.149.106z" class="cls-20" transform="translate(-161.122 -227.442)"/>
            <path id="Path_8074" d="M186.643 254.67a.167.167 0 0 1-.056-.011.16.16 0 0 1-.093-.205l.425-1.115a.159.159 0 0 1 .3.113l-.424 1.115a.158.158 0 0 1-.152.103z" class="cls-20" transform="translate(-163.421 -225.25)"/>
            <path id="Path_8075" d="M57.582 204.12a.146.146 0 0 1-.062-.013l-1.093-.46a.16.16 0 0 1 .123-.294l1.1.461a.16.16 0 0 1 .086.208.164.164 0 0 1-.154.098z" class="cls-20" transform="translate(-50.672 -182.017)"/>
            <path id="Path_8076" d="M58.768 202.408a.159.159 0 0 1-.146-.22l.46-1.1a.16.16 0 0 1 .294.123l-.46 1.1a.158.158 0 0 1-.148.097z" class="cls-20" transform="translate(-52.639 -179.986)"/>
            <path id="Path_8077" d="M434.953 235.185a.157.157 0 0 1-.134-.074l-.638-1.007a.159.159 0 1 1 .268-.17l.638 1.007a.158.158 0 0 1-.134.244z" class="cls-20" transform="translate(-377.963 -208.46)"/>
            <path id="Path_8078" d="M432.972 236.192a.161.161 0 0 1-.134-.074.158.158 0 0 1 .05-.22l1.007-.638a.159.159 0 0 1 .17.268l-1.007.638a.155.155 0 0 1-.086.026z" class="cls-20" transform="translate(-376.8 -209.651)"/>
            <path id="Path_8079" d="M331.252 45.15a.159.159 0 0 1-.153-.2l.339-1.207a.158.158 0 0 1 .113-.111.161.161 0 0 1 .154.044l.87.893a.16.16 0 0 1 .039.154.157.157 0 0 1-.114.111l-1.207.307a.207.207 0 0 1-.041.009zm.417-1.053l-.189.671.671-.172z" class="cls-20" transform="translate(-288.686 -43.625)"/>
            <path id="Path_8080" d="M390.908 259.616h-.02l-1.238-.165a.157.157 0 0 1-.126-.1.161.161 0 0 1 .021-.158l.76-.988a.16.16 0 0 1 .268.036l.476 1.153a.158.158 0 0 1-.142.219zm-.939-.445l.691.093-.268-.645z" class="cls-20" transform="translate(-339.307 -229.507)"/>
            <path id="Path_8081" d="M80.1 324.31a.166.166 0 0 1-.1-.038.16.16 0 0 1-.052-.15l.233-1.227a.158.158 0 0 1 .26-.09l.939.814a.16.16 0 0 1-.052.268l-1.178.412a.175.175 0 0 1-.05.011zm.338-1.085l-.134.685.659-.229z" class="cls-20" transform="translate(-71.108 -285.496)"/>
        </g>
    </g>
</svg>
