<svg xmlns="http://www.w3.org/2000/svg" width="20" height="20" viewBox="0 0 20 20">
    <g>
        <path fill="none" d="M0 0H20V20H0z" transform="translate(-269 -369) translate(269 369)"/>
        <path fill="#1a5aff" fill-rule="evenodd" d="M8.105 6h15.79A2.105 2.105 0 0 1 26 8.105v11.579A6.316 6.316 0 0 1 19.684 26h-7.368A6.316 6.316 0 0 1 6 19.684V8.105A2.105 2.105 0 0 1 8.105 6zm2.323 13.9l3.58-3.58 2.959 2.113a1.053 1.053 0 0 0 1.356-.112l4.737-4.737a1.053 1.053 0 1 0-1.489-1.484l-4.106 4.1-2.959-2.113a1.053 1.053 0 0 0-1.356.112l-4.21 4.215a1.053 1.053 0 1 0 1.489 1.486z" transform="translate(-269 -369) translate(263 363)"/>
    </g>
</svg>
