<svg width="100" height="100" viewBox="0 0 100 100" fill="none" xmlns="http://www.w3.org/2000/svg">
<path d="M95.3125 31.25H75V4.6875C75 3.82344 74.3 3.125 73.4375 3.125H26.5625C25.7 3.125 25 3.82344 25 4.6875V31.25H4.6875C3.825 31.25 3.125 31.9484 3.125 32.8125V95.3125C3.125 96.1766 3.825 96.875 4.6875 96.875H95.3125C96.175 96.875 96.875 96.1766 96.875 95.3125V32.8125C96.875 31.9484 96.175 31.25 95.3125 31.25ZM6.25 34.375H25V93.75H6.25V34.375ZM54.6875 78.125V93.75H45.3125V78.125H54.6875ZM71.875 93.75H57.8125V78.125H60.9375V75H39.0625V78.125H42.1875V93.75H28.125V6.25H71.875V93.75ZM93.75 93.75H75V34.375H93.75V93.75Z" fill="#A12B70"/>
<path d="M79.6875 50H89.0625C89.925 50 90.625 49.3016 90.625 48.4375V39.0625C90.625 38.1984 89.925 37.5 89.0625 37.5H79.6875C78.825 37.5 78.125 38.1984 78.125 39.0625V48.4375C78.125 49.3016 78.825 50 79.6875 50ZM81.25 40.625H87.5V46.875H81.25V40.625Z" fill="#A12B70"/>
<path d="M79.6875 65.625H89.0625C89.925 65.625 90.625 64.9266 90.625 64.0625V54.6875C90.625 53.8234 89.925 53.125 89.0625 53.125H79.6875C78.825 53.125 78.125 53.8234 78.125 54.6875V64.0625C78.125 64.9266 78.825 65.625 79.6875 65.625ZM81.25 56.25H87.5V62.5H81.25V56.25Z" fill="#A12B70"/>
<path d="M79.6875 81.25H89.0625C89.925 81.25 90.625 80.5516 90.625 79.6875V70.3125C90.625 69.4484 89.925 68.75 89.0625 68.75H79.6875C78.825 68.75 78.125 69.4484 78.125 70.3125V79.6875C78.125 80.5516 78.825 81.25 79.6875 81.25ZM81.25 71.875H87.5V78.125H81.25V71.875Z" fill="#A12B70"/>
<path d="M20.3125 37.5H10.9375C10.075 37.5 9.375 38.1984 9.375 39.0625V48.4375C9.375 49.3016 10.075 50 10.9375 50H20.3125C21.175 50 21.875 49.3016 21.875 48.4375V39.0625C21.875 38.1984 21.175 37.5 20.3125 37.5ZM18.75 46.875H12.5V40.625H18.75V46.875Z" fill="#A12B70"/>
<path d="M32.8125 43.75H39.0625C39.925 43.75 40.625 43.0516 40.625 42.1875V35.9375C40.625 35.0734 39.925 34.375 39.0625 34.375H32.8125C31.95 34.375 31.25 35.0734 31.25 35.9375V42.1875C31.25 43.0516 31.95 43.75 32.8125 43.75ZM34.375 37.5H37.5V40.625H34.375V37.5Z" fill="#A12B70"/>
<path d="M53.125 34.375H46.875C46.0125 34.375 45.3125 35.0734 45.3125 35.9375V42.1875C45.3125 43.0516 46.0125 43.75 46.875 43.75H53.125C53.9875 43.75 54.6875 43.0516 54.6875 42.1875V35.9375C54.6875 35.0734 53.9875 34.375 53.125 34.375ZM51.5625 40.625H48.4375V37.5H51.5625V40.625Z" fill="#A12B70"/>
<path d="M59.375 35.9375V42.1875C59.375 43.0516 60.075 43.75 60.9375 43.75H67.1875C68.05 43.75 68.75 43.0516 68.75 42.1875V35.9375C68.75 35.0734 68.05 34.375 67.1875 34.375H60.9375C60.075 34.375 59.375 35.0734 59.375 35.9375ZM62.5 37.5H65.625V40.625H62.5V37.5Z" fill="#A12B70"/>
<path d="M32.8125 56.25H39.0625C39.925 56.25 40.625 55.5516 40.625 54.6875V48.4375C40.625 47.5734 39.925 46.875 39.0625 46.875H32.8125C31.95 46.875 31.25 47.5734 31.25 48.4375V54.6875C31.25 55.5516 31.95 56.25 32.8125 56.25ZM34.375 50H37.5V53.125H34.375V50Z" fill="#A12B70"/>
<path d="M53.125 46.875H46.875C46.0125 46.875 45.3125 47.5734 45.3125 48.4375V54.6875C45.3125 55.5516 46.0125 56.25 46.875 56.25H53.125C53.9875 56.25 54.6875 55.5516 54.6875 54.6875V48.4375C54.6875 47.5734 53.9875 46.875 53.125 46.875ZM51.5625 53.125H48.4375V50H51.5625V53.125Z" fill="#A12B70"/>
<path d="M67.1875 46.875H60.9375C60.075 46.875 59.375 47.5734 59.375 48.4375V54.6875C59.375 55.5516 60.075 56.25 60.9375 56.25H67.1875C68.05 56.25 68.75 55.5516 68.75 54.6875V48.4375C68.75 47.5734 68.05 46.875 67.1875 46.875ZM65.625 53.125H62.5V50H65.625V53.125Z" fill="#A12B70"/>
<path d="M32.8125 68.75H39.0625C39.925 68.75 40.625 68.0516 40.625 67.1875V60.9375C40.625 60.0734 39.925 59.375 39.0625 59.375H32.8125C31.95 59.375 31.25 60.0734 31.25 60.9375V67.1875C31.25 68.0516 31.95 68.75 32.8125 68.75ZM34.375 62.5H37.5V65.625H34.375V62.5Z" fill="#A12B70"/>
<path d="M53.125 59.375H46.875C46.0125 59.375 45.3125 60.0734 45.3125 60.9375V67.1875C45.3125 68.0516 46.0125 68.75 46.875 68.75H53.125C53.9875 68.75 54.6875 68.0516 54.6875 67.1875V60.9375C54.6875 60.0734 53.9875 59.375 53.125 59.375ZM51.5625 65.625H48.4375V62.5H51.5625V65.625Z" fill="#A12B70"/>
<path d="M67.1875 59.375H60.9375C60.075 59.375 59.375 60.0734 59.375 60.9375V67.1875C59.375 68.0516 60.075 68.75 60.9375 68.75H67.1875C68.05 68.75 68.75 68.0516 68.75 67.1875V60.9375C68.75 60.0734 68.05 59.375 67.1875 59.375ZM65.625 65.625H62.5V62.5H65.625V65.625Z" fill="#A12B70"/>
<path d="M20.3125 53.125H10.9375C10.075 53.125 9.375 53.8234 9.375 54.6875V64.0625C9.375 64.9266 10.075 65.625 10.9375 65.625H20.3125C21.175 65.625 21.875 64.9266 21.875 64.0625V54.6875C21.875 53.8234 21.175 53.125 20.3125 53.125ZM18.75 62.5H12.5V56.25H18.75V62.5Z" fill="#A12B70"/>
<path d="M20.3125 68.75H10.9375C10.075 68.75 9.375 69.4484 9.375 70.3125V79.6875C9.375 80.5516 10.075 81.25 10.9375 81.25H20.3125C21.175 81.25 21.875 80.5516 21.875 79.6875V70.3125C21.875 69.4484 21.175 68.75 20.3125 68.75ZM18.75 78.125H12.5V71.875H18.75V78.125Z" fill="#A12B70"/>
<path d="M40.625 25H45.3125V29.6875C45.3125 30.5516 46.0125 31.25 46.875 31.25H53.125C53.9875 31.25 54.6875 30.5516 54.6875 29.6875V25H59.375C60.2375 25 60.9375 24.3016 60.9375 23.4375V17.1875C60.9375 16.3234 60.2375 15.625 59.375 15.625H54.6875V10.9375C54.6875 10.0734 53.9875 9.375 53.125 9.375H46.875C46.0125 9.375 45.3125 10.0734 45.3125 10.9375V15.625H40.625C39.7625 15.625 39.0625 16.3234 39.0625 17.1875V23.4375C39.0625 24.3016 39.7625 25 40.625 25ZM42.1875 18.75H46.875C47.7375 18.75 48.4375 18.0516 48.4375 17.1875V12.5H51.5625V17.1875C51.5625 18.0516 52.2625 18.75 53.125 18.75H57.8125V21.875H53.125C52.2625 21.875 51.5625 22.5734 51.5625 23.4375V28.125H48.4375V23.4375C48.4375 22.5734 47.7375 21.875 46.875 21.875H42.1875V18.75Z" fill="#A12B70"/>
<path d="M65.625 87.5H68.75V90.625H65.625V87.5Z" fill="#A12B70"/>
<path d="M65.625 81.25H68.75V84.375H65.625V81.25Z" fill="#A12B70"/>
<path d="M65.625 75H68.75V78.125H65.625V75Z" fill="#A12B70"/>
</svg>
