<svg width="512" height="512" viewBox="0 0 512 512" fill="none" xmlns="http://www.w3.org/2000/svg">
<path d="M479.388 89.13H32.612C14.63 89.13 0 103.76 0 121.742V390.258C0 408.24 14.63 422.87 32.612 422.87H479.388C497.37 422.87 512 408.24 512 390.258V121.742C512 103.76 497.37 89.13 479.388 89.13ZM490.259 390.257C490.259 396.251 485.382 401.128 479.388 401.128H32.612C26.618 401.128 21.741 396.251 21.741 390.257V121.741C21.741 115.747 26.618 110.87 32.612 110.87H479.388C485.382 110.87 490.259 115.747 490.259 121.741V390.257Z" fill="#1A5AFF"/>
<path d="M422.107 184.506H305.442C299.438 184.506 294.571 189.374 294.571 195.377C294.571 201.381 299.438 206.248 305.442 206.248H422.107C428.111 206.248 432.978 201.381 432.978 195.377C432.978 189.374 428.111 184.506 422.107 184.506Z" fill="#1A5AFF"/>
<path d="M422.107 245.129H305.442C299.438 245.129 294.571 249.996 294.571 256C294.571 262.003 299.438 266.871 305.442 266.871H422.107C428.111 266.871 432.978 262.003 432.978 256C432.978 249.996 428.111 245.129 422.107 245.129Z" fill="#1A5AFF"/>
<path d="M422.107 305.752H305.442C299.438 305.752 294.571 310.62 294.571 316.623C294.571 322.626 299.438 327.494 305.442 327.494H422.107C428.111 327.494 432.978 322.626 432.978 316.623C432.978 310.62 428.111 305.752 422.107 305.752Z" fill="#1A5AFF"/>
<path d="M200.747 290.243C200.527 290.228 180.631 291.057 175.257 269.533C182.518 263.818 188.611 255.877 192.965 246.393C193.287 246.425 193.609 246.465 193.929 246.465C196.893 246.464 199.763 245.114 201.649 242.691C210.778 230.966 215.525 215.742 215.017 199.823C213.961 166.819 191 140.801 162.705 140.495C161.931 140.464 161.242 140.484 160.685 140.504C160.672 140.504 160.659 140.505 160.645 140.505C153.78 137.53 146.548 136.136 139.095 136.381C123.163 136.89 108.545 144.782 97.937 158.604C87.772 171.847 82.491 189.079 83.068 207.131C83.166 210.185 83.408 213.001 83.796 215.669C84.849 223.355 86.969 230.723 90.097 237.566C91.6 240.855 94.796 243.048 98.408 243.264C99.391 243.327 100.356 243.226 101.284 243.003C105.711 253.976 112.4 263.107 120.49 269.482C115.223 290.97 95.21 290.231 94.991 290.245C73.602 290.945 56.415 308.55 56.415 330.105V369.719C56.415 375.123 60.795 379.503 66.199 379.503H229.538C234.942 379.503 239.322 375.123 239.322 369.719V330.105C239.323 308.548 222.135 290.943 200.747 290.243ZM103.303 213.828C103.258 213.529 103.215 213.228 103.173 212.927C102.881 210.915 102.702 208.812 102.628 206.501C102.194 192.959 106.041 180.18 113.461 170.516C120.433 161.431 129.762 156.254 139.723 155.935C140.052 155.924 147.871 155.305 154.448 159.192C155.825 160.006 157.512 160.249 159.103 160.21C159.304 160.205 162.236 160.057 162.384 160.058C179.914 160.173 194.754 178.291 195.462 200.446C195.544 202.984 195.442 205.492 195.166 207.945C188.691 196.831 179.073 188.225 167.627 183.412C165.167 182.379 162.391 182.394 159.943 183.455C157.494 184.517 155.586 186.534 154.66 189.037C153.905 191.079 152.987 193.069 151.934 194.954C149.365 199.548 144.109 202.257 138.218 202.072C137.046 202.032 135.862 202.03 134.697 202.067C128.964 202.251 123.373 203.344 118.04 205.331C112.713 207.343 107.762 210.199 103.303 213.828ZM116.938 228.029C119.417 226.197 122.141 224.842 124.914 223.654C129.97 221.486 136.802 221.604 137.541 221.63C150.144 222.058 161.649 216.161 168.051 206.115C173.043 209.94 177.166 215.092 180.042 221.197C177.012 243.154 163.347 259.858 147.841 259.858C134.007 259.858 121.591 246.773 116.938 228.029ZM138.437 278.323C141.499 279.045 144.642 279.425 147.841 279.425C151.07 279.425 154.232 279.042 157.304 278.326C160.457 288.394 167.08 296.938 175.758 302.57C171.584 314.056 160.541 322.109 147.87 322.109C135.199 322.109 124.156 314.056 119.981 302.569C128.661 296.936 135.284 288.392 138.437 278.323ZM75.984 359.934V330.104C75.984 318.895 85.103 309.777 96.312 309.777C96.536 309.777 100.105 309.572 101.634 309.366C108.6 328.368 126.891 341.677 147.869 341.677C168.847 341.677 187.138 328.368 194.104 309.366C195.635 309.572 199.201 309.777 199.425 309.777C210.635 309.777 219.753 318.896 219.753 330.104V359.934H75.984Z" fill="#1A5AFF"/>
</svg>
