<svg xmlns="http://www.w3.org/2000/svg" width="16" height="16.079" viewBox="0 0 16 16.079">
    <path fill="#fff" fill-rule="evenodd" d="M12.854 2.5a8.047 8.047 0 0 1 5.2 6.733h-3.198a12.546 12.546 0 0 0-2-6.731zm-2.8-.5C7.6 3.159 6.923 6.892 6.816 9.236h6.431c-.112-2.451-.808-5.911-3.198-7.236zm-2.857.522a12.564 12.564 0 0 0-1.991 6.714H2.049a8.047 8.047 0 0 1 5.143-6.714zm5.662 15.054a8.047 8.047 0 0 0 5.2-6.733h-3.203a12.546 12.546 0 0 1-2 6.731zm-2.8.5C7.6 16.92 6.923 13.187 6.816 10.844h6.431c-.112 2.45-.807 5.911-3.198 7.235zm-2.857-.522a12.564 12.564 0 0 1-1.986-6.713H2.049a8.047 8.047 0 0 0 5.143 6.716z" transform="translate(-2.049 -2)"/>
</svg>
