<svg xmlns="http://www.w3.org/2000/svg" width="10" height="11" viewBox="0 0 10 11">
    <path fill="#909ab2" d="M5 11a1.057 1.057 0 0 1-.729-.289L1.683 8.248a2.475 2.475 0 0 0-.22-.193A4.541 4.541 0 0 1 0 4.561a4.612 4.612 0 0 1 1.73-3.419A5.1 5.1 0 0 1 4.977 0 5.137 5.137 0 0 1 8.27 1.172 4.578 4.578 0 0 1 10 4.569a4.6 4.6 0 0 1-1.46 3.5 1.288 1.288 0 0 0-.11.1 1.287 1.287 0 0 1-.11.1l-2.591 2.442A1.057 1.057 0 0 1 5 11zm-.008-7.988a1.682 1.682 0 0 0-1.725 1.631 1.682 1.682 0 0 0 1.725 1.632 1.683 1.683 0 0 0 1.725-1.632 1.682 1.682 0 0 0-1.725-1.631z"/>
</svg>
