<svg xmlns="http://www.w3.org/2000/svg" width="30" height="30" viewBox="0 0 30 30">
    <g transform="translate(0 -.476)">
        <circle cx="15" cy="15" r="15" fill="#e7eeff" transform="translate(0 .476)"/>
        <path fill="#5c8aff" d="M5 12a1.011 1.011 0 0 1-.729-.316L1.683 9a2.556 2.556 0 0 0-.22-.21A5.185 5.185 0 0 1 0 4.975a5.2 5.2 0 0 1 1.73-3.729 4.866 4.866 0 0 1 6.539.032A5.159 5.159 0 0 1 10 4.984 5.251 5.251 0 0 1 8.537 8.8a1.33 1.33 0 0 0-.11.105 1.329 1.329 0 0 1-.11.105L5.73 11.68A1.011 1.011 0 0 1 5 12zm-.008-8.714a1.755 1.755 0 0 0-1.725 1.78 1.755 1.755 0 0 0 1.725 1.78 1.781 1.781 0 0 0 0-3.56z" transform="translate(10 9.476)"/>
    </g>
</svg>
