<svg xmlns="http://www.w3.org/2000/svg" width="20" height="20" viewBox="0 0 20 20">
    <g>
        <path fill="none" d="M0 0H20V20H0z" transform="translate(-215 -341) translate(215 341)"/>
        <path fill="#909ab2" fill-rule="evenodd" d="M7.53 25.359L6.007 11.107A1.266 1.266 0 0 1 6 10.972a1.3 1.3 0 0 1 1.31-1.288H21c.044 0 .088 0 .132.006a1.294 1.294 0 0 1 1.176 1.41l-.777 7.534a4.213 4.213 0 0 1-4.346 3.5H13.17a1.716 1.716 0 0 0-1.27.566l-2.552 2.818a1.47 1.47 0 0 1-1.09.482.728.728 0 0 1-.728-.64zm9.785-11.991h-6.842a.789.789 0 0 0 0 1.579h6.842a.789.789 0 0 0 0-1.579zm-3.158 3.158h-3.684a.789.789 0 1 0 0 1.579h3.684a.789.789 0 1 0 0-1.579zM10.21 8.105a1.053 1.053 0 0 1 0-2.105h14.737a1.053 1.053 0 0 1 1.048 1.148l-1.053 11.578a1.053 1.053 0 0 1-2.1-.191l.948-10.431z" transform="translate(-215 -341) translate(209 335)"/>
    </g>
</svg>
