<svg xmlns="http://www.w3.org/2000/svg" width="17.001" height="20" viewBox="0 0 17.001 20">
    <g>
        <g fill="#1a5aff">
            <path d="M0 11.912v-.2a3.744 3.744 0 0 1 .6-1.84 5.108 5.108 0 0 0 1.19-2.356c.045-.667 0-1.351.045-2.027C2.158 2.24 5.37 0 8.448 0h.089c3.132 0 6.263 2.24 6.6 5.485.063.667 0 1.36.054 2.027a5.011 5.011 0 0 0 1.19 2.356 3.541 3.541 0 0 1 .619 1.84v.2a3.658 3.658 0 0 1-.895 2.418 4.484 4.484 0 0 1-2.854 1.4 37.719 37.719 0 0 1-9.6 0 4.484 4.484 0 0 1-2.818-1.4A3.6 3.6 0 0 1 0 11.912z" transform="translate(-3.498 -2) translate(3.498 2)"/>
            <path d="M4.1.02c-.635-.044-1.154 0-1.673 0A6.347 6.347 0 0 0 .895.18C.465.278 0 .509 0 1a1.581 1.581 0 0 0 .7 1.162 3.721 3.721 0 0 0 2.682.738A3.118 3.118 0 0 0 5.7 1.593.885.885 0 0 0 5.547.358 3.328 3.328 0 0 0 4.1.02z" opacity="0.4" transform="translate(-3.498 -2) translate(3.498 2) translate(5.567 17.075)"/>
        </g>
    </g>
</svg>
