<svg xmlns="http://www.w3.org/2000/svg" width="18.154" height="16.005" viewBox="0 0 18.154 16.005">
    <defs>
        <style>
            .cls-1{fill:#fff}
        </style>
    </defs>
    <g id="notification-icon" transform="translate(-1 -3.529)">
        <path id="Path_8528" d="M4.568 16a.458.458 0 0 0-.449.548c.147.739.406 2.039.534 2.7a1.418 1.418 0 0 0 1.504 1.332 1.517 1.517 0 0 0 1.517-1.517v-2.605A.458.458 0 0 0 7.216 16z" class="cls-1" transform="translate(-.261 -1.046)"/>
        <path id="Path_8529" d="M3.748 8a2.748 2.748 0 1 0 0 5.5h3.207a.458.458 0 0 0 .458-.458V8.458A.458.458 0 0 0 6.955 8z" class="cls-1" transform="translate(0 -.375)"/>
        <path id="Path_8530" d="M10.283 6.828a.473.473 0 0 0-.283.429v6.232a.473.473 0 0 0 .283.429 9.147 9.147 0 0 1 .976.509l4.21 2.526a1.832 1.832 0 0 0 2.775-1.571V5.364a1.832 1.832 0 0 0-2.774-1.571l-4.21 2.526a9.162 9.162 0 0 1-.977.509z" class="cls-1" transform="translate(-1.755)"/>
        <path id="Path_8531" d="M21 9.916A.916.916 0 0 1 21.916 9a.916.916 0 0 1 .916.916v1.832a.916.916 0 0 1-.916.916.916.916 0 0 1-.916-.916z" class="cls-1" transform="translate(-3.678 -.459)"/>
    </g>
</svg>
