<svg width="512" height="512" viewBox="0 0 512 512" fill="none" xmlns="http://www.w3.org/2000/svg">
<path d="M469.256 175.503H417.156V101.961C417.156 78.392 397.981 59.217 374.412 59.217H42.744C19.175 59.218 0 78.393 0 101.962V293.748C0 317.317 19.175 336.492 42.744 336.492H94.846V410.038C94.846 433.607 114.021 452.782 137.59 452.782H469.256C492.825 452.782 512 433.607 512 410.038V218.247C512 194.678 492.825 175.503 469.256 175.503ZM24.425 101.962C24.425 91.861 32.643 83.643 42.744 83.643H374.412C384.513 83.643 392.731 91.861 392.731 101.962V119.013H24.425V101.962ZM94.846 218.247V312.066H42.744C32.643 312.066 24.425 303.848 24.425 293.747V200.004H98.945C96.32 205.54 94.846 211.725 94.846 218.247ZM24.425 175.579V143.439H392.731V175.503H137.59C136.764 175.503 135.946 175.532 135.132 175.579H24.425ZM469.256 428.357H137.59C127.489 428.357 119.271 420.139 119.271 410.038V218.247C119.271 208.65 126.693 200.768 136.095 200.004H404.94C405.391 200.004 405.834 199.976 406.271 199.928H469.255C479.356 199.928 487.574 208.146 487.574 218.247V410.038H487.575C487.575 420.139 479.357 428.357 469.256 428.357Z" fill="black"/>
<path d="M340.211 255.272C326.319 255.272 313.545 260.119 303.466 268.196C293.133 259.872 280.257 255.265 266.637 255.265C234.172 255.265 207.76 281.677 207.76 314.142C207.76 346.607 234.172 373.019 266.637 373.019C280.258 373.019 293.133 368.412 303.466 360.09C313.545 368.167 326.319 373.015 340.211 373.015C372.673 373.015 399.082 346.605 399.082 314.143C399.082 281.681 372.673 255.272 340.211 255.272ZM287.953 341.201C281.944 345.959 274.502 348.593 266.636 348.593C247.639 348.594 232.184 333.139 232.184 314.143C232.184 295.146 247.639 279.691 266.636 279.691C274.502 279.691 281.943 282.326 287.953 287.083C283.737 295.191 281.34 304.389 281.34 314.141C281.34 323.894 283.738 333.092 287.953 341.201ZM340.211 348.589C321.218 348.589 305.766 333.136 305.766 314.142C305.766 295.149 321.219 279.697 340.211 279.697C359.204 279.697 374.656 295.15 374.656 314.142C374.656 333.137 359.204 348.589 340.211 348.589Z" fill="black"/>
</svg>
