<?xml version="1.0" encoding="UTF-8"?>
<svg xmlns="http://www.w3.org/2000/svg" xmlns:xlink="http://www.w3.org/1999/xlink" width="20pt" height="20pt" viewBox="0 0 20 20" version="1.1">
<g id="surface1">
<path style=" stroke:none;fill-rule:nonzero;fill:rgb(0%,0%,0%);fill-opacity:1;" d="M 12.023438 16.136719 C 12.125 16.183594 12.242188 16.183594 12.339844 16.136719 C 13.128906 15.761719 13.886719 15.050781 13.882812 14.136719 C 13.882812 13.246094 12.796875 12.804688 12.179688 13.429688 C 11.554688 12.800781 10.476562 13.253906 10.476562 14.136719 C 10.480469 15.074219 11.277344 15.785156 12.023438 16.136719 Z M 11.835938 13.933594 C 11.886719 14.03125 12.03125 14.136719 12.191406 14.128906 C 12.332031 14.128906 12.457031 14.046875 12.527344 13.933594 C 12.769531 13.546875 13.296875 13.738281 13.296875 14.136719 C 13.300781 14.765625 12.730469 15.273438 12.183594 15.5625 C 11.625 15.273438 11.0625 14.765625 11.0625 14.136719 C 11.0625 13.71875 11.625 13.566406 11.835938 13.933594 Z M 11.835938 13.933594 "/>
<path style=" stroke:none;fill-rule:nonzero;fill:rgb(0%,0%,0%);fill-opacity:1;" d="M 10.375 19.707031 C 10.375 19.867188 10.503906 20 10.667969 20 L 15.976562 20 C 16.386719 20 16.722656 19.664062 16.722656 19.253906 C 16.722656 18.8125 16.722656 15.234375 16.722656 14.796875 C 16.722656 14.636719 16.59375 14.503906 16.429688 14.503906 C 16.269531 14.503906 16.136719 14.636719 16.136719 14.796875 L 16.136719 16.210938 L 14.609375 16.210938 C 14.199219 16.210938 13.863281 16.546875 13.863281 16.957031 L 13.863281 19.414062 L 10.667969 19.414062 C 10.503906 19.414062 10.375 19.546875 10.375 19.707031 Z M 14.449219 16.957031 C 14.449219 16.867188 14.519531 16.796875 14.609375 16.796875 L 16.136719 16.796875 L 16.136719 19.253906 C 16.136719 19.339844 16.0625 19.414062 15.976562 19.414062 L 14.449219 19.414062 Z M 14.449219 16.957031 "/>
<path style=" stroke:none;fill-rule:nonzero;fill:rgb(0%,0%,0%);fill-opacity:1;" d="M 16.722656 13.148438 C 16.722656 11.417969 15.238281 10.785156 15.175781 10.761719 C 15.175781 10.761719 15.171875 10.757812 15.171875 10.757812 L 11.667969 9.402344 L 11.667969 8.582031 C 12.226562 8.144531 12.613281 7.5 12.707031 6.765625 C 13.351562 6.679688 13.882812 6.160156 13.882812 5.527344 C 13.882812 5.246094 13.777344 4.976562 13.582031 4.753906 L 13.582031 3.632812 C 13.582031 1.628906 11.953125 0 9.949219 0 C 7.949219 0 6.320312 1.628906 6.320312 3.632812 L 6.320312 4.777344 C 6.125 4.996094 6.019531 5.257812 6.019531 5.527344 C 6.019531 6.160156 6.546875 6.675781 7.195312 6.765625 C 7.289062 7.527344 7.695312 8.191406 8.292969 8.625 L 8.292969 9.402344 C 8.289062 9.402344 4.792969 10.757812 4.789062 10.761719 C 4.726562 10.785156 3.242188 11.417969 3.242188 13.148438 L 3.242188 19.253906 C 3.242188 19.664062 3.578125 20 3.988281 20 L 9.300781 20 C 9.460938 20 9.59375 19.867188 9.59375 19.707031 C 9.59375 19.546875 9.460938 19.414062 9.300781 19.414062 L 6.101562 19.414062 L 6.101562 16.957031 C 6.101562 16.546875 5.765625 16.210938 5.355469 16.210938 L 3.828125 16.210938 L 3.828125 13.148438 C 3.828125 11.828125 4.941406 11.332031 5.007812 11.304688 L 7.445312 10.359375 C 7.855469 11.234375 9.023438 11.671875 9.980469 11.671875 C 10.9375 11.671875 12.105469 11.234375 12.515625 10.359375 L 14.957031 11.304688 C 15.007812 11.328125 16.136719 11.828125 16.136719 13.148438 L 16.136719 13.429688 C 16.136719 13.59375 16.269531 13.722656 16.429688 13.722656 C 16.589844 13.722656 16.722656 13.59375 16.722656 13.429688 Z M 3.828125 16.796875 L 5.355469 16.796875 C 5.445312 16.796875 5.515625 16.867188 5.515625 16.957031 L 5.515625 19.414062 L 3.988281 19.414062 C 3.902344 19.414062 3.828125 19.339844 3.828125 19.253906 Z M 13.296875 5.527344 C 13.296875 5.832031 13.035156 6.085938 12.730469 6.164062 L 12.730469 4.894531 C 13.050781 4.976562 13.296875 5.234375 13.296875 5.527344 Z M 7.171875 6.164062 C 6.867188 6.085938 6.605469 5.832031 6.605469 5.527344 C 6.605469 5.238281 6.886719 5 7.171875 4.910156 Z M 7.183594 4.304688 C 7.089844 4.324219 6.996094 4.347656 6.90625 4.382812 L 6.90625 3.632812 C 6.90625 1.953125 8.273438 0.585938 9.949219 0.585938 C 11.628906 0.585938 12.996094 1.953125 12.996094 3.632812 L 12.996094 4.363281 C 12.90625 4.332031 12.8125 4.308594 12.730469 4.296875 C 12.730469 4.226562 12.734375 4.175781 12.71875 4.121094 C 12.679688 3.972656 12.523438 3.832031 11.835938 3.089844 C 11.621094 2.859375 11.347656 2.847656 11.144531 2.980469 C 10.125 3.648438 8.878906 3.984375 7.730469 3.902344 C 7.46875 3.878906 7.238281 4.054688 7.183594 4.304688 Z M 7.757812 6.414062 C 7.757812 6.1875 7.757812 4.683594 7.757812 4.488281 C 9 4.5625 10.328125 4.199219 11.417969 3.5 C 11.839844 3.953125 12.070312 4.195312 12.144531 4.285156 L 12.144531 6.414062 C 12.144531 7.617188 11.164062 8.570312 9.988281 8.574219 C 9.984375 8.574219 9.984375 8.574219 9.984375 8.574219 C 8.652344 8.570312 7.757812 7.535156 7.757812 6.414062 Z M 11.082031 8.929688 L 11.082031 9.492188 C 10.792969 9.804688 10.394531 9.976562 9.980469 9.976562 C 9.566406 9.976562 9.167969 9.804688 8.878906 9.492188 L 8.878906 8.949219 C 9.234375 9.09375 9.621094 9.160156 9.988281 9.160156 C 10.367188 9.160156 10.746094 9.078125 11.082031 8.929688 Z M 8.382812 10.59375 C 8.21875 10.480469 8.085938 10.324219 7.996094 10.148438 L 8.503906 9.949219 C 8.882812 10.328125 9.410156 10.5625 9.980469 10.5625 C 10.535156 10.5625 11.066406 10.339844 11.457031 9.949219 L 11.96875 10.144531 C 11.546875 10.972656 9.757812 11.542969 8.382812 10.59375 Z M 8.382812 10.59375 "/>
</g>
</svg>
