<svg width="20" height="20" viewBox="0 0 20 20" fill="none" xmlns="http://www.w3.org/2000/svg">
<path d="M12.0234 16.1367C12.125 16.1836 12.2422 16.1836 12.3398 16.1367C13.1289 15.7617 13.8867 15.0508 13.8828 14.1367C13.8828 13.2461 12.7969 12.8047 12.1797 13.4297C11.5547 12.8008 10.4766 13.2539 10.4766 14.1367C10.4805 15.0742 11.2773 15.7852 12.0234 16.1367ZM11.8359 13.9336C11.8867 14.0313 12.0313 14.1367 12.1914 14.1289C12.332 14.1289 12.457 14.0469 12.5273 13.9336C12.7695 13.5469 13.2969 13.7383 13.2969 14.1367C13.3008 14.7656 12.7305 15.2734 12.1836 15.5625C11.625 15.2734 11.0625 14.7656 11.0625 14.1367C11.0625 13.7188 11.625 13.5664 11.8359 13.9336Z" fill="#1A5AFF"/>
<path d="M10.375 19.707C10.375 19.8672 10.5039 20 10.668 20H15.9766C16.3867 20 16.7227 19.6641 16.7227 19.2539C16.7227 18.8125 16.7227 15.2344 16.7227 14.7969C16.7227 14.6367 16.5937 14.5039 16.4297 14.5039C16.2695 14.5039 16.1367 14.6367 16.1367 14.7969V16.2109H14.6094C14.1992 16.2109 13.8633 16.5469 13.8633 16.957V19.4141H10.668C10.5039 19.4141 10.375 19.5469 10.375 19.707ZM14.4492 16.957C14.4492 16.8672 14.5195 16.7969 14.6094 16.7969H16.1367V19.2539C16.1367 19.3398 16.0625 19.4141 15.9766 19.4141H14.4492V16.957Z" fill="#1A5AFF"/>
<path d="M16.7227 13.1484C16.7227 11.418 15.2383 10.7852 15.1758 10.7617L15.1719 10.7578L11.668 9.40234V8.58203C12.2266 8.14453 12.6133 7.5 12.707 6.76562C13.3516 6.67969 13.8828 6.16016 13.8828 5.52734C13.8828 5.24609 13.7773 4.97656 13.582 4.75391V3.63281C13.582 1.62891 11.9531 0 9.94922 0C7.94922 0 6.32031 1.62891 6.32031 3.63281V4.77734C6.125 4.99609 6.01953 5.25781 6.01953 5.52734C6.01953 6.16016 6.54687 6.67578 7.19531 6.76562C7.28906 7.52734 7.69531 8.19141 8.29297 8.625V9.40234C8.28906 9.40234 4.79297 10.7578 4.78906 10.7617C4.72656 10.7852 3.24219 11.418 3.24219 13.1484V19.2539C3.24219 19.6641 3.57812 20 3.98828 20H9.30078C9.46094 20 9.59375 19.8672 9.59375 19.707C9.59375 19.5469 9.46094 19.4141 9.30078 19.4141H6.10156V16.957C6.10156 16.5469 5.76562 16.2109 5.35547 16.2109H3.82812V13.1484C3.82812 11.8281 4.94141 11.332 5.00781 11.3047L7.44531 10.3594C7.85547 11.2344 9.02344 11.6719 9.98047 11.6719C10.9375 11.6719 12.1055 11.2344 12.5156 10.3594L14.957 11.3047C15.0078 11.3281 16.1367 11.8281 16.1367 13.1484V13.4297C16.1367 13.5938 16.2695 13.7227 16.4297 13.7227C16.5898 13.7227 16.7227 13.5938 16.7227 13.4297V13.1484ZM3.82812 16.7969H5.35547C5.44531 16.7969 5.51562 16.8672 5.51562 16.957V19.4141H3.98828C3.90234 19.4141 3.82812 19.3398 3.82812 19.2539V16.7969ZM13.2969 5.52734C13.2969 5.83203 13.0352 6.08594 12.7305 6.16406V4.89453C13.0508 4.97656 13.2969 5.23438 13.2969 5.52734ZM7.17187 6.16406C6.86719 6.08594 6.60547 5.83203 6.60547 5.52734C6.60547 5.23828 6.88672 5 7.17187 4.91016V6.16406ZM7.18359 4.30469C7.08984 4.32422 6.99609 4.34766 6.90625 4.38281V3.63281C6.90625 1.95312 8.27344 0.585938 9.94922 0.585938C11.6289 0.585938 12.9961 1.95312 12.9961 3.63281V4.36328C12.9062 4.33203 12.8125 4.30859 12.7305 4.29688C12.7305 4.22656 12.7344 4.17578 12.7188 4.12109C12.6797 3.97266 12.5234 3.83203 11.8359 3.08984C11.6211 2.85937 11.3477 2.84766 11.1445 2.98047C10.125 3.64844 8.87891 3.98437 7.73047 3.90234C7.46875 3.87891 7.23828 4.05469 7.18359 4.30469ZM7.75781 6.41406C7.75781 6.1875 7.75781 4.68359 7.75781 4.48828C9 4.5625 10.3281 4.19922 11.418 3.5C11.8398 3.95312 12.0703 4.19531 12.1445 4.28516V6.41406C12.1445 7.61719 11.1641 8.57031 9.98828 8.57422C9.98437 8.57422 9.98437 8.57422 9.98437 8.57422C8.65234 8.57031 7.75781 7.53516 7.75781 6.41406ZM11.082 8.92969V9.49219C10.793 9.80469 10.3945 9.97656 9.98047 9.97656C9.56641 9.97656 9.16797 9.80469 8.87891 9.49219V8.94922C9.23437 9.09375 9.62109 9.16016 9.98828 9.16016C10.3672 9.16016 10.7461 9.07813 11.082 8.92969ZM8.38281 10.5938C8.21875 10.4805 8.08594 10.3242 7.99609 10.1484L8.50391 9.94922C8.88281 10.3281 9.41016 10.5625 9.98047 10.5625C10.5352 10.5625 11.0664 10.3398 11.457 9.94922L11.9688 10.1445C11.5469 10.9727 9.75781 11.543 8.38281 10.5938Z" fill="#1A5AFF"/>
</svg>
