<svg xmlns="http://www.w3.org/2000/svg" width="30" height="30" viewBox="0 0 30 30">
    <g transform="translate(0 -.42)">
        <circle cx="15" cy="15" r="15" fill="#e7eeff" transform="translate(0 .42)"/>
        <g>
            <g>
                <g>
                    <path fill="#5c8aff" d="M10.389 106.363l-1.324-1.323a1.1 1.1 0 0 0-1.557 0l-.461.461a1.234 1.234 0 0 1-1.127.26 2.955 2.955 0 0 1-1.512-.846 2.955 2.955 0 0 1-.846-1.512 1.234 1.234 0 0 1 .26-1.127l.461-.461a1.1 1.1 0 0 0 0-1.557L2.96 98.935a1.1 1.1 0 0 0-1.557 0l-.462.465a3.179 3.179 0 0 0-.853 1.636 4.961 4.961 0 0 0 .025 1.988A8.262 8.262 0 0 0 6.3 109.21a5.566 5.566 0 0 0 1.094.114 4.381 4.381 0 0 0 .894-.089 3.179 3.179 0 0 0 1.636-.853l.461-.461a1.1 1.1 0 0 0 .004-1.558z" transform="translate(9.765 10.225) translate(.001 -98.612)"/>
                </g>
            </g>
        </g>
    </g>
</svg>
