<svg width="512" height="512" viewBox="0 0 512 512" fill="none" xmlns="http://www.w3.org/2000/svg">
<g clip-path="url(#clip0)">
<path d="M374.45 332.463C374.043 332.419 315.106 334.158 306.343 271C316.08 264.206 325.054 255.386 332.96 244.684C348.34 223.864 358.25 197.746 361.78 169.495C362.993 168.398 363.997 167.033 364.673 165.424C371.06 150.209 374.299 133.963 374.299 117.135C374.299 52.547 325.578 0 265.688 0C250.025 0 234.829 3.608 220.477 10.733C215.002 11.151 209.637 12.114 204.492 13.6C179.895 20.707 159.879 38.944 148.13 64.954C136.724 90.208 134.476 119.937 141.802 148.666C143.35 154.735 145.318 160.699 147.652 166.397C148.284 167.938 149.226 169.253 150.357 170.335C156.075 214.43 177.056 250.965 205.664 270.912C196.874 334.177 137.958 332.421 137.552 332.465C95.17 333.903 61.127 368.806 61.127 411.532V500.473C61.127 506.84 66.288 512.001 72.655 512.001H173.886H338.113H439.346C445.712 512.001 450.875 506.84 450.875 500.473V411.532C450.874 368.804 416.834 333.9 374.45 332.463ZM210.893 35.751C215.1 34.535 219.543 33.814 224.099 33.609C225.79 33.533 227.443 33.086 228.942 32.298C240.613 26.166 252.977 23.057 265.689 23.057C312.863 23.057 351.243 65.26 351.243 117.135C351.243 118.692 351.199 120.241 351.131 121.784C341.981 112.492 329.268 106.717 315.229 106.717H236.658C231.983 106.717 227.546 105.249 223.825 102.471C220.648 100.1 218.192 96.913 216.725 93.255C214.453 87.597 208.851 84.058 202.753 84.441C196.633 84.831 191.483 89.081 189.937 95.02C185.384 112.516 176.305 128.632 163.849 141.701C152.259 94.002 173.176 46.648 210.893 35.751ZM200.863 235.14C185.862 216.814 176.038 192.067 172.924 164.974C187.471 152.009 198.971 135.875 206.458 117.979C207.594 119.027 208.787 120.018 210.033 120.949C217.769 126.722 226.975 129.775 236.659 129.775H315.23C326.347 129.775 335.929 136.443 340.205 145.986C340.204 146.068 340.192 146.146 340.192 146.228C340.192 211.306 302.432 264.251 256.018 264.251C235.818 264.252 216.229 253.913 200.863 235.14ZM227.352 282.233C236.491 285.54 246.104 287.309 256.018 287.309C265.853 287.309 275.462 285.597 284.661 282.294C288.882 304.285 301.109 323.452 318.188 336.647L257.653 422.855C257.258 423.418 256.709 423.703 256.021 423.703C255.334 423.703 254.785 423.417 254.391 422.856L193.841 336.628C210.921 323.418 223.144 304.237 227.352 282.233ZM427.817 488.943H338.113H173.886H84.183V411.53C84.183 380.608 109.34 355.451 140.262 355.451C140.682 355.451 159.233 355 173.891 348.339L235.52 436.105C240.204 442.777 247.868 446.76 256.02 446.76C256.02 446.76 256.02 446.76 256.021 446.76C264.172 446.76 271.837 442.777 276.521 436.105L338.139 348.353C354.856 355.452 371.319 355.452 371.739 355.452C402.661 355.452 427.817 380.609 427.817 411.531V488.943Z" fill="black"/>
</g>
<defs>
<clipPath id="clip0">
<rect width="512" height="512" fill="white"/>
</clipPath>
</defs>
</svg>
