<svg xmlns="http://www.w3.org/2000/svg" width="20" height="20" viewBox="0 0 20 20">
    <g>
        <path fill="none" d="M0 0H20V20H0z" transform="translate(-242 -341) translate(242 341)"/>
        <path fill="#1a5aff" fill-rule="evenodd" d="M10.21 6.526V6.8A1.579 1.579 0 0 1 9.661 8a1.456 1.456 0 0 0-.5 1.162 1.579 1.579 0 0 0 3.158 0A1.455 1.455 0 0 0 11.812 8a1.579 1.579 0 0 1-.549-1.2v-.274A.526.526 0 0 1 11.789 6h3.158a.526.526 0 0 1 .526.526V6.8a1.579 1.579 0 0 1-.549 1.2 1.456 1.456 0 0 0-.5 1.162 1.579 1.579 0 0 0 3.158 0A1.455 1.455 0 0 0 17.075 8a1.579 1.579 0 0 1-.549-1.2v-.274A.526.526 0 0 1 17.052 6h3.158a.526.526 0 0 1 .526.526V6.8a1.579 1.579 0 0 1-.549 1.2 1.456 1.456 0 0 0-.5 1.162 1.579 1.579 0 1 0 3.158 0A1.455 1.455 0 0 0 22.338 8a1.579 1.579 0 0 1-.549-1.2v-.274A.526.526 0 0 1 22.315 6h1.579A2.105 2.105 0 0 1 26 8.105v11.579A6.316 6.316 0 0 1 19.684 26h-7.368A6.316 6.316 0 0 1 6 19.684V8.105A2.105 2.105 0 0 1 8.105 6h1.579a.526.526 0 0 1 .526.526zm.71 7.368a.794.794 0 0 0 0 1.579h10.158a.794.794 0 0 0 0-1.579H10.921zm0 3.158a.794.794 0 0 0 0 1.579h10.158a.794.794 0 0 0 0-1.579H10.921zM11 20.21a.789.789 0 1 0 0 1.579h4.737a.789.789 0 1 0 0-1.579z" transform="translate(-242 -341) translate(236 335)"/>
    </g>
</svg>
