<svg width="100" height="100" viewBox="0 0 100 100" fill="none" xmlns="http://www.w3.org/2000/svg">
<g clip-path="url(#clip0)">
<path d="M81.25 100H18.75C13.0083 100 8.33334 95.325 8.33334 89.5833V10.4167C8.33334 4.675 13.0083 0 18.75 0H81.25C86.9917 0 91.6667 4.675 91.6667 10.4167V89.5833C91.6667 95.325 86.9917 100 81.25 100ZM18.75 4.16667C15.3042 4.16667 12.5 6.97083 12.5 10.4167V89.5833C12.5 93.0292 15.3042 95.8333 18.75 95.8333H81.25C84.6958 95.8333 87.5 93.0292 87.5 89.5833V10.4167C87.5 6.97083 84.6958 4.16667 81.25 4.16667H18.75Z" fill="#A12B70"/>
<path d="M77.0834 50.0002H68.75C67.6 50.0002 66.6667 49.0668 66.6667 47.9168C66.6667 46.7668 67.6 45.8335 68.75 45.8335H77.0834C78.2334 45.8335 79.1667 46.7668 79.1667 47.9168C79.1667 49.0668 78.2334 50.0002 77.0834 50.0002Z" fill="#A12B70"/>
<path d="M77.0834 37.5002H68.75C67.6 37.5002 66.6667 36.5668 66.6667 35.4168C66.6667 34.2668 67.6 33.3335 68.75 33.3335H77.0834C78.2334 33.3335 79.1667 34.2668 79.1667 35.4168C79.1667 36.5668 78.2334 37.5002 77.0834 37.5002Z" fill="#A12B70"/>
<path d="M77.0834 62.5002H68.75C67.6 62.5002 66.6667 61.5668 66.6667 60.4168C66.6667 59.2668 67.6 58.3335 68.75 58.3335H77.0834C78.2334 58.3335 79.1667 59.2668 79.1667 60.4168C79.1667 61.5668 78.2334 62.5002 77.0834 62.5002Z" fill="#A12B70"/>
<path d="M77.0834 75.0002H68.75C67.6 75.0002 66.6667 74.0668 66.6667 72.9168C66.6667 71.7668 67.6 70.8335 68.75 70.8335H77.0834C78.2334 70.8335 79.1667 71.7668 79.1667 72.9168C79.1667 74.0668 78.2334 75.0002 77.0834 75.0002Z" fill="#A12B70"/>
<path d="M77.0833 87.5002H22.9167C21.7667 87.5002 20.8333 86.5668 20.8333 85.4168C20.8333 84.2668 21.7667 83.3335 22.9167 83.3335H77.0833C78.2333 83.3335 79.1667 84.2668 79.1667 85.4168C79.1667 86.5668 78.2333 87.5002 77.0833 87.5002Z" fill="#A12B70"/>
<path d="M41.6667 75.0002C30.1792 75.0002 20.8333 65.6543 20.8333 54.1668C20.8333 42.6793 30.1792 33.3335 41.6667 33.3335C53.1542 33.3335 62.5 42.6793 62.5 54.1668C62.5 65.6543 53.1542 75.0002 41.6667 75.0002ZM41.6667 37.5002C32.475 37.5002 25 44.9752 25 54.1668C25 63.3585 32.475 70.8335 41.6667 70.8335C50.8583 70.8335 58.3333 63.3585 58.3333 54.1668C58.3333 44.9752 50.8583 37.5002 41.6667 37.5002Z" fill="#A12B70"/>
<path d="M28.4083 69.5085C27.875 69.5085 27.3417 69.3043 26.9333 68.9002C26.1208 68.0877 26.1208 66.7668 26.9333 65.9543L39.5833 53.3043V35.4168C39.5833 34.2668 40.5167 33.3335 41.6667 33.3335C42.8167 33.3335 43.75 34.2668 43.75 35.4168V54.1668C43.75 54.721 43.5292 55.2502 43.1417 55.6418L29.8833 68.9002C29.475 69.3043 28.9417 69.5085 28.4083 69.5085Z" fill="#A12B70"/>
</g>
<defs>
<clipPath id="clip0">
<rect width="100" height="100" fill="white"/>
</clipPath>
</defs>
</svg>
