<svg width="513" height="513" viewBox="0 0 513 513" fill="none" xmlns="http://www.w3.org/2000/svg">
<g clip-path="url(#clip0)">
<path d="M302.78 239.712C298.346 235.283 291.161 235.283 286.73 239.713L265.424 261.019C262.487 259.93 259.314 259.332 256.002 259.332C252.688 259.332 249.512 259.931 246.573 261.023L202.78 217.228C198.349 212.799 191.164 212.799 186.734 217.228C182.303 221.659 182.302 228.844 186.734 233.276L230.531 277.074C229.442 280.009 228.845 283.182 228.845 286.492C228.845 301.467 241.028 313.651 256.004 313.651C270.98 313.651 283.163 301.468 283.163 286.492C283.163 283.18 282.565 280.005 281.475 277.066L302.781 255.76C307.211 251.329 307.211 244.144 302.78 239.712ZM256.002 293.225C252.288 293.225 249.267 290.203 249.267 286.49C249.267 282.777 252.289 279.755 256.002 279.755C259.716 279.755 262.737 282.777 262.737 286.49C262.736 290.204 259.715 293.225 256.002 293.225Z" fill="#1A5AFF"/>
<path d="M389.959 114.459L402.815 96.099L454.356 132.189C456.276 133.535 458.552 134.242 460.864 134.242C461.52 134.242 462.179 134.185 462.834 134.07C465.798 133.548 468.432 131.87 470.158 129.404C496.171 92.253 487.11 40.864 449.96 14.849C412.809 -11.168 361.418 -2.104 335.407 35.047C331.812 40.18 333.061 47.255 338.193 50.849L384.227 83.083L371.368 101.448C337.88 80.494 298.334 68.36 256.002 68.36C213.67 68.36 174.125 80.494 140.636 101.448L127.776 83.083L173.81 50.849C178.943 47.254 180.191 40.18 176.597 35.047C150.584 -2.105 99.195 -11.166 62.043 14.848C24.892 40.861 15.83 92.25 41.843 129.402C43.569 131.868 46.204 133.546 49.167 134.068C49.822 134.185 50.481 134.24 51.137 134.24C53.449 134.24 55.726 133.532 57.645 132.187L109.186 96.097L122.042 114.457C70.85 154.412 37.87 216.669 37.87 286.491C37.87 362.42 76.874 429.401 135.89 468.481L117.92 494.145C114.325 499.277 115.574 506.353 120.706 509.947C122.687 511.335 124.956 512.001 127.204 512.001C130.78 512.001 134.301 510.314 136.508 507.161L155.494 480.046C185.591 495.737 219.775 504.625 256 504.625C292.221 504.625 326.402 495.739 356.496 480.052L375.478 507.162C377.685 510.314 381.206 512.003 384.782 512.003C387.029 512.003 389.3 511.337 391.28 509.949C396.413 506.354 397.66 499.28 394.066 494.147L376.101 468.49C435.122 429.411 474.13 362.427 474.13 286.494C474.133 216.669 441.154 154.412 389.959 114.459ZM361.392 39.391C381.48 19.966 413.221 16.827 436.945 33.436C460.669 50.049 468.574 80.95 457.191 106.469L361.392 39.391ZM54.814 106.47C43.43 80.951 51.335 50.049 75.06 33.437C85.435 26.173 97.34 22.686 109.137 22.686C124.314 22.686 139.31 28.461 150.612 39.392L54.814 106.47ZM256.002 481.93C148.236 481.93 60.563 394.257 60.563 286.491C60.563 178.725 148.236 91.053 256.002 91.053C363.768 91.053 451.441 178.726 451.441 286.491C451.441 394.256 363.767 481.93 256.002 481.93Z" fill="#1A5AFF"/>
<path d="M256.002 126.07C167.546 126.07 95.581 198.035 95.581 286.491C95.581 374.947 167.546 446.912 256.002 446.912C344.458 446.912 416.422 374.947 416.422 286.491C416.422 198.035 344.458 126.07 256.002 126.07ZM362.642 377.084L354.975 369.418C350.544 364.988 343.359 364.988 338.929 369.418C334.498 373.849 334.498 381.034 338.929 385.464L346.595 393.131C324.864 411.62 297.436 423.601 267.349 426.026V415.114C267.349 408.848 262.269 403.767 256.002 403.767C249.735 403.767 244.655 408.848 244.655 415.114V426.026C214.567 423.601 187.14 411.62 165.408 393.131L173.075 385.464C177.506 381.033 177.506 373.848 173.075 369.418C168.644 364.988 161.459 364.988 157.027 369.418L149.36 377.085C130.871 355.354 118.89 327.926 116.465 297.838H127.377C133.644 297.838 138.724 292.758 138.724 286.491C138.724 280.224 133.644 275.144 127.377 275.144H116.465C118.89 245.056 130.871 217.629 149.36 195.897L157.027 203.564C159.243 205.779 162.147 206.887 165.05 206.887C167.953 206.887 170.858 205.778 173.073 203.564C177.504 199.133 177.504 191.948 173.073 187.516L165.406 179.849C187.137 161.36 214.565 149.379 244.653 146.954V157.867C244.653 164.133 249.733 169.214 256 169.214C262.267 169.214 267.347 164.133 267.347 157.867V146.954C297.435 149.379 324.862 161.36 346.593 179.849L338.927 187.516C334.496 191.947 334.496 199.132 338.927 203.564C341.143 205.779 344.047 206.887 346.95 206.887C349.853 206.887 352.758 205.778 354.973 203.564L362.64 195.898C381.129 217.629 393.109 245.056 395.534 275.144H384.622C378.355 275.144 373.275 280.224 373.275 286.491C373.275 292.758 378.357 297.838 384.623 297.838H395.535C393.112 327.926 381.131 355.353 362.642 377.084Z" fill="#1A5AFF"/>
</g>
<defs>
<clipPath id="clip0">
<rect width="512.002" height="512.002" fill="white"/>
</clipPath>
</defs>
</svg>
