<svg width="136" height="105" viewBox="0 0 136 105" fill="none" xmlns="http://www.w3.org/2000/svg">
<rect x="37.7778" y="21" width="98.2222" height="13" rx="6.5" fill="#EBE7E9"/>
<rect y="43" width="98.2222" height="13" rx="6.5" fill="#EBE7E9"/>
<rect x="13.6" y="65" width="98.2222" height="13" rx="6.5" fill="#EBE7E9"/>
<circle cx="57.1364" cy="39.1364" r="37.1364" stroke="#A12B70" stroke-width="4"/>
<line x1="83.8284" y1="67.7729" x2="118.227" y2="102.172" stroke="#A12B70" stroke-width="4" stroke-linecap="round"/>
<path d="M57 54C55.376 52.6236 53.8708 51.1148 52.5 49.4891C50.4428 47.0478 48 43.412 48 39.9473C47.9982 36.3288 50.1912 33.0659 53.5556 31.6811C56.9201 30.2962 60.7929 31.0625 63.3668 33.6224C65.0594 35.2967 66.0075 37.5742 66 39.9473C66 43.412 63.5571 47.0478 61.4999 49.4891C60.1291 51.1148 58.6239 52.6236 57 54ZM57 36.1148C55.6219 36.1148 54.3486 36.8453 53.6596 38.0311C52.9706 39.2169 52.9706 40.6778 53.6596 41.8636C54.3486 43.0494 55.6219 43.7799 57 43.7799C59.1302 43.7799 60.8571 42.064 60.8571 39.9473C60.8571 37.8307 59.1302 36.1148 57 36.1148Z" fill="#A12B70"/>
</svg>
