<svg width="512" height="512" viewBox="0 0 512 512" fill="none" xmlns="http://www.w3.org/2000/svg">
<g clip-path="url(#clip0)">
<path d="M414.09 211.636C420.887 211.636 426.398 206.126 426.398 199.328C426.398 192.53 420.887 187.02 414.09 187.02C407.292 187.02 401.782 192.53 401.782 199.328C401.782 206.126 407.292 211.636 414.09 211.636Z" fill="#1A5AFF"/>
<path d="M335.046 211.636C341.844 211.636 347.354 206.126 347.354 199.328C347.354 192.53 341.844 187.02 335.046 187.02C328.248 187.02 322.738 192.53 322.738 199.328C322.738 206.126 328.248 211.636 335.046 211.636Z" fill="#1A5AFF"/>
<path d="M256.001 211.636C262.799 211.636 268.309 206.126 268.309 199.328C268.309 192.53 262.799 187.02 256.001 187.02C249.203 187.02 243.693 192.53 243.693 199.328C243.693 206.126 249.203 211.636 256.001 211.636Z" fill="#1A5AFF"/>
<path d="M176.957 211.636C183.755 211.636 189.265 206.126 189.265 199.328C189.265 192.53 183.755 187.02 176.957 187.02C170.16 187.02 164.649 192.53 164.649 199.328C164.649 206.126 170.16 211.636 176.957 211.636Z" fill="#1A5AFF"/>
<path d="M97.912 211.636C104.71 211.636 110.22 206.126 110.22 199.328C110.22 192.53 104.71 187.02 97.912 187.02C91.1145 187.02 85.604 192.53 85.604 199.328C85.604 206.126 91.1145 211.636 97.912 211.636Z" fill="#1A5AFF"/>
<path d="M414.09 290.681C420.887 290.681 426.398 285.171 426.398 278.373C426.398 271.575 420.887 266.065 414.09 266.065C407.292 266.065 401.782 271.575 401.782 278.373C401.782 285.171 407.292 290.681 414.09 290.681Z" fill="#1A5AFF"/>
<path d="M335.046 290.681C341.844 290.681 347.354 285.171 347.354 278.373C347.354 271.575 341.844 266.065 335.046 266.065C328.248 266.065 322.738 271.575 322.738 278.373C322.738 285.171 328.248 290.681 335.046 290.681Z" fill="#1A5AFF"/>
<path d="M256.001 290.681C262.799 290.681 268.309 285.171 268.309 278.373C268.309 271.575 262.799 266.065 256.001 266.065C249.203 266.065 243.693 271.575 243.693 278.373C243.693 285.171 249.203 290.681 256.001 290.681Z" fill="#1A5AFF"/>
<path d="M97.912 290.681C104.71 290.681 110.22 285.171 110.22 278.373C110.22 271.575 104.71 266.065 97.912 266.065C91.1145 266.065 85.604 271.575 85.604 278.373C85.604 285.171 91.1145 290.681 97.912 290.681Z" fill="#1A5AFF"/>
<path d="M414.09 369.725C420.887 369.725 426.398 364.215 426.398 357.417C426.398 350.619 420.887 345.109 414.09 345.109C407.292 345.109 401.782 350.619 401.782 357.417C401.782 364.215 407.292 369.725 414.09 369.725Z" fill="#1A5AFF"/>
<path d="M335.046 369.725C341.844 369.725 347.354 364.215 347.354 357.417C347.354 350.619 341.844 345.109 335.046 345.109C328.248 345.109 322.738 350.619 322.738 357.417C322.738 364.215 328.248 369.725 335.046 369.725Z" fill="#1A5AFF"/>
<path d="M256.001 369.725C262.799 369.725 268.309 364.215 268.309 357.417C268.309 350.619 262.799 345.109 256.001 345.109C249.203 345.109 243.693 350.619 243.693 357.417C243.693 364.215 249.203 369.725 256.001 369.725Z" fill="#1A5AFF"/>
<path d="M176.957 369.725C183.755 369.725 189.265 364.215 189.265 357.417C189.265 350.619 183.755 345.109 176.957 345.109C170.16 345.109 164.649 350.619 164.649 357.417C164.649 364.215 170.16 369.725 176.957 369.725Z" fill="#1A5AFF"/>
<path d="M97.912 369.725C104.71 369.725 110.22 364.215 110.22 357.417C110.22 350.619 104.71 345.109 97.912 345.109C91.1145 345.109 85.604 350.619 85.604 357.417C85.604 364.215 91.1145 369.725 97.912 369.725Z" fill="#1A5AFF"/>
<path d="M214.1 230.65H139.81C133.966 230.65 129.23 235.386 129.23 241.23V315.521C129.23 321.365 133.966 326.101 139.81 326.101H214.1C219.944 326.101 224.68 321.365 224.68 315.521V241.232C224.68 235.387 219.943 230.65 214.1 230.65ZM203.52 304.94H150.39V251.811H203.519V304.94H203.52Z" fill="#1A5AFF"/>
<path d="M476.733 89.114H399.024V75.535C399.024 69.042 393.761 63.779 387.268 63.779C380.777 63.779 375.512 69.043 375.512 75.535V89.114H311.511V75.535C311.511 69.042 306.247 63.779 299.755 63.779C293.262 63.779 287.999 69.043 287.999 75.535V89.114H224V75.535C224 69.042 218.737 63.779 212.244 63.779C205.751 63.779 200.488 69.043 200.488 75.535V89.114H136.487V75.535C136.487 69.042 131.224 63.779 124.731 63.779C118.238 63.779 112.975 69.043 112.975 75.535V89.114H35.265C15.821 89.114 0 104.934 0 124.38V412.953C0 432.399 15.821 448.22 35.267 448.22H476.734C496.18 448.22 512.001 432.399 512.001 412.953V124.38C512 104.934 496.178 89.114 476.733 89.114ZM476.733 424.71H35.267C28.785 424.71 23.511 419.436 23.511 412.954V124.38C23.511 117.898 28.785 112.624 35.267 112.624H112.976V126.202C112.976 132.693 118.239 137.958 124.732 137.958C131.225 137.958 136.488 132.694 136.488 126.202V112.624H200.489V126.202C200.489 132.693 205.752 137.958 212.245 137.958C218.738 137.958 224.001 132.694 224.001 126.202V112.624H288V126.202C288 132.693 293.263 137.958 299.756 137.958C306.247 137.958 311.512 132.694 311.512 126.202V112.624H375.513V126.202C375.513 132.693 380.777 137.958 387.269 137.958C393.762 137.958 399.025 132.694 399.025 126.202V112.624H476.734C483.216 112.624 488.49 117.898 488.49 124.38V412.953H488.491C488.489 419.436 483.215 424.71 476.733 424.71Z" fill="#1A5AFF"/>
</g>
<defs>
<clipPath id="clip0">
<rect width="512" height="512" fill="white"/>
</clipPath>
</defs>
</svg>
