<svg xmlns="http://www.w3.org/2000/svg" width="20" height="20" viewBox="0 0 20 20">
    <g transform="translate(-1420 -976)">
        <circle cx="10" cy="10" r="10" fill="#909ab2" transform="translate(1420 976)"/>
        <path fill="#fff" d="M4.313 9.461a9.919 9.919 0 0 1-1.532-.121 7.19 7.19 0 0 1-2.1-.763L0 8.2l.742-.244c.811-.267 1.3-.432 1.914-.691a2.546 2.546 0 0 1-1.309-1.514l-.173-.524.141.022a2.572 2.572 0 0 1-.322-.4A2.439 2.439 0 0 1 .58 3.4l.032-.457.274.106a2.558 2.558 0 0 1-.248-.695A2.644 2.644 0 0 1 .92.576l.238-.438.319.383a5.868 5.868 0 0 0 3.8 2.14 2.274 2.274 0 0 1 .138-1.208A2.262 2.262 0 0 1 6.335.4a2.762 2.762 0 0 1 1.6-.394 2.56 2.56 0 0 1 1.577.649 5.283 5.283 0 0 0 .576-.192c.126-.048.27-.1.449-.163L11.2.072 10.766 1.3l.088-.006.705-.032-.417.57-.038.055c-.034.051-.075.114-.648.878a1.078 1.078 0 0 0-.2.7 6.637 6.637 0 0 1-.362 2.669 4.724 4.724 0 0 1-1.269 1.881A5.6 5.6 0 0 1 5.971 9.3a8.172 8.172 0 0 1-1.658.161zm0 0" transform="translate(1424.481 981.521)"/>
    </g>
</svg>
