<svg id="facebook" xmlns="http://www.w3.org/2000/svg" width="24.005" height="24.005" viewBox="0 0 24.005 24.005">
  <path id="Path_3275" data-name="Path 3275" d="M291.162,508.668q-.153.025-.306.046Q291.009,508.693,291.162,508.668Zm0,0" transform="translate(-277.222 -484.822)" fill="#57658a"/>
  <path id="Path_3276" data-name="Path 3276" d="M299.486,507.793l-.146.026Zm0,0" transform="translate(-285.307 -483.989)" fill="#57658a"/>
  <path id="Path_3277" data-name="Path 3277" d="M277.968,510.34q-.179.02-.359.035Q277.79,510.36,277.968,510.34Zm0,0" transform="translate(-264.597 -486.414)" fill="#57658a"/>
  <path id="Path_3278" data-name="Path 3278" d="M286.617,509.738l-.172.021Zm0,0" transform="translate(-273.017 -485.841)" fill="#57658a"/>
  <path id="Path_3279" data-name="Path 3279" d="M306.793,506.41l-.129.027Zm0,0" transform="translate(-292.288 -482.672)" fill="#57658a"/>
  <path id="Path_3280" data-name="Path 3280" d="M324.588,502.113l-.1.029Zm0,0" transform="translate(-309.272 -478.58)" fill="#57658a"/>
  <path id="Path_3281" data-name="Path 3281" d="M319.172,503.543l-.113.029Zm0,0" transform="translate(-304.101 -479.941)" fill="#57658a"/>
  <path id="Path_3282" data-name="Path 3282" d="M312.187,505.254l-.12.027Zm0,0" transform="translate(-297.437 -481.571)" fill="#57658a"/>
  <path id="Path_3283" data-name="Path 3283" d="M273.673,511.09l-.193.014Zm0,0" transform="translate(-260.66 -487.128)" fill="#57658a"/>
  <path id="Path_3284" data-name="Path 3284" d="M24,12A12,12,0,1,0,12,24l.211,0V14.659H9.635V11.654h2.579V9.442a3.61,3.61,0,0,1,3.854-3.961,21.227,21.227,0,0,1,2.312.118V8.28H16.8c-1.245,0-1.486.592-1.486,1.459v1.914h2.976L17.9,14.659H15.316v8.882A12.009,12.009,0,0,0,24,12Zm0,0" fill="#57658a"/>
  <path id="Path_3285" data-name="Path 3285" d="M265.273,511.43c-.127.008-.255.015-.383.019C265.019,511.444,265.146,511.438,265.273,511.43Zm0,0" transform="translate(-252.475 -487.452)" fill="#57658a"/>
  <path id="Path_3286" data-name="Path 3286" d="M260.707,511.836l-.2.005Zm0,0" transform="translate(-248.292 -487.839)" fill="#57658a"/>
</svg>
