<svg id="finansal_raporlar_icon" xmlns="http://www.w3.org/2000/svg" xmlns:xlink="http://www.w3.org/1999/xlink" width="40" height="40" viewBox="0 0 40 40">
  <defs>
    <linearGradient id="linear-gradient" x1="0.146" y1="0.854" x2="0.854" y2="0.146" gradientUnits="objectBoundingBox">
      <stop offset="0" stop-color="#0072ff"/>
      <stop offset="0.246" stop-color="#279cf6"/>
      <stop offset="0.595" stop-color="#5ad1ea"/>
      <stop offset="0.857" stop-color="#79f2e3"/>
      <stop offset="1" stop-color="#85ffe0"/>
    </linearGradient>
    <radialGradient id="radial-gradient" cx="0.5" cy="0.5" r="0.5" gradientUnits="objectBoundingBox">
      <stop offset="0" stop-color="#0056e0"/>
      <stop offset="0.133" stop-color="#0061db" stop-opacity="0.867"/>
      <stop offset="0.365" stop-color="#007dcf" stop-opacity="0.635"/>
      <stop offset="0.667" stop-color="#00abba" stop-opacity="0.333"/>
      <stop offset="1" stop-color="#00e5a1" stop-opacity="0"/>
    </radialGradient>
    <linearGradient id="linear-gradient-2" x1="-0.133" y1="2.887" x2="1.272" y2="-2.258" gradientUnits="objectBoundingBox">
      <stop offset="0" stop-color="#0072ff"/>
      <stop offset="1" stop-color="#00e5a1"/>
    </linearGradient>
    <linearGradient id="linear-gradient-3" x1="0.5" y1="0.987" x2="0.5" y2="-1.288" gradientUnits="objectBoundingBox">
      <stop offset="0.006" stop-color="#0056e0"/>
      <stop offset="0.086" stop-color="#0060eb" stop-opacity="0.922"/>
      <stop offset="0.23" stop-color="#006af6" stop-opacity="0.773"/>
      <stop offset="0.434" stop-color="#0070fd" stop-opacity="0.569"/>
      <stop offset="1" stop-color="#0072ff" stop-opacity="0"/>
    </linearGradient>
    <linearGradient id="linear-gradient-4" x1="-0.16" y1="1.179" x2="0.968" y2="-0.215" gradientUnits="objectBoundingBox">
      <stop offset="0.006" stop-color="#85ffe0"/>
      <stop offset="0.127" stop-color="#a3ffe8"/>
      <stop offset="0.288" stop-color="#c4fff0"/>
      <stop offset="0.454" stop-color="#defff7"/>
      <stop offset="0.625" stop-color="#f0fffb"/>
      <stop offset="0.803" stop-color="#fbfffe"/>
      <stop offset="1" stop-color="#fff"/>
    </linearGradient>
    <linearGradient id="linear-gradient-5" x1="0.207" y1="1.555" x2="1.603" y2="-3.449" xlink:href="#linear-gradient-4"/>
    <linearGradient id="linear-gradient-6" x1="0.5" y1="0.953" x2="0.5" y2="-0.128" gradientUnits="objectBoundingBox">
      <stop offset="0.006" stop-color="#009ed8"/>
      <stop offset="0.008" stop-color="#029fd8" stop-opacity="0.996"/>
      <stop offset="0.053" stop-color="#32b1e0" stop-opacity="0.953"/>
      <stop offset="0.102" stop-color="#5cc1e6" stop-opacity="0.902"/>
      <stop offset="0.156" stop-color="#83d0ec" stop-opacity="0.847"/>
      <stop offset="0.215" stop-color="#a5ddf1" stop-opacity="0.788"/>
      <stop offset="0.279" stop-color="#c1e7f6" stop-opacity="0.725"/>
      <stop offset="0.351" stop-color="#d8f0f9" stop-opacity="0.655"/>
      <stop offset="0.434" stop-color="#eaf7fc" stop-opacity="0.569"/>
      <stop offset="0.534" stop-color="#f6fcfe" stop-opacity="0.471"/>
      <stop offset="0.669" stop-color="#fdfeff" stop-opacity="0.333"/>
      <stop offset="1" stop-color="#fff" stop-opacity="0"/>
    </linearGradient>
    <linearGradient id="linear-gradient-7" x1="-0.576" y1="0.867" x2="1.962" y2="0.04" gradientUnits="objectBoundingBox">
      <stop offset="0" stop-color="#00e5a1"/>
      <stop offset="0.178" stop-color="#12e9a9"/>
      <stop offset="0.534" stop-color="#40f2bf"/>
      <stop offset="1" stop-color="#85ffe0"/>
    </linearGradient>
    <linearGradient id="linear-gradient-8" x1="-0.338" y1="2.005" x2="1.249" y2="-0.84" gradientUnits="objectBoundingBox">
      <stop offset="0" stop-color="#00e5a1"/>
      <stop offset="0.089" stop-color="#12e9a9"/>
      <stop offset="0.267" stop-color="#40f2bf"/>
      <stop offset="0.5" stop-color="#85ffe0"/>
      <stop offset="1" stop-color="#fff"/>
    </linearGradient>
    <linearGradient id="linear-gradient-9" x1="0.04" y1="3.394" x2="1.086" y2="-3.325" xlink:href="#linear-gradient-2"/>
    <linearGradient id="linear-gradient-10" x1="-0.249" y1="4.002" x2="0.969" y2="-1.412" xlink:href="#linear-gradient-2"/>
    <linearGradient id="linear-gradient-11" x1="-0.165" y1="3.627" x2="0.974" y2="-1.435" xlink:href="#linear-gradient-2"/>
    <linearGradient id="linear-gradient-12" x1="-1.337" y1="3.149" x2="1.281" y2="-0.644" gradientUnits="objectBoundingBox">
      <stop offset="0" stop-color="#0056e0"/>
      <stop offset="0.116" stop-color="#0860e0"/>
      <stop offset="0.31" stop-color="#1c7ae0"/>
      <stop offset="0.558" stop-color="#3da4e0"/>
      <stop offset="0.848" stop-color="#6bdee0"/>
      <stop offset="1" stop-color="#85ffe0"/>
    </linearGradient>
    <linearGradient id="linear-gradient-13" x1="-0.043" y1="2.687" x2="1.125" y2="-2.031" xlink:href="#linear-gradient-12"/>
    <linearGradient id="linear-gradient-14" x1="0.934" y1="2.949" x2="3.889" y2="-2.824" gradientUnits="objectBoundingBox">
      <stop offset="0" stop-color="#85ffe0"/>
      <stop offset="0.152" stop-color="#6bdee0"/>
      <stop offset="0.442" stop-color="#3da4e0"/>
      <stop offset="0.69" stop-color="#1c7ae0"/>
      <stop offset="0.884" stop-color="#0860e0"/>
      <stop offset="1" stop-color="#0056e0"/>
    </linearGradient>
    <linearGradient id="linear-gradient-15" x1="-0.265" y1="2.765" x2="1.747" y2="-6.171" xlink:href="#linear-gradient-14"/>
  </defs>
  <circle id="Ellipse_3107" data-name="Ellipse 3107" cx="20" cy="20" r="20" fill="url(#linear-gradient)"/>
  <circle id="Ellipse_3108" data-name="Ellipse 3108" cx="20" cy="20" r="20" fill="url(#radial-gradient)"/>
  <path id="Path_9084" data-name="Path 9084" d="M135.829,149.778q-9.751-.144-19.5,0a1.239,1.239,0,0,0-1.216,1.2q-.039,2.369-.043,4.738,11.01-.015,22.021,0,0-2.369-.043-4.738a1.239,1.239,0,0,0-1.216-1.2Z" transform="translate(-106.078 -138.01)" fill="url(#linear-gradient-2)"/>
  <path id="Path_9085" data-name="Path 9085" d="M135.829,149.778q-9.751-.144-19.5,0a1.239,1.239,0,0,0-1.216,1.2q-.039,2.369-.043,4.738,11.01-.015,22.021,0,0-2.369-.043-4.738a1.239,1.239,0,0,0-1.216-1.2Z" transform="translate(-106.078 -138.01)" fill="url(#linear-gradient-3)"/>
  <path id="Path_9086" data-name="Path 9086" d="M163.1,65.422a1.263,1.263,0,0,0-1.208-1.22q-7.227-.166-14.453,0a1.263,1.263,0,0,0-1.208,1.22q-.114,3.911-.153,7.821c2.847,1.565,5.719,3.168,8.588,4.77,2.869-1.6,5.741-3.205,8.588-4.77Q163.212,69.332,163.1,65.422Z" transform="translate(-134.664 -59.109)" fill="url(#linear-gradient-4)"/>
  <path id="Path_9087" data-name="Path 9087" d="M145.833,180.492q-.024,2.382-.02,4.764,8.608.011,17.216,0,0-2.382-.02-4.764Q154.421,180.421,145.833,180.492Z" transform="translate(-134.421 -166.358)" fill="url(#linear-gradient-5)"/>
  <path id="Path_9088" data-name="Path 9088" d="M162.856,65.422a1.263,1.263,0,0,0-1.208-1.22q-7.227-.166-14.453,0a1.263,1.263,0,0,0-1.208,1.22q-.183,6.293-.173,12.585,4.3.006,8.608.006t8.608-.006Q163.039,71.714,162.856,65.422Z" transform="translate(-134.421 -59.109)" fill="url(#linear-gradient-6)"/>
  <path id="Path_9089" data-name="Path 9089" d="M71.356,211.462a2.4,2.4,0,0,0-2.407,2.357q.015,5.547.294,11.094a1.317,1.317,0,0,0,1.234,1.223q1.172.049,2.344.089c.188-4.909.513-9.834.937-14.772Z" transform="translate(-63.562 -194.931)" fill="url(#linear-gradient-7)"/>
  <path id="Path_9090" data-name="Path 9090" d="M124.113,211.27q-4.2-.02-8.4-.027-1.9,1.2-3.8,2.4-1.9-1.2-3.8-2.4-3,0-6,.016a2.4,2.4,0,0,0-2.406,2.372q.005,2.361.05,4.723,1.221,1.337,2.442,2.686-1.16,1.3-2.294,2.588.022.59.047,1.181a1.3,1.3,0,0,0,1.224,1.223q11.914.406,23.828-.089a1.317,1.317,0,0,0,1.234-1.223q.278-5.547.294-11.094A2.4,2.4,0,0,0,124.113,211.27Z" transform="translate(-91.906 -194.74)" fill="url(#linear-gradient-8)"/>
  <path id="Path_9091" data-name="Path 9091" d="M162.463,238.407q-8.007.006-16.014,0a1.46,1.46,0,0,0-.6,1.181,1.5,1.5,0,0,0,1.491,1.48q7.114.035,14.229,0a1.5,1.5,0,0,0,1.491-1.48A1.46,1.46,0,0,0,162.463,238.407Z" transform="translate(-134.456 -219.781)" fill="url(#linear-gradient-9)"/>
  <path id="Path_9092" data-name="Path 9092" d="M155,214.8q6.52.018,13.04,0a1.053,1.053,0,1,0,1.268-1.6q-1.991-.988-3.985-1.987-3.8-.006-7.6,0-1.993,1-3.985,1.987A1.053,1.053,0,1,0,155,214.8Z" transform="translate(-141.515 -194.706)" fill="url(#linear-gradient-10)"/>
  <path id="Path_9093" data-name="Path 9093" d="M155,214.8q6.52.018,13.04,0a1.053,1.053,0,1,0,1.268-1.6q-1.991-.988-3.985-1.987-3.8-.006-7.6,0-1.993,1-3.985,1.987A1.053,1.053,0,1,0,155,214.8Z" transform="translate(-141.515 -194.706)" fill="url(#linear-gradient-11)"/>
  <path id="Path_9094" data-name="Path 9094" d="M312.651,302.346c1.769,1.774,3.517,3.533,5.223,5.259q1.182-.029,2.363-.065.1-2.637.149-5.274Q316.519,302.324,312.651,302.346Z" transform="translate(-288.225 -278.651)" fill="url(#linear-gradient-12)"/>
  <path id="Path_9095" data-name="Path 9095" d="M116.925,302.346q-8.293.046-16.587-.081.05,2.637.149,5.274,2.718.083,5.435.129,3.277-.542,6.577-1.146,3.3.6,6.577,1.146,1.536-.026,3.072-.064A5.121,5.121,0,0,0,116.925,302.346Z" transform="translate(-92.499 -278.651)" fill="url(#linear-gradient-13)"/>
  <path id="Path_9096" data-name="Path 9096" d="M176.028,343.271q-1.188-1.206-2.391-2.416-1.189-.01-2.379-.025.019,1.2.043,2.39,2.363.04,4.726.051Z" transform="translate(-157.879 -314.203)" fill="url(#linear-gradient-14)"/>
  <path id="Path_9097" data-name="Path 9097" d="M204.1,343.271q4.214.02,8.428-.051.024-1.2.043-2.39-5.431.071-10.862.025A2.436,2.436,0,0,0,204.1,343.271Z" transform="translate(-185.947 -314.203)" fill="url(#linear-gradient-15)"/>
</svg>
