<svg xmlns="http://www.w3.org/2000/svg" xmlns:xlink="http://www.w3.org/1999/xlink" width="40" height="40" viewBox="0 0 40 40">
  <defs>
    <linearGradient id="linear-gradient" x1="0.146" y1="0.854" x2="0.854" y2="0.146" gradientUnits="objectBoundingBox">
      <stop offset="0" stop-color="#ff4031"/>
      <stop offset="1" stop-color="#ff9ceb"/>
    </linearGradient>
    <radialGradient id="radial-gradient" cx="0.5" cy="0.5" r="0.54" gradientUnits="objectBoundingBox">
      <stop offset="0" stop-color="#ff4031"/>
      <stop offset="0.109" stop-color="#ff453c" stop-opacity="0.89"/>
      <stop offset="0.299" stop-color="#ff5358" stop-opacity="0.702"/>
      <stop offset="0.547" stop-color="#ff6a86" stop-opacity="0.455"/>
      <stop offset="0.839" stop-color="#ff89c5" stop-opacity="0.161"/>
      <stop offset="1" stop-color="#ff9ceb" stop-opacity="0"/>
    </radialGradient>
    <linearGradient id="linear-gradient-2" x1="-0.164" y1="1.008" x2="1.15" y2="-0.002" gradientUnits="objectBoundingBox">
      <stop offset="0" stop-color="#ff9caf"/>
      <stop offset="0.172" stop-color="#ffaabc"/>
      <stop offset="0.718" stop-color="#ffd3e2"/>
      <stop offset="1" stop-color="#ffe3f1"/>
    </linearGradient>
    <radialGradient id="radial-gradient-2" cx="0.5" cy="0.5" r="0.446" gradientTransform="translate(-0.15) scale(1.3 1)" gradientUnits="objectBoundingBox">
      <stop offset="0.257" stop-color="#ff9caf" stop-opacity="0.6"/>
      <stop offset="0.46" stop-color="#ffa4b8" stop-opacity="0.435"/>
      <stop offset="0.789" stop-color="#ffb8d0" stop-opacity="0.173"/>
      <stop offset="1" stop-color="#ffc8e3" stop-opacity="0"/>
    </radialGradient>
    <linearGradient id="linear-gradient-3" x1="0.104" y1="1.009" x2="0.854" y2="0.031" gradientUnits="objectBoundingBox">
      <stop offset="0" stop-color="#ff79a2"/>
      <stop offset="0.508" stop-color="#ff9abd" stop-opacity="0.592"/>
      <stop offset="0.875" stop-color="#ffb5d3" stop-opacity="0.302"/>
    </linearGradient>
    <radialGradient id="radial-gradient-3" cx="0.5" cy="0.5" r="0.496" gradientTransform="translate(-0.009) scale(1.018 1)" gradientUnits="objectBoundingBox">
      <stop offset="0.134" stop-color="#ffb5d3" stop-opacity="0.302"/>
      <stop offset="0.415" stop-color="#ffa5c6" stop-opacity="0.525"/>
      <stop offset="0.961" stop-color="#ff7ca5" stop-opacity="0.969"/>
      <stop offset="1" stop-color="#ff79a2"/>
    </radialGradient>
    <linearGradient id="linear-gradient-4" x1="0.135" y1="0.136" x2="1.022" y2="1.017" gradientUnits="objectBoundingBox">
      <stop offset="0" stop-color="#ffb5d3"/>
      <stop offset="0.225" stop-color="#ffc3dc"/>
      <stop offset="0.703" stop-color="#ffdaeb"/>
      <stop offset="1" stop-color="#ffe3f1"/>
    </linearGradient>
    <radialGradient id="radial-gradient-4" cx="0.297" cy="0.297" r="0.869" gradientTransform="translate(-0.003) scale(1.006 1)" gradientUnits="objectBoundingBox">
      <stop offset="0" stop-color="#ff9caf"/>
      <stop offset="0.8" stop-color="#ffc8e3" stop-opacity="0"/>
    </radialGradient>
    <linearGradient id="linear-gradient-5" x1="-0.354" y1="0.918" x2="0.52" y2="0.045" gradientUnits="objectBoundingBox">
      <stop offset="0" stop-color="#ffceec"/>
      <stop offset="0.864" stop-color="#fffafd"/>
      <stop offset="0.958" stop-color="#fff"/>
    </linearGradient>
    <linearGradient id="linear-gradient-6" x1="-0.996" y1="1.37" x2="0.738" y2="0.11" gradientUnits="objectBoundingBox">
      <stop offset="0" stop-color="#ffceec"/>
      <stop offset="0.901" stop-color="#fffafd"/>
      <stop offset="1" stop-color="#fff"/>
    </linearGradient>
    <radialGradient id="radial-gradient-5" cx="0.628" cy="0.762" r="0.437" gradientTransform="translate(-0.188) scale(1.377 1)" gradientUnits="objectBoundingBox">
      <stop offset="0" stop-color="#ff9caf" stop-opacity="0.6"/>
      <stop offset="0.115" stop-color="#ff9fb3" stop-opacity="0.557"/>
      <stop offset="0.367" stop-color="#ffaec5" stop-opacity="0.4"/>
      <stop offset="0.752" stop-color="#ffc1db" stop-opacity="0.157"/>
      <stop offset="1" stop-color="#ffc8e3" stop-opacity="0"/>
    </radialGradient>
    <radialGradient id="radial-gradient-6" cx="0.711" cy="0.774" r="0.666" gradientTransform="translate(-0.029) scale(1.058 1)" gradientUnits="objectBoundingBox">
      <stop offset="0" stop-color="#ff79a2"/>
      <stop offset="0.58" stop-color="#ff9abd" stop-opacity="0.592"/>
      <stop offset="1" stop-color="#ffb5d3" stop-opacity="0.302"/>
    </radialGradient>
    <linearGradient id="linear-gradient-7" x1="0.197" y1="1.32" x2="1.12" y2="-0.393" gradientUnits="objectBoundingBox">
      <stop offset="0" stop-color="#ff9caf"/>
      <stop offset="1" stop-color="#ffc8e3"/>
    </linearGradient>
    <radialGradient id="radial-gradient-7" cx="0.013" cy="1.221" r="3.527" gradientTransform="translate(0.36) scale(0.281 1)" xlink:href="#radial-gradient-6"/>
  </defs>
  <g id="gelir_gider_icon" transform="translate(0 -0.408)">
    <circle id="Ellipse_3102" data-name="Ellipse 3102" cx="20" cy="20" r="20" transform="translate(0 0.408)" fill="url(#linear-gradient)"/>
    <circle id="Ellipse_3103" data-name="Ellipse 3103" cx="20" cy="20" r="20" transform="translate(0 0.408)" fill="url(#radial-gradient)"/>
    <path id="Path_9055" data-name="Path 9055" d="M130.321,90.527a2.631,2.631,0,0,1-2.414,2.484,161.059,161.059,0,0,1-17.914,0,2.631,2.631,0,0,1-2.414-2.484q-.375-12.345-.065-24.69a2.593,2.593,0,0,1,2.417-2.462q9.018-.425,18.036,0a2.593,2.593,0,0,1,2.417,2.462Q130.7,78.182,130.321,90.527Z" transform="translate(-99.012 -58.03)" fill="url(#linear-gradient-2)"/>
    <path id="Path_9056" data-name="Path 9056" d="M130.321,90.527a2.631,2.631,0,0,1-2.414,2.484,161.059,161.059,0,0,1-17.914,0,2.631,2.631,0,0,1-2.414-2.484q-.375-12.345-.065-24.69a2.593,2.593,0,0,1,2.417-2.462q9.018-.425,18.036,0a2.593,2.593,0,0,1,2.417,2.462Q130.7,78.182,130.321,90.527Z" transform="translate(-99.012 -58.03)" fill="url(#radial-gradient-2)"/>
    <path id="Path_9057" data-name="Path 9057" d="M107.379,247.5q.007,6.5.2,13.007A2.631,2.631,0,0,0,110,262.991a161.058,161.058,0,0,0,17.914,0q-2.4-.183-4.8-.445C115.359,261.673,108.847,255.171,107.379,247.5Z" transform="translate(-99.016 -228.01)" opacity="0.6" fill="url(#linear-gradient-3)"/>
    <path id="Path_9058" data-name="Path 9058" d="M228.147,37.2a2.352,2.352,0,0,1-2.353-2.381,2.353,2.353,0,1,1,4.705,0A2.351,2.351,0,0,1,228.147,37.2Z" transform="translate(-208.208 -29.675)" opacity="0.6" fill="url(#radial-gradient-3)"/>
    <path id="Path_9059" data-name="Path 9059" d="M223.4,254.625q-.012,6.289-.162,12.577-6.273.3-12.547.18C214.836,263.212,219.137,258.833,223.4,254.625Z" transform="translate(-194.283 -234.581)" fill="url(#linear-gradient-4)"/>
    <path id="Path_9060" data-name="Path 9060" d="M223.4,254.625q-.012,6.289-.162,12.577-6.273.3-12.547.18C214.836,263.212,219.137,258.833,223.4,254.625Z" transform="translate(-194.283 -234.581)" fill="url(#radial-gradient-4)"/>
    <path id="Path_9061" data-name="Path 9061" d="M235.778,271.484c-3.073,3.056-6.149,6.177-9.155,9.222q-.674-5.264-1.358-10.523C228.772,270.636,232.276,271.079,235.778,271.484Z" transform="translate(-207.72 -248.926)" fill="url(#linear-gradient-5)"/>
    <path id="Path_9062" data-name="Path 9062" d="M138.237,94.088q-.246,12.459.051,24.919,2.745.129,5.489.18a3.4,3.4,0,0,0,2.493-1.022,3.607,3.607,0,0,0,1.036-2.538v-4.391a1.2,1.2,0,0,1,1.2-1.2q2.191,0,4.382-.025a3.655,3.655,0,0,0,2.542-1.069,3.55,3.55,0,0,0,1.061-2.513q.011-6.171-.11-12.342Q147.306,93.737,138.237,94.088Z" transform="translate(-127.368 -86.385)" fill="url(#linear-gradient-6)"/>
    <path id="Path_9063" data-name="Path 9063" d="M138.237,94.088q-.246,12.459.051,24.919,2.745.129,5.489.18a3.4,3.4,0,0,0,2.493-1.022,3.607,3.607,0,0,0,1.036-2.538v-4.391a1.2,1.2,0,0,1,1.2-1.2q2.191,0,4.382-.025a3.655,3.655,0,0,0,2.542-1.069,3.55,3.55,0,0,0,1.061-2.513q.011-6.171-.11-12.342Q147.306,93.737,138.237,94.088Z" transform="translate(-127.368 -86.385)" fill="url(#radial-gradient-5)"/>
    <path id="Path_9064" data-name="Path 9064" d="M240.771,277.882c-.992-.056-5.876-1.008-5.877-1.013a2.4,2.4,0,0,0-2.738,2.741s.579,4.89.655,5.886a3.055,3.055,0,0,1-.487,1.851,3.5,3.5,0,0,0,.634-.507,3.607,3.607,0,0,0,1.036-2.538V279.91a1.2,1.2,0,0,1,1.2-1.2q2.191,0,4.382-.025a3.652,3.652,0,0,0,2.5-1.031A2.909,2.909,0,0,1,240.771,277.882Z" transform="translate(-214.056 -255.059)" opacity="0.6" fill="url(#radial-gradient-6)"/>
    <path id="Path_9065" data-name="Path 9065" d="M182.447,36.093q-.853-.025-1.706-.042a1.222,1.222,0,0,1-1.126-.838l-.168-.5a3.234,3.234,0,0,0-6.191,0l-.168.5a1.222,1.222,0,0,1-1.126.838q-.853.018-1.706.042a.626.626,0,0,0-.6.612q-.018,1.187-.033,2.375a.571.571,0,0,0,.587.581q6.14-.126,12.28,0a.571.571,0,0,0,.587-.581q-.014-1.187-.033-2.375A.625.625,0,0,0,182.447,36.093Zm-6.1-.088a1.181,1.181,0,0,1-1.176-1.194,1.177,1.177,0,1,1,2.352,0A1.181,1.181,0,0,1,176.352,36Z" transform="translate(-156.413 -29.675)" fill="url(#linear-gradient-7)"/>
    <path id="Path_9066" data-name="Path 9066" d="M171.963,79.125q-.853.018-1.706.042a.626.626,0,0,0-.6.612q-.018,1.187-.033,2.375a.571.571,0,0,0,.587.581q6.14-.126,12.28,0A18.548,18.548,0,0,1,171.963,79.125Z" transform="translate(-156.414 -72.75)" opacity="0.6" fill="url(#radial-gradient-7)"/>
  </g>
</svg>
