<svg xmlns="http://www.w3.org/2000/svg" xmlns:xlink="http://www.w3.org/1999/xlink" width="214" height="60" viewBox="0 0 214 60">
  <defs>
    <linearGradient id="linear-gradient" x1="2.472" y1="1.035" x2="2.361" y2="1.005" gradientUnits="objectBoundingBox">
      <stop offset="0" stop-color="#00a0ff"/>
      <stop offset="0.007" stop-color="#00a1ff"/>
      <stop offset="0.26" stop-color="#00beff"/>
      <stop offset="0.512" stop-color="#00d2ff"/>
      <stop offset="0.76" stop-color="#00dfff"/>
      <stop offset="1" stop-color="#00e3ff"/>
    </linearGradient>
    <linearGradient id="linear-gradient-2" x1="1.95" y1="1.879" x2="1.69" y2="1.879" gradientUnits="objectBoundingBox">
      <stop offset="0" stop-color="#ffe000"/>
      <stop offset="0.409" stop-color="#ffbd00"/>
      <stop offset="0.775" stop-color="orange"/>
      <stop offset="1" stop-color="#ff9c00"/>
    </linearGradient>
    <linearGradient id="linear-gradient-3" x1="1.926" y1="0.946" x2="1.835" y2="0.793" gradientUnits="objectBoundingBox">
      <stop offset="0" stop-color="#ff3a44"/>
      <stop offset="1" stop-color="#c31162"/>
    </linearGradient>
    <linearGradient id="linear-gradient-4" x1="1.856" y1="2.093" x2="1.897" y2="2.025" gradientUnits="objectBoundingBox">
      <stop offset="0" stop-color="#32a071"/>
      <stop offset="0.068" stop-color="#2da771"/>
      <stop offset="0.476" stop-color="#15cf74"/>
      <stop offset="0.801" stop-color="#06e775"/>
      <stop offset="1" stop-color="#00f076"/>
    </linearGradient>
  </defs>
  <g id="google_play" transform="translate(-975 -5006)">
    <rect id="Rectangle_18" data-name="Rectangle 18" width="214" height="60" rx="12" transform="translate(975 5006)"/>
    <g id="Group_34858" data-name="Group 34858" transform="translate(997.58 5010.537)">
      <path id="Path_8780" data-name="Path 8780" d="M1691.842,279.35a3.79,3.79,0,0,1-2.828-1.17,3.988,3.988,0,0,1-1.142-2.856,3.9,3.9,0,0,1,1.142-2.853,3.778,3.778,0,0,1,2.825-1.17,3.827,3.827,0,0,1,2.828,1.17,4.133,4.133,0,0,1,0,5.706A3.757,3.757,0,0,1,1691.842,279.35Zm-33.531,0a3.928,3.928,0,0,1-2.841-1.155,4.023,4.023,0,0,1,2.841-6.892,3.958,3.958,0,0,1,1.586.329,3.207,3.207,0,0,1,1.208.863l.074.09-.841.826-.087-.1a2.391,2.391,0,0,0-1.953-.841,2.7,2.7,0,0,0-1.947.795,3.018,3.018,0,0,0,0,4.135,2.846,2.846,0,0,0,3.946,0,2.148,2.148,0,0,0,.571-1.295h-2.7v-1.161h3.856l.015.106a4.278,4.278,0,0,1,.056.584,3.5,3.5,0,0,1-.962,2.577A3.756,3.756,0,0,1,1658.311,279.35Zm44.583-.165H1701.7l-3.641-5.827.031,1.049v4.775h-1.189v-7.714h1.357l.037.059,3.424,5.489-.031-1.046v-4.5h1.2Zm-19.986,0h-1.2v-6.557h-2.089v-1.161h5.38v1.161H1682.9v6.557Zm-4.275,0h-1.2v-7.718h1.2Zm-6.752,0h-1.2v-6.557h-2.089v-1.161h5.38v1.161h-2.089Zm-4.051-.012h-4.607v-7.705h4.607v1.161h-3.4v2.117h3.07v1.149h-3.07v2.117h3.4Zm22.066-1.791a2.658,2.658,0,0,0,1.947.807,2.59,2.59,0,0,0,1.946-.807,3.059,3.059,0,0,0,0-4.11,2.663,2.663,0,0,0-1.946-.807,2.58,2.58,0,0,0-1.944.807,3.063,3.063,0,0,0-.006,4.11Z" transform="translate(-1602.837 -262.836)" fill="#fff"/>
      <path id="Path_8781" data-name="Path 8781" d="M1680.4,688.88a5.3,5.3,0,1,0,5.312,5.3A5.213,5.213,0,0,0,1680.4,688.88Zm0,8.494a3.218,3.218,0,1,1,2.986-3.21A3.065,3.065,0,0,1,1680.4,697.373Zm-11.589-8.494a5.3,5.3,0,1,0,5.312,5.3A5.213,5.213,0,0,0,1668.806,688.88Zm0,8.494a3.218,3.218,0,1,1,2.986-3.21A3.065,3.065,0,0,1,1668.806,697.373Zm-13.79-6.876v2.241h5.38a4.722,4.722,0,0,1-1.217,2.822,5.49,5.49,0,0,1-4.151,1.645,5.977,5.977,0,0,1,0-11.952,5.744,5.744,0,0,1,4.051,1.6l1.589-1.589a7.816,7.816,0,0,0-5.628-2.269,8.218,8.218,0,1,0,0,16.435,7.523,7.523,0,0,0,5.74-2.31,7.437,7.437,0,0,0,1.95-5.256,6.936,6.936,0,0,0-.124-1.4h-7.594S1655.017,690.5,1655.017,690.5Zm56.4,1.745a4.922,4.922,0,0,0-4.536-3.375,5.031,5.031,0,0,0-4.992,5.3,5.176,5.176,0,0,0,5.256,5.3,5.256,5.256,0,0,0,4.411-2.35l-1.8-1.2a3.011,3.011,0,0,1-2.6,1.465,2.7,2.7,0,0,1-2.573-1.6l7.081-2.934S1711.421,692.242,1711.421,692.242Zm-7.221,1.769a2.907,2.907,0,0,1,2.766-3.086,2.041,2.041,0,0,1,1.965,1.121Zm-5.752,5.132h2.325V683.584h-2.325Zm-3.819-9.087h-.084a3.668,3.668,0,0,0-2.794-1.189,5.3,5.3,0,0,0,0,10.583,3.658,3.658,0,0,0,2.794-1.2h.084v.761c0,2.021-1.08,3.111-2.822,3.111a2.935,2.935,0,0,1-2.669-1.881l-2.021.844a5.055,5.055,0,0,0,4.688,3.126c2.726,0,5.036-1.6,5.036-5.52v-9.5h-2.2v.872Zm-2.67,7.317a3.22,3.22,0,0,1,0-6.417,2.977,2.977,0,0,1,2.822,3.222A2.94,2.94,0,0,1,1691.959,697.373Zm30.349-13.79h-5.56v15.559h2.325v-5.892h3.238a4.841,4.841,0,1,0,0-9.667Zm.069,7.494h-3.306v-5.34h3.306a2.67,2.67,0,1,1,0,5.34Zm14.358-2.226a4.379,4.379,0,0,0-4.151,2.378l2.061.857a2.211,2.211,0,0,1,2.117-1.149,2.245,2.245,0,0,1,2.449,2.005v.165a5.206,5.206,0,0,0-2.421-.6c-2.226,0-4.483,1.217-4.483,3.5a3.6,3.6,0,0,0,3.859,3.43,3.273,3.273,0,0,0,2.958-1.521h.084v1.2h2.241v-5.961C1741.45,690.389,1739.388,688.852,1736.734,688.852Zm-.292,8.522c-.76,0-1.825-.373-1.825-1.329,0-1.2,1.329-1.661,2.462-1.661a4.035,4.035,0,0,1,2.117.525A2.8,2.8,0,0,1,1736.442,697.373Zm13.185-8.189-2.67,6.749h-.084l-2.766-6.749h-2.5l4.15,9.434-2.365,5.243h2.421l6.386-14.678Zm-20.93,9.959h2.325V683.584H1728.7Z" transform="translate(-1595.329 -661.593)" fill="#fff" fill-rule="evenodd"/>
      <path id="Path_8782" data-name="Path 8782" d="M400.668,299.484a2.549,2.549,0,0,0-.568,1.769V328.96a2.425,2.425,0,0,0,.581,1.753l.1.084L416.2,315.274v-.347L400.764,299.4Z" transform="translate(-387.68 -290.105)" fill-rule="evenodd" fill="url(#linear-gradient)"/>
      <path id="Path_8783" data-name="Path 8783" d="M923.444,641.148,918.3,636v-.36l5.144-5.144.112.068,6.085,3.458c1.742.981,1.742,2.6,0,3.595l-6.085,3.458Z" transform="translate(-889.746 -610.825)" fill-rule="evenodd" fill="url(#linear-gradient-2)"/>
      <path id="Path_8784" data-name="Path 8784" d="M439.175,807.256,433.919,802,418.4,817.519a2.037,2.037,0,0,0,2.586.084l18.189-10.347" transform="translate(-405.411 -776.952)" fill-rule="evenodd" fill="url(#linear-gradient-3)"/>
      <path id="Path_8785" data-name="Path 8785" d="M439.175,297.229,420.986,286.9a2.017,2.017,0,0,0-2.586.084l15.519,15.5Z" transform="translate(-405.411 -277.533)" fill-rule="evenodd" fill="url(#linear-gradient-4)"/>
    </g>
  </g>
</svg>
