<svg width="99" height="99" viewBox="0 0 99 99" fill="none" xmlns="http://www.w3.org/2000/svg">
<g clip-path="url(#clip0)">
<path d="M16.4752 7.97162C16.358 7.27929 15.8158 6.7371 15.1235 6.61996C12.435 6.17077 10.3285 4.06367 9.88018 1.37498C9.72818 0.476617 8.87664 -0.128684 7.97828 0.0233113C7.28594 0.140453 6.74375 0.682646 6.62661 1.37498C6.17825 4.06367 4.07176 6.17098 1.38328 6.61996C0.484918 6.77195 -0.120383 7.6235 0.0316121 8.52186C0.148754 9.21419 0.690947 9.75638 1.38328 9.87352C4.07176 10.3227 6.17825 12.4298 6.62661 15.1185C6.7786 16.0169 7.63015 16.6222 8.52851 16.4702C9.22084 16.353 9.76304 15.8108 9.88018 15.1185C10.3285 12.4298 12.435 10.3227 15.1235 9.87352C16.0219 9.72174 16.6272 8.87019 16.4752 7.97162ZM8.25339 10.6028C7.61015 9.68729 6.81284 8.88999 5.89736 8.24674C6.81284 7.60349 7.61015 6.80619 8.25339 5.89071C8.89664 6.80619 9.69395 7.60349 10.6094 8.24674C9.69374 8.89019 8.89664 9.68729 8.25339 10.6028Z" fill="#25F2FF"/>
<path d="M65.5468 9.89494C62.3555 9.89473 59.1976 10.5429 56.2645 11.8006C51.9429 13.6416 47.0572 13.6416 42.7355 11.8006C30.7805 6.67499 16.934 12.2114 11.8085 24.1664C10.551 27.0995 9.90263 30.2574 9.90284 33.4487C9.89954 43.165 12.6303 52.6863 17.7827 60.9242L18.2545 61.6815L25.3787 93.0292C26.3157 97.1577 30.422 99.7449 34.5504 98.808C37.5875 98.1187 39.9055 95.6608 40.4158 92.5887L45.3654 62.9007C45.7484 60.6163 47.9108 59.0751 50.1953 59.458C51.9596 59.754 53.3422 61.1364 53.6379 62.9007L58.5876 92.5871C59.2842 96.7638 63.2347 99.5849 67.4114 98.8884C70.4808 98.3765 72.9362 96.0603 73.6263 93.0259L80.7488 61.6782L81.2207 60.9209C86.3714 52.6836 89.1009 43.1636 89.0972 33.4487C89.098 20.4412 78.5541 9.89597 65.5468 9.89494ZM78.4192 59.1769L77.7988 60.1669C77.7015 60.3238 77.6303 60.4954 77.5876 60.675L70.4057 92.2901C69.8709 94.642 67.5308 96.1151 65.1789 95.5804C63.4506 95.1875 62.1313 93.789 61.8395 92.041L56.8899 62.3546C56.2085 58.2734 52.3475 55.5171 48.2661 56.1987C45.1101 56.7256 42.6371 59.1986 42.1102 62.3546L37.1606 92.0426C36.7664 94.4211 34.5185 96.03 32.14 95.6357C30.389 95.3455 28.9881 94.0243 28.596 92.2934L21.4124 60.6767C21.3697 60.4971 21.2986 60.3255 21.2012 60.1685L20.5809 59.1786C15.7568 51.4637 13.2001 42.5476 13.2026 33.4487C13.2154 22.2689 22.2751 13.2091 33.4549 13.1964C36.1983 13.1935 38.9131 13.7503 41.4338 14.833C46.5865 17.0315 52.4135 17.0315 57.5663 14.833C67.8482 10.4274 79.7548 15.1909 84.1604 25.4727C85.2404 27.9931 85.7972 30.7066 85.7975 33.4487C85.7995 42.5472 83.2428 51.4625 78.4192 59.1769Z" fill="#25F2FF"/>
<path d="M28.0515 21.4458L27.7215 19.8289C24.4218 20.4905 18.1522 24.0939 18.1522 32.995H21.452C21.452 24.6284 28.101 23.1221 28.3815 23.061L28.0515 21.4458Z" fill="#25F2FF"/>
<path d="M34.6511 19.7959H31.3513V23.0957H34.6511V19.7959Z" fill="#25F2FF"/>
<path d="M98.9689 77.2667C98.8517 76.5744 98.3096 76.0322 97.6172 75.9151C94.9287 75.4659 92.8222 73.3588 92.3739 70.6701C92.2219 69.7717 91.3704 69.1664 90.472 69.3184C89.7797 69.4356 89.2375 69.9777 89.1203 70.6701C88.672 73.3588 86.5655 75.4659 83.877 75.9151C82.9786 76.0671 82.3733 76.9186 82.5253 77.817C82.6425 78.5093 83.1847 79.0515 83.877 79.1686C86.5655 79.6178 88.672 81.7249 89.1203 84.4136C89.2723 85.312 90.1239 85.9173 91.0222 85.7653C91.7146 85.6481 92.2567 85.1059 92.3739 84.4136C92.8222 81.7249 94.9287 79.6178 97.6172 79.1686C98.5156 79.0168 99.1209 78.1653 98.9689 77.2667ZM90.7471 79.8979C90.1039 78.9824 89.3065 78.1851 88.3911 77.5418C89.3065 76.8986 90.1039 76.1013 90.7471 75.1858C91.3904 76.1013 92.1877 76.8986 93.1031 77.5418C92.1875 78.1853 91.3904 78.9824 90.7471 79.8979Z" fill="#25F2FF"/>
</g>
<defs>
<clipPath id="clip0">
<rect width="99" height="99" fill="white"/>
</clipPath>
</defs>
</svg>
