<svg id="guvenlik_icon" xmlns="http://www.w3.org/2000/svg" xmlns:xlink="http://www.w3.org/1999/xlink" width="40" height="40" viewBox="0 0 40 40">
  <defs>
    <linearGradient id="linear-gradient" x1="0.146" y1="0.854" x2="0.854" y2="0.146" gradientUnits="objectBoundingBox">
      <stop offset="0" stop-color="#00aa45"/>
      <stop offset="1" stop-color="#d3ff33"/>
    </linearGradient>
    <radialGradient id="radial-gradient" cx="0.5" cy="0.5" r="0.5" gradientUnits="objectBoundingBox">
      <stop offset="0" stop-color="#00aa45"/>
      <stop offset="0.101" stop-color="#0faf49" stop-opacity="0.898"/>
      <stop offset="0.295" stop-color="#35bd52" stop-opacity="0.706"/>
      <stop offset="0.561" stop-color="#73d462" stop-opacity="0.439"/>
      <stop offset="0.886" stop-color="#c7f377" stop-opacity="0.114"/>
      <stop offset="1" stop-color="#e6fe7f" stop-opacity="0"/>
    </radialGradient>
    <linearGradient id="linear-gradient-2" x1="-0.278" y1="1.075" x2="1.153" y2="-0.115" gradientUnits="objectBoundingBox">
      <stop offset="0" stop-color="#95e12e"/>
      <stop offset="0.356" stop-color="#c0ed83"/>
      <stop offset="0.664" stop-color="#e2f7c6"/>
      <stop offset="0.886" stop-color="#f7fdef"/>
      <stop offset="1" stop-color="#fff"/>
    </linearGradient>
    <linearGradient id="linear-gradient-3" x1="-0.014" y1="0.83" x2="1.198" y2="-0.143" gradientUnits="objectBoundingBox">
      <stop offset="0" stop-color="#00aa45"/>
      <stop offset="0.361" stop-color="#57cd3e"/>
      <stop offset="0.667" stop-color="#9ae838"/>
      <stop offset="0.887" stop-color="#c3f934"/>
      <stop offset="1" stop-color="#d3ff33"/>
    </linearGradient>
    <linearGradient id="linear-gradient-4" x1="-0.697" y1="1.149" x2="1.7" y2="-0.624" gradientUnits="objectBoundingBox">
      <stop offset="0" stop-color="#5ccd38"/>
      <stop offset="0.461" stop-color="#9ae735"/>
      <stop offset="0.817" stop-color="#c3f834"/>
      <stop offset="1" stop-color="#d3ff33"/>
    </linearGradient>
    <linearGradient id="linear-gradient-5" x1="-0.961" y1="1.535" x2="1.082" y2="0.13" xlink:href="#linear-gradient-4"/>
    <linearGradient id="linear-gradient-6" x1="-4.043" y1="3.267" x2="0.893" y2="0.232" xlink:href="#linear-gradient-4"/>
    <linearGradient id="linear-gradient-7" x1="0.205" y1="0.659" x2="2.323" y2="-0.295" xlink:href="#linear-gradient-4"/>
    <linearGradient id="linear-gradient-8" x1="-1.309" y1="1.557" x2="2.489" y2="-0.415" xlink:href="#linear-gradient-4"/>
  </defs>
  <circle id="Ellipse_3105" data-name="Ellipse 3105" cx="20" cy="20" r="20" fill="url(#linear-gradient)"/>
  <circle id="Ellipse_3106" data-name="Ellipse 3106" cx="20" cy="20" r="20" fill="url(#radial-gradient)"/>
  <path id="Path_9077" data-name="Path 9077" d="M93.683,76.756a1.143,1.143,0,0,1-.943,0,23.181,23.181,0,0,1-9.158-7.624,21.273,21.273,0,0,1-4.165-12.709q.028-2.848.1-5.7a1.266,1.266,0,0,1,.734-1.1c4.207-1.981,8.381-3.966,12.487-5.844a1.142,1.142,0,0,1,.952,0c4.105,1.877,8.279,3.863,12.487,5.844a1.266,1.266,0,0,1,.734,1.1q.07,2.848.1,5.7a21.273,21.273,0,0,1-4.165,12.709,23.179,23.179,0,0,1-9.158,7.624Z" transform="translate(-73.211 -40.271)" fill="url(#linear-gradient-2)"/>
  <path id="Path_9078" data-name="Path 9078" d="M135.865,118.544a.389.389,0,0,1-.365,0,19.227,19.227,0,0,1-6.551-5.792,18.113,18.113,0,0,1-3.462-10.731q.014-1.981.043-3.963a.413.413,0,0,1,.242-.366c3.271-1.5,6.527-3.011,9.751-4.466a.389.389,0,0,1,.321,0c3.224,1.455,6.479,2.961,9.751,4.466a.413.413,0,0,1,.242.366q.029,1.981.043,3.963a18.113,18.113,0,0,1-3.462,10.731A19.23,19.23,0,0,1,135.865,118.544Z" transform="translate(-115.682 -85.911)" fill="url(#linear-gradient-3)"/>
  <path id="Path_9079" data-name="Path 9079" d="M225.254,241.219c.8,3.941,1.609,7.888,2.4,11.832a17.436,17.436,0,0,0,6.35-6.565C231.1,244.751,228.173,242.979,225.254,241.219Z" transform="translate(-207.656 -222.374)" fill="url(#linear-gradient-4)"/>
  <path id="Path_9080" data-name="Path 9080" d="M229.816,118.895q-1.055-.478-2.106-.95-1.189,3.008-2.4,6.02,1.193,3,2.4,6.013a16.5,16.5,0,0,0,6.35,2.865,16.568,16.568,0,0,0,1.5-3.719C233.65,125.739,231.719,122.316,229.816,118.895Z" transform="translate(-207.71 -108.731)" fill="url(#linear-gradient-5)"/>
  <path id="Path_9081" data-name="Path 9081" d="M288.7,140.333a16.261,16.261,0,0,0,.55-4.3q-.009-1.539-.025-3.077-3.143-1.431-6.265-2.851A12.007,12.007,0,0,0,288.7,140.333Z" transform="translate(-260.855 -119.941)" fill="url(#linear-gradient-6)"/>
  <path id="Path_9082" data-name="Path 9082" d="M150.668,154.209l-2.123.968q-.016,1.539-.025,3.077a16.472,16.472,0,0,0,3.119,9.723,17.373,17.373,0,0,0,5.278,4.861v-9.43C154.821,160.328,152.723,157.246,150.668,154.209Z" transform="translate(-136.916 -142.161)" fill="url(#linear-gradient-7)"/>
  <path id="Path_9083" data-name="Path 9083" d="M182.274,129.978V117.946q-3.109,1.4-6.248,2.833A16.531,16.531,0,0,0,182.274,129.978Z" transform="translate(-162.274 -108.731)" fill="url(#linear-gradient-8)"/>
</svg>
