<svg width="99" height="99" viewBox="0 0 99 99" fill="none" xmlns="http://www.w3.org/2000/svg">
<g clip-path="url(#clip0)">
<path d="M63.855 -5.35147e-05C61.7775 -0.00211601 59.7213 0.420078 57.8127 1.24075C52.4991 3.5062 46.4912 3.5062 41.1774 1.24075C33.3849 -2.09081 24.367 1.52537 21.0354 9.31791C20.221 11.2228 19.8008 13.2732 19.8 15.3449C19.8074 21.7385 21.2842 28.045 24.1164 33.7771L26.4677 41.7235C26.677 42.4223 27.3205 42.9008 28.05 42.8999H33V51.1499C33 52.0612 33.7388 52.7999 34.65 52.7999H39.6V56.6395L34.8315 56.1098L34.4685 59.39L39.6 59.9609V66.5395L34.8315 66.0098L34.4685 69.29L39.6 69.8609V76.4395L34.8315 75.9098L34.4685 79.19L39.6 79.7609V86.3395L34.8315 85.8098L34.4685 89.09L39.7106 89.6725C39.7106 89.6857 39.7106 89.6989 39.7106 89.7121L43.0106 97.9621C43.262 98.5914 43.8725 99.0028 44.55 98.9999H54.45C55.1253 99.0002 55.7325 98.5891 55.9829 97.9621L58.4579 91.7564L64.1619 92.39L64.5249 89.1098L59.4 88.5389V81.9604L64.1685 82.49L64.5315 79.2098L59.4 78.6389V72.0604L64.1685 72.59L64.5315 69.3098L59.4 68.7389V62.1604L64.1685 62.69L64.5315 59.4098L59.4 58.8389V52.7999H64.35C65.2612 52.7999 66 52.0612 66 51.1499V42.8999H70.95C71.681 42.9002 72.3249 42.4194 72.5324 41.7185L74.8836 33.7721C77.715 28.0415 79.192 21.7368 79.2 15.3449C79.1936 6.87282 72.3271 0.00634024 63.855 -5.35147e-05ZM53.328 95.6999H45.6671L43.4214 90.0899L55.0622 91.3835L53.328 95.6999ZM56.1 88.1726L42.9 86.7058V80.1272L56.1 81.5941V88.1726ZM56.1 78.2726L42.9 76.8058V70.2272L56.1 71.6941V78.2726ZM56.1 68.3726L42.9 66.9058V60.3272L56.1 61.7941V68.3726ZM56.1 58.4726L42.9 57.0058V52.7999H56.1V58.4726ZM62.7 49.4999H36.3V42.8999H62.7V49.4999ZM71.8658 32.4274C71.8229 32.5138 71.7876 32.6037 71.7602 32.6963L69.7175 39.5999H29.2826L27.2399 32.6963C27.2124 32.6037 27.1772 32.5138 27.1343 32.4274C24.4883 27.1212 23.1074 21.2742 23.1 15.3449C23.1017 8.69277 28.4955 3.30118 35.1479 3.30283C36.7754 3.30325 38.3858 3.63345 39.8822 4.27345C46.0257 6.89365 52.9726 6.89365 59.1162 4.27345C65.2319 1.65634 72.3115 4.49248 74.9286 10.6082C75.5692 12.1052 75.8996 13.7166 75.9 15.3449C75.8926 21.2742 74.5117 27.1212 71.8658 32.4274Z" fill="#25F2FF"/>
<path d="M32.175 6.81775C28.696 8.66101 26.4866 12.2421 26.4 16.1782V18.1499H29.7V16.1699C29.7982 13.4177 31.3758 10.9333 33.825 9.6739L32.175 6.81775Z" fill="#25F2FF"/>
</g>
<defs>
<clipPath id="clip0">
<rect width="99" height="99" fill="white"/>
</clipPath>
</defs>
</svg>
