<svg xmlns="http://www.w3.org/2000/svg" width="24" height="24" viewBox="0 0 24 24">
  <g id="instagram" transform="translate(-1179 -1068)">
    <circle id="Ellipse_3049" data-name="Ellipse 3049" cx="12" cy="12" r="12" transform="translate(1179 1068)" fill="#57658a"/>
    <g id="Path_8786" data-name="Path 8786" transform="translate(1185 1074)" fill="#57658a">
      <path d="M 6 11 C 3.242990016937256 11 1 8.757010459899902 1 6 C 1 3.242990016937256 3.242990016937256 1 6 1 C 8.757010459899902 1 11 3.242990016937256 11 6 C 11 8.757010459899902 8.757010459899902 11 6 11 Z" stroke="none"/>
      <path d="M 6 2 C 3.794389724731445 2 2 3.794389724731445 2 6 C 2 8.205610275268555 3.794389724731445 10 6 10 C 8.205610275268555 10 10 8.205610275268555 10 6 C 10 3.794389724731445 8.205610275268555 2 6 2 M 6 0 C 9.31371021270752 0 12 2.68628978729248 12 6 C 12 9.31371021270752 9.31371021270752 12 6 12 C 2.68628978729248 12 0 9.31371021270752 0 6 C 0 2.68628978729248 2.68628978729248 0 6 0 Z" stroke="none" fill="#fff"/>
    </g>
    <circle id="Ellipse_3051" data-name="Ellipse 3051" cx="1.5" cy="1.5" r="1.5" transform="translate(1197.2 1074.2)" fill="#fff"/>
  </g>
</svg>
