<svg xmlns="http://www.w3.org/2000/svg" id="login-icon" width="48" height="48" viewBox="0 0 48 48">
    <defs>
        <style>
            .cls-1{fill:#1a5aff}.cls-2{fill:rgba(7,53,173,.31)}.cls-4{fill:#fff}
        </style>
    </defs>
    <rect id="Shape" width="48" height="48" class="cls-1" rx="24"/>
    <path id="Path_8375" d="M-30.923-3.85l.027-.05a8.732 8.732 0 0 0-3.913-.921 8.734 8.734 0 0 0-3.913.921l.027.05a18.453 18.453 0 0 1 3.886-.394 18.452 18.452 0 0 1 3.886.394" class="cls-2" transform="translate(58.534 37.903)"/>
    <path id="Path_8376" d="M-20.027-21.3l.008-.013 2.713-4.966a18.452 18.452 0 0 0-3.886-.394 18.45 18.45 0 0 0-3.886.394l2.713 4.966.007.013a1.33 1.33 0 0 0 .722.6c.147 0 .294.005.443.005s.3 0 .443-.005a1.331 1.331 0 0 0 .722-.6" class="cls-2" transform="translate(44.917 60.156)"/>
    <path id="Path_8378" d="M-56.536-15.13a7.562 7.562 0 0 0-6.426-3.814h-.343a7.563 7.563 0 0 0-6.426 3.814 7.758 7.758 0 0 0-.1 7.665l1.8 3.3a8.735 8.735 0 0 1 4.894-1.491 8.735 8.735 0 0 1 4.897 1.494l1.8-3.3a7.758 7.758 0 0 0-.1-7.665" class="cls-2" transform="translate(86.872 37.938)"/>
    <path id="Path_8379" d="M-37.123-18.562a3.206 3.206 0 0 1-3.206 3.206 3.206 3.206 0 0 1-3.206-3.206 3.206 3.206 0 0 1 3.206-3.206 3.206 3.206 0 0 1 3.206 3.206" class="cls-2" transform="translate(62.968 43.524)"/>
    <g id="Group_34939" transform="translate(17.02 14.106)">
        <path id="Path_8375-2" fill="#e6edff" d="M-30.923-3.85l.027-.05a8.732 8.732 0 0 0-3.913-.921 8.734 8.734 0 0 0-3.913.921l.027.05a18.453 18.453 0 0 1 3.886-.394 18.452 18.452 0 0 1 3.886.394" transform="translate(42.47 19.192)"/>
        <path id="Path_8376-2" d="M-20.027-21.3l.008-.013 2.713-4.966a18.452 18.452 0 0 0-3.886-.394 18.45 18.45 0 0 0-3.886.394l2.713 4.966.007.013a1.33 1.33 0 0 0 .722.6c.147 0 .294.005.443.005s.3 0 .443-.005a1.331 1.331 0 0 0 .722-.6" class="cls-4" transform="translate(28.854 41.627)"/>
        <path id="Path_8378-2" d="M-56.536-15.13a7.562 7.562 0 0 0-6.426-3.814h-.343a7.563 7.563 0 0 0-6.426 3.814 7.758 7.758 0 0 0-.1 7.665l1.8 3.3a8.735 8.735 0 0 1 4.894-1.491 8.735 8.735 0 0 1 4.897 1.494l1.8-3.3a7.758 7.758 0 0 0-.1-7.665" class="cls-4" transform="translate(70.795 18.946)"/>
        <path id="Path_8379-2" d="M-37.123-18.562a3.206 3.206 0 0 1-3.206 3.206 3.206 3.206 0 0 1-3.206-3.206 3.206 3.206 0 0 1 3.206-3.206 3.206 3.206 0 0 1 3.206 3.206" class="cls-1" transform="translate(47.902 25.496)"/>
    </g>
</svg>
