<svg xmlns="http://www.w3.org/2000/svg" width="124" height="52" viewBox="0 0 124 52">
    <defs>
        <filter id="Rectangle_8987" width="124" height="52" x="0" y="0" filterUnits="userSpaceOnUse">
            <feOffset dy="2"/>
            <feGaussianBlur result="blur" stdDeviation="2"/>
            <feFlood flood-color="#1a5aff" flood-opacity=".133"/>
            <feComposite in2="blur" operator="in"/>
            <feComposite in="SourceGraphic"/>
        </filter>
        <style>
            .cls-1{fill:#fff}.cls-2{fill:#3e0f66}.cls-3{fill:#a62669}
        </style>
    </defs>
    <g id="logo" transform="translate(6 4)">
        <g filter="url(#Rectangle_8987)" transform="translate(-6 -4)">
            <rect id="Rectangle_8987-2" width="112" height="40" class="cls-1" rx="20" transform="translate(6 4)"/>
        </g>
        <g id="Group_34944" transform="translate(20 7)">
            <path id="Path_8306" d="M-7.938-24.514a3.419 3.419 0 0 0 .492 2 1.627 1.627 0 0 0 1.409.688 1.6 1.6 0 0 0 1.377-.688 3.61 3.61 0 0 0 .459-2 3.158 3.158 0 0 0-.492-1.868 1.713 1.713 0 0 0-1.41-.656 1.564 1.564 0 0 0-1.344.688 3.006 3.006 0 0 0-.492 1.836M-4.2-31.4h1.115a1.048 1.048 0 0 1 .787.344 1.093 1.093 0 0 1 .328.77v6.392q0 2.328-1.344 3.147a5.5 5.5 0 0 1-2.917.82 5.167 5.167 0 0 1-1.674-.273 2.751 2.751 0 0 1-1.311-.9 5.23 5.23 0 0 1-.951-3.311 5.317 5.317 0 0 1 .951-3.311A3.047 3.047 0 0 1-6.692-29a3.059 3.059 0 0 1 1.442.328 3.12 3.12 0 0 1 1.05 1.011z" class="cls-2" transform="translate(36.539 38.58)"/>
            <path id="Path_8307" d="M-8.289-13.075h3.343a2.125 2.125 0 0 0-.454-1.311 1.574 1.574 0 0 0-1.213-.459 1.6 1.6 0 0 0-1.18.459 1.881 1.881 0 0 0-.492 1.311m3.933 2.557h1.639a3.578 3.578 0 0 1-1.377 2.1 4.173 4.173 0 0 1-2.557.754 3.652 3.652 0 0 1-2.92-1.215 4.919 4.919 0 0 1-1.049-3.376A4.863 4.863 0 0 1-9.6-15.533a3.653 3.653 0 0 1 2.917-1.213 3.926 3.926 0 0 1 3.048 1.18 5 5 0 0 1 1.05 3.376v.361a.567.567 0 0 1-.033.229h-5.671a2.255 2.255 0 0 0 .489 1.508 1.548 1.548 0 0 0 1.278.525 1.855 1.855 0 0 0 .951-.23.452.452 0 0 0 .18-.115l.18-.18a.713.713 0 0 1 .246-.262.977.977 0 0 1 .606-.164" class="cls-2" transform="translate(46.218 26.323)"/>
            <path id="Path_8308" d="M-27.083-31.752h-1.147a1.086 1.086 0 0 1-.8-.311 1.085 1.085 0 0 1-.311-.8v-4.458a1.348 1.348 0 0 0-.475-1.147 1.721 1.721 0 0 0-1.065-.361 1.652 1.652 0 0 0-1.049.361 1.369 1.369 0 0 0-.459 1.147v5.572h-2.295v-5.113q0-2.229 1.164-2.983a5.086 5.086 0 0 1 2.573-.819 4.938 4.938 0 0 1 2.655.754q1.212.754 1.213 3.048z" class="cls-2" transform="translate(79.521 50.244)"/>
            <path id="Path_8309" d="M-12.841-40.158a17.1 17.1 0 0 1-2.344-.033q-1.262-.1-1.262-1.606v-9.637h1.18a1.038 1.038 0 0 1 .754.328 1.075 1.075 0 0 1 .328.787v1.475h1.344v.459a1.059 1.059 0 0 1-.328.8 1.1 1.1 0 0 1-.787.312h-.23v4.851q0 .558.656.557h.689z" class="cls-2" transform="translate(70.347 58.649)"/>
            <path id="Path_8310" d="M0-40.274v-8.981a2.326 2.326 0 0 1 .623-1.77 2.764 2.764 0 0 1 1.934-.557 3.412 3.412 0 0 1 .525.033 3.624 3.624 0 0 1 .557.033v1.8h-.59a1.23 1.23 0 0 0-.656.131.652.652 0 0 0-.164.524v.59h1.41v.492a1.059 1.059 0 0 1-.328.8 1.062 1.062 0 0 1-.754.311h-.328v6.589z" class="cls-3" transform="translate(58.54 58.765)"/>
            <path id="Path_8311" d="M-30-33.853h-2.623l-1.54-2.753-1.606 2.753h-2.655l2.852-4.491-2.688-4.228h2.524l1.508 2.622 1.672-2.819a1.016 1.016 0 0 1 .983-.59h1.967l-3.278 5.048z" class="cls-3" transform="translate(101.609 52.345)"/>
            <g id="Group_4977" transform="translate(0 1)">
                <path id="Path_8375" fill="#20164a" d="M-29.173-3.625l.033-.061a10.638 10.638 0 0 0-4.791-1.135 10.642 10.642 0 0 0-4.791 1.135l.033.061a22.463 22.463 0 0 1 4.758-.485 22.46 22.46 0 0 1 4.758.485" transform="translate(42.325 20.745)"/>
                <path id="Path_8376" fill="#3a2768" d="M-18.894-20.059l.009-.016 3.322-6.118a22.459 22.459 0 0 0-4.758-.485 22.457 22.457 0 0 0-4.758.485l3.322 6.118.009.016a1.631 1.631 0 0 0 .884.737c.18 0 .361.006.543.006s.363 0 .543-.006a1.632 1.632 0 0 0 .884-.737" transform="translate(28.715 43.319)"/>
                <path id="Path_8378" fill="#a12b70" d="M-54.976-14.693a8.384 8.384 0 0 0-7.124-4.251h-.38a8.385 8.385 0 0 0-7.129 4.251 8.681 8.681 0 0 0-.112 8.543l2 3.681a9.66 9.66 0 0 1 5.426-1.661 9.66 9.66 0 0 1 5.429 1.661l2-3.681a8.681 8.681 0 0 0-.112-8.543" transform="translate(70.795 18.946)"/>
                <path id="Path_8379" d="M-33.953-16.948a4.806 4.806 0 0 1-4.791 4.82 4.806 4.806 0 0 1-4.791-4.82 4.806 4.806 0 0 1 4.791-4.82 4.806 4.806 0 0 1 4.791 4.82" class="cls-1" transform="translate(47.138 24.578)"/>
            </g>
        </g>
    </g>
</svg>
