<svg xmlns="http://www.w3.org/2000/svg" width="139.31" height="46.61" viewBox="0 0 139.31 46.61">
  <g id="logo" transform="translate(-95.55 -132.651)">
    <path id="Path_8306" data-name="Path 8306" d="M-5.854-18.079A6.615,6.615,0,0,0-4.9-14.21a3.148,3.148,0,0,0,2.727,1.332A3.087,3.087,0,0,0,.488-14.21a6.985,6.985,0,0,0,.888-3.869,6.111,6.111,0,0,0-.951-3.615A3.314,3.314,0,0,0-2.3-22.963a3.026,3.026,0,0,0-2.6,1.332,5.817,5.817,0,0,0-.951,3.552M1.376-31.4H3.533a2.028,2.028,0,0,1,1.522.666,2.116,2.116,0,0,1,.634,1.491v12.367q0,4.5-2.6,6.088A10.643,10.643,0,0,1-2.556-9.2a10,10,0,0,1-3.235-.54,5.324,5.324,0,0,1-2.537-1.744,10.119,10.119,0,0,1-1.839-6.406,10.287,10.287,0,0,1,1.839-6.406,5.9,5.9,0,0,1,4.884-2.473,5.918,5.918,0,0,1,2.791.634,6.036,6.036,0,0,1,2.029,1.966Z" transform="translate(156.742 175.993)" fill="#3e0f66"/>
    <path id="Path_8307" data-name="Path 8307" d="M-6.113-9.643H.356A4.112,4.112,0,0,0-.532-12.18a3.046,3.046,0,0,0-2.347-.888,3.091,3.091,0,0,0-2.283.888,3.64,3.64,0,0,0-.951,2.537M1.5-4.7H4.669A6.923,6.923,0,0,1,2.005-.637,8.075,8.075,0,0,1-2.942.822,7.066,7.066,0,0,1-8.587-1.524q-2.03-2.284-2.029-6.533A9.409,9.409,0,0,1-8.65-14.4a7.069,7.069,0,0,1,5.645-2.347,7.6,7.6,0,0,1,5.9,2.283,9.666,9.666,0,0,1,2.03,6.532v.7a1.1,1.1,0,0,1-.064.444H-6.113a4.364,4.364,0,0,0,.951,2.917A3,3,0,0,0-2.688-2.856,3.589,3.589,0,0,0-.849-3.3.875.875,0,0,0-.5-3.522l.349-.349a1.379,1.379,0,0,1,.476-.507A1.891,1.891,0,0,1,1.5-4.7" transform="translate(175.051 165.972)" fill="#3e0f66"/>
    <path id="Path_8308" data-name="Path 8308" d="M-19.974-23.417h-2.219a2.1,2.1,0,0,1-1.554-.6,2.1,2.1,0,0,1-.6-1.554V-34.2a2.608,2.608,0,0,0-.92-2.22,3.329,3.329,0,0,0-2.062-.7,3.2,3.2,0,0,0-2.029.7,2.648,2.648,0,0,0-.888,2.22v10.782h-4.44v-9.894q0-4.313,2.252-5.772a9.84,9.84,0,0,1,4.979-1.586,9.554,9.554,0,0,1,5.138,1.459q2.345,1.46,2.346,5.9Z" transform="translate(216.982 189.894)" fill="#3e0f66"/>
    <path id="Path_8309" data-name="Path 8309" d="M-9.47-29.616A33.083,33.083,0,0,1-14-29.679q-2.443-.19-2.442-3.108V-51.434h2.283a2.008,2.008,0,0,1,1.458.635,2.08,2.08,0,0,1,.634,1.522v2.854h2.6v.888a2.049,2.049,0,0,1-.635,1.554,2.13,2.13,0,0,1-1.522.6h-.444v9.386q0,1.079,1.268,1.078H-9.47Z" transform="translate(216.285 196.093)" fill="#3e0f66"/>
    <path id="Path_8310" data-name="Path 8310" d="M0-29.7V-47.08A4.5,4.5,0,0,1,1.205-50.5a5.349,5.349,0,0,1,3.742-1.078,6.6,6.6,0,0,1,1.015.063,7.012,7.012,0,0,1,1.078.064v3.488H5.9a2.381,2.381,0,0,0-1.268.254A1.262,1.262,0,0,0,4.313-46.7v1.141H7.04v.951a2.05,2.05,0,0,1-.634,1.554,2.055,2.055,0,0,1-1.459.6H4.313V-29.7Z" transform="translate(208.816 196.178)" fill="#a62669"/>
    <path id="Path_8311" data-name="Path 8311" d="M-22.126-24.967H-27.2l-2.98-5.327-3.108,5.327h-5.137l5.518-8.689-5.2-8.181h4.884l2.917,5.073,3.235-5.454a1.966,1.966,0,0,1,1.9-1.141h3.805l-6.342,9.767Z" transform="translate(256.225 191.442)" fill="#a62669"/>
    <g id="Group_4977" data-name="Group 4977" transform="translate(-102.425 123)">
      <path id="Path_8375" data-name="Path 8375" d="M-21.351-2.658l.061-.11a19.449,19.449,0,0,0-8.716-2.052,19.455,19.455,0,0,0-8.716,2.052l.061.111a41.1,41.1,0,0,1,8.656-.877,41.1,41.1,0,0,1,8.655.877" transform="translate(245.045 46.484)" fill="#20164a"/>
      <path id="Path_8376" data-name="Path 8376" d="M-13.828-14.71l.017-.03L-7.767-25.8a41.1,41.1,0,0,0-8.656-.877,41.1,41.1,0,0,0-8.655.877l6.044,11.062.017.03a2.963,2.963,0,0,0,1.607,1.332c.327.007.656.011.987.011s.661,0,.988-.011a2.966,2.966,0,0,0,1.607-1.332" transform="translate(231.463 69.627)" fill="#3a2768"/>
      <path id="Path_8378" data-name="Path 8378" d="M-39.035-10.447a16.845,16.845,0,0,0-14.313-8.5c-.254,0-.51,0-.764,0a16.845,16.845,0,0,0-14.313,8.5A17.28,17.28,0,0,0-68.65,6.627l4.02,7.357a19.457,19.457,0,0,1,10.9-3.32,19.457,19.457,0,0,1,10.9,3.32l4.02-7.357a17.281,17.281,0,0,0-.226-17.074" transform="translate(268.77 28.598)" fill="#a12b70"/>
      <path id="Path_8379" data-name="Path 8379" d="M-24-12A9.766,9.766,0,0,1-33.77-2.237,9.765,9.765,0,0,1-43.535-12a9.765,9.765,0,0,1,9.765-9.765A9.766,9.766,0,0,1-24-12" transform="translate(248.809 37.112)" fill="#fff"/>
    </g>
  </g>
</svg>
