<svg xmlns="http://www.w3.org/2000/svg" width="24" height="24" viewBox="0 0 24 24">
  <g id="messenger" transform="translate(-1449.392 -3416.346)">
    <g id="_004-messenger" data-name="004-messenger" transform="translate(1449.392 3416.346)">
      <path id="Path_3287" data-name="Path 3287" d="M162.433,210.211l-3.812,4.036,3.469-1.9,1.813,1.9,3.791-4.036-3.431,1.87Zm0,0" transform="translate(-151.094 -200.317)" fill="#57658a"/>
      <path id="Path_3288" data-name="Path 3288" d="M12,0A12,12,0,1,0,24,12,12,12,0,0,0,12,0Zm.094,18.424a7.707,7.707,0,0,1-2.134-.3L7.539,19.5V16.912A6.553,6.553,0,0,1,4.883,11.7a6.981,6.981,0,0,1,7.21-6.727A6.981,6.981,0,0,1,19.3,11.7,6.981,6.981,0,0,1,12.094,18.424Zm0,0" fill="#57658a"/>
    </g>
  </g>
</svg>
