<svg xmlns="http://www.w3.org/2000/svg" xmlns:xlink="http://www.w3.org/1999/xlink" width="40.069" height="43.757" viewBox="0 0 40.069 43.757">
  <defs>
    <linearGradient id="linear-gradient" x1="0.5" x2="0.5" y2="1" gradientUnits="objectBoundingBox">
      <stop offset="0" stop-color="#ffff93"/>
      <stop offset="0.315" stop-color="#ffda7d"/>
      <stop offset="0.627" stop-color="#ffc16f"/>
      <stop offset="1" stop-color="#ffba6c"/>
      <stop offset="1" stop-color="#fdb76a"/>
    </linearGradient>
  </defs>
  <g id="önerilen-paket-icon" transform="translate(-18.121 2.696) rotate(-3)">
    <g id="Group_34836" data-name="Group 34836" transform="translate(39.502 25.098)">
      <g id="Group_34835" data-name="Group 34835" transform="translate(0)">
        <path id="Path_8777" data-name="Path 8777" d="M309.643,316.286l-4.817-10.329a17.809,17.809,0,0,1-11.619,7.466l4.032,8.646a1.369,1.369,0,0,0,2.526-.11l2.067-5.677.426-.2,5.677,2.067A1.37,1.37,0,0,0,309.643,316.286Z" transform="translate(-293.208 -305.957)" fill="url(#linear-gradient)"/>
      </g>
    </g>
    <g id="Group_34838" data-name="Group 34838" transform="translate(21.396)">
      <g id="Group_34837" data-name="Group 34837" transform="translate(0)">
        <path id="Path_8778" data-name="Path 8778" d="M87.539,0a15.054,15.054,0,1,0,15.054,15.054A15.071,15.071,0,0,0,87.539,0Zm7.325,13.948-2.669,2.6.631,3.675a1.37,1.37,0,0,1-1.986,1.443l-3.3-1.735-3.3,1.735a1.37,1.37,0,0,1-1.986-1.443l.631-3.675-2.669-2.6a1.37,1.37,0,0,1,.758-2.334l3.69-.536,1.65-3.343a1.369,1.369,0,0,1,2.454,0l1.65,3.343,3.69.536A1.37,1.37,0,0,1,94.864,13.948Z" transform="translate(-72.485)" fill="url(#linear-gradient)"/>
      </g>
    </g>
    <g id="Group_34840" data-name="Group 34840" transform="translate(16.831 25.098)">
      <g id="Group_34839" data-name="Group 34839" transform="translate(0)">
        <path id="Path_8779" data-name="Path 8779" d="M21.779,305.957l-4.817,10.329a1.37,1.37,0,0,0,1.708,1.864l5.677-2.067.426.2,2.067,5.677a1.369,1.369,0,0,0,2.526.11l4.032-8.646A17.808,17.808,0,0,1,21.779,305.957Z" transform="translate(-16.831 -305.957)" fill="url(#linear-gradient)"/>
      </g>
    </g>
  </g>
</svg>
