<svg width="99" height="99" viewBox="0 0 99 99" fill="none" xmlns="http://www.w3.org/2000/svg">
<path d="M91.426 11.0784C86.2924 5.33089 79.2272 2.16583 71.5312 2.16583C65.5145 2.16583 59.0253 5.74559 54.2838 8.36111C52.5577 9.31393 50.1972 10.6166 49.4995 10.7023C48.8049 10.618 46.4567 9.31878 44.7347 8.36621C40.0053 5.74948 33.5282 2.16583 27.469 2.16583C19.7728 2.16583 12.7073 5.33089 7.57349 11.0784C2.68962 16.5463 0 23.7437 0 31.3447C0 42.203 3.89923 57.6444 10.4302 72.6519C13.3358 79.3289 16.4287 85.0986 19.3744 89.3372C22.8806 94.3821 25.8894 96.8342 28.5732 96.8342C29.7641 96.8342 31.9447 96.3291 33.1682 92.9454C34.3572 89.6574 35.4266 85.8833 36.5606 81.8801C39.562 71.2863 43.297 58.1014 49.3103 58.1014H49.69C52.3636 58.1014 54.7568 60.3913 57.0062 65.1025C59.2345 69.7692 60.9285 75.9746 62.5691 81.9833C63.6533 85.9557 64.6778 89.707 65.8284 92.9364C67.0271 96.2992 69.1832 96.8021 70.3632 96.8028C73.0336 96.8026 76.0395 94.3129 79.5532 89.1917C82.4913 84.9096 85.5908 79.0826 88.5165 72.3409C95.0809 57.2127 99 41.8872 99 31.3444C99 23.7435 96.3101 16.5461 91.426 11.0784ZM69.6752 18.873C69.6134 18.8688 63.3966 18.5712 57.7372 17.0725C55.1853 16.3969 52.168 15.0393 52.168 14.6365C52.168 14.2444 55.4463 12.3356 56.2368 11.8993C60.5913 9.4971 66.5543 6.20718 71.5312 6.20718C86.1955 6.20718 94.9587 18.9881 94.9587 31.3447C94.9587 41.213 91.0696 56.3055 84.8088 70.7319C82.0254 77.1466 78.9752 82.8905 76.2207 86.9051C73.0426 91.5373 70.9861 92.8839 70.3632 92.7612C69.9808 92.6857 69.9332 92.4146 69.6358 91.5793C68.535 88.491 67.53 84.8102 66.4661 80.9132C64.7806 74.74 63.0385 68.3562 60.653 63.3606C57.6646 57.1019 54.0785 54.0595 49.69 54.0595H49.3103C45.0828 54.0595 41.5796 57.0776 38.6011 63.286C36.2237 68.2413 34.4181 74.6146 32.6724 80.7783C31.5597 84.7055 30.509 88.4155 29.3679 91.5708C29.1159 92.2673 29.0382 92.7221 28.5732 92.7926C28.2088 92.848 26.6522 92.7272 22.693 87.0305C19.9366 83.0644 16.8976 77.3852 14.1358 71.039C7.90923 56.7312 4.04135 41.5213 4.04135 31.3444C4.04135 18.9879 12.8045 6.20694 27.469 6.20694C31.2808 6.20694 36.29 7.94373 40.8685 10.853C41.54 11.2798 42.4855 12.0065 43.4 12.7095C43.7649 12.9901 44.1244 13.2664 44.4592 13.5183C45.5325 14.3222 46.9829 15.3734 48.6859 16.376C49.4121 16.8046 50.3156 17.3381 51.2752 17.7452C54.9448 19.303 58.8358 20.0928 62.8397 20.0928C66.9195 20.0928 69.6635 19.3671 69.6905 19.3586C69.6905 19.3586 70.3044 19.1963 70.2849 19.0367C70.2655 18.8771 69.6752 18.873 69.6752 18.873Z" fill="#25F2FF"/>
</svg>
