<svg xmlns="http://www.w3.org/2000/svg" xmlns:xlink="http://www.w3.org/1999/xlink" width="49.517" height="50.758" viewBox="0 0 49.517 50.758">
  <defs>
    <linearGradient id="linear-gradient" x1="0.146" y1="0.854" x2="0.854" y2="0.146" gradientUnits="objectBoundingBox">
      <stop offset="0" stop-color="#ff726d"/>
      <stop offset="1" stop-color="#ffde00"/>
    </linearGradient>
    <radialGradient id="radial-gradient" cx="0.5" cy="0.5" r="0.531" gradientUnits="objectBoundingBox">
      <stop offset="0" stop-color="#ff726d"/>
      <stop offset="0.808" stop-color="#ff726d" stop-opacity="0"/>
    </radialGradient>
    <linearGradient id="linear-gradient-2" x1="0.008" y1="0.992" x2="0.896" y2="0.104" gradientUnits="objectBoundingBox">
      <stop offset="0" stop-color="#fcb000"/>
      <stop offset="0.098" stop-color="#fcb511"/>
      <stop offset="0.292" stop-color="#fdc33c"/>
      <stop offset="0.564" stop-color="#fed882"/>
      <stop offset="0.898" stop-color="#fff6e1"/>
      <stop offset="1" stop-color="#fff"/>
    </linearGradient>
    <radialGradient id="radial-gradient-2" cx="0.5" cy="0.421" r="1.562" gradientUnits="objectBoundingBox">
      <stop offset="0" stop-color="#fcb000" stop-opacity="0.8"/>
      <stop offset="0.005" stop-color="#fcb101" stop-opacity="0.796"/>
      <stop offset="0.306" stop-color="#fcd255" stop-opacity="0.506"/>
      <stop offset="0.553" stop-color="#fdea93" stop-opacity="0.267"/>
      <stop offset="0.733" stop-color="#fdf9b9" stop-opacity="0.09"/>
      <stop offset="0.827" stop-color="#fdffc7" stop-opacity="0"/>
    </radialGradient>
    <linearGradient id="linear-gradient-3" x1="0.5" y1="0.511" x2="0.5" y2="1.511" gradientUnits="objectBoundingBox">
      <stop offset="0" stop-color="#ff726d" stop-opacity="0.8"/>
      <stop offset="0.015" stop-color="#ff8e86" stop-opacity="0.788"/>
      <stop offset="0.218" stop-color="#fe8944" stop-opacity="0.624"/>
      <stop offset="0.42" stop-color="#fd9a26" stop-opacity="0.463"/>
      <stop offset="0.619" stop-color="#fca611" stop-opacity="0.302"/>
      <stop offset="0.813" stop-color="#fcae04" stop-opacity="0.145"/>
      <stop offset="0.994" stop-color="#fcb000" stop-opacity="0"/>
      <stop offset="1" stop-color="#fcb000" stop-opacity="0"/>
    </linearGradient>
    <linearGradient id="linear-gradient-4" x1="-0.107" y1="1.263" x2="1.096" y2="-0.001" gradientUnits="objectBoundingBox">
      <stop offset="0" stop-color="#ffd589"/>
      <stop offset="0.203" stop-color="#ffa90f"/>
      <stop offset="0.598" stop-color="#fedda2"/>
      <stop offset="0.872" stop-color="#fff6e5"/>
      <stop offset="1" stop-color="#fff"/>
    </linearGradient>
    <linearGradient id="linear-gradient-5" x1="-0.102" y1="1.017" x2="1.287" y2="-0.341" gradientUnits="objectBoundingBox">
      <stop offset="0" stop-color="#fee5be" stop-opacity="0.698"/>
      <stop offset="0.494" stop-color="#fef1dc" stop-opacity="0.847"/>
      <stop offset="1" stop-color="#fff"/>
    </linearGradient>
    <linearGradient id="linear-gradient-6" x1="-0.014" y1="8.268" x2="0.945" y2="-6.213" gradientUnits="objectBoundingBox">
      <stop offset="0" stop-color="#fca200"/>
      <stop offset="0.598" stop-color="#fedb9b"/>
      <stop offset="1" stop-color="#fff"/>
    </linearGradient>
    <linearGradient id="linear-gradient-7" x1="-0.01" y1="9.407" x2="0.941" y2="-7.197" xlink:href="#linear-gradient-6"/>
    <linearGradient id="linear-gradient-8" x1="0.219" y1="1.304" x2="1.965" y2="-2.755" gradientUnits="objectBoundingBox">
      <stop offset="0" stop-color="#ffc45a"/>
      <stop offset="0.598" stop-color="#fedb9b"/>
      <stop offset="1" stop-color="#fff"/>
    </linearGradient>
    <linearGradient id="linear-gradient-9" x1="-0.06" y1="2.107" x2="1.165" y2="-1.453" gradientUnits="objectBoundingBox">
      <stop offset="0" stop-color="#ffbf4b"/>
      <stop offset="0.598" stop-color="#fedb9b"/>
      <stop offset="1" stop-color="#fff"/>
    </linearGradient>
    <linearGradient id="linear-gradient-10" x1="0.17" y1="3.877" x2="1.099" y2="-4.639" gradientUnits="objectBoundingBox">
      <stop offset="0" stop-color="#fca200"/>
      <stop offset="0.203" stop-color="#fdb739"/>
      <stop offset="0.598" stop-color="#fedda2"/>
      <stop offset="0.872" stop-color="#fff6e5"/>
      <stop offset="1" stop-color="#fff"/>
    </linearGradient>
    <linearGradient id="linear-gradient-11" x1="-0.599" y1="1.264" x2="0.97" y2="0.174" gradientUnits="objectBoundingBox">
      <stop offset="0" stop-color="#fee5be" stop-opacity="0.698"/>
      <stop offset="0.241" stop-color="#fee6c2" stop-opacity="0.78"/>
      <stop offset="0.463" stop-color="#feebcd" stop-opacity="0.851"/>
      <stop offset="0.676" stop-color="#fff2df" stop-opacity="0.922"/>
      <stop offset="0.884" stop-color="#fffdf9" stop-opacity="0.988"/>
      <stop offset="0.922" stop-color="#fff"/>
    </linearGradient>
    <linearGradient id="linear-gradient-12" x1="-1.193" y1="3.686" x2="1.414" y2="-1.22" gradientUnits="objectBoundingBox">
      <stop offset="0" stop-color="#fca200"/>
      <stop offset="0.279" stop-color="#fdc156"/>
      <stop offset="0.538" stop-color="#fedc9e"/>
      <stop offset="0.752" stop-color="#feefd3"/>
      <stop offset="0.912" stop-color="#fffbf3"/>
      <stop offset="1" stop-color="#fff"/>
    </linearGradient>
    <linearGradient id="linear-gradient-13" x1="0.079" y1="1.496" x2="5.972" y2="-10.942" gradientUnits="objectBoundingBox">
      <stop offset="0" stop-color="#ffb633"/>
      <stop offset="0.203" stop-color="#fdba41"/>
      <stop offset="0.67" stop-color="#fff5e3"/>
      <stop offset="0.749" stop-color="#fff"/>
      <stop offset="1" stop-color="#fff"/>
    </linearGradient>
    <linearGradient id="linear-gradient-14" x1="-0.176" y1="4.16" x2="2.285" y2="-8.278" gradientUnits="objectBoundingBox">
      <stop offset="0" stop-color="#fca200"/>
      <stop offset="0.213" stop-color="#fdba41"/>
      <stop offset="0.706" stop-color="#fff5e3"/>
      <stop offset="0.789" stop-color="#fff"/>
    </linearGradient>
  </defs>
  <g id="otomatik_hatırlatma_ikon" transform="translate(-1334.242 -1431)">
    <g id="Group_34908" data-name="Group 34908" transform="translate(-11)">
      <circle id="Ellipse_3096" data-name="Ellipse 3096" cx="20" cy="20" r="20" transform="translate(1351 1431)" fill="url(#linear-gradient)"/>
      <circle id="Ellipse_3097" data-name="Ellipse 3097" cx="11" cy="11" r="11" transform="translate(1359 1446)" fill="#f05934"/>
    </g>
    <g id="Group_34907" data-name="Group 34907" transform="translate(5.376 5.48)">
      <circle id="Ellipse_3098" data-name="Ellipse 3098" cx="6.854" cy="6.854" r="6.854" transform="translate(1347.756 1442.39)" fill="url(#radial-gradient)"/>
      <circle id="Ellipse_3099" data-name="Ellipse 3099" cx="4.569" cy="4.569" r="4.569" transform="translate(1350.041 1444.675)" fill="url(#linear-gradient-2)"/>
      <circle id="Ellipse_3100" data-name="Ellipse 3100" cx="4.569" cy="4.569" r="4.569" transform="translate(1350.041 1444.675)" fill="url(#radial-gradient-2)"/>
      <circle id="Ellipse_3101" data-name="Ellipse 3101" cx="4.569" cy="4.569" r="4.569" transform="translate(1350.041 1444.675)" fill="url(#linear-gradient-3)"/>
      <path id="Path_9044" data-name="Path 9044" d="M128.452,57.416,126,56.479l1.138-.937-1.209-5.509a6.195,6.195,0,0,0-12.145,0l-1.209,5.509v2.8l14.238,3.191q1.171-.062,2.34-.145a.761.761,0,0,0,.706-.76v-.7A2.951,2.951,0,0,0,128.452,57.416Z" transform="translate(1234.751 1389.459)" fill="url(#linear-gradient-4)"/>
      <path id="Path_9045" data-name="Path 9045" d="M376.319,288.414H373.7l.981,4.119q1.171-.062,2.34-.145a.761.761,0,0,0,.706-.759v-.7A2.951,2.951,0,0,0,376.319,288.414Z" transform="translate(986.884 1158.462)" fill="url(#linear-gradient-5)"/>
      <path id="Path_9046" data-name="Path 9046" d="M417.252,366.691q-.585.041-1.17.077Q416.667,366.732,417.252,366.691Z" transform="translate(946.656 1084.159)" fill="url(#linear-gradient-6)"/>
      <path id="Path_9047" data-name="Path 9047" d="M394.186,368.24q-.575.035-1.15.066Q393.611,368.276,394.186,368.24Z" transform="translate(968.532 1082.688)" fill="url(#linear-gradient-7)"/>
      <path id="Path_9048" data-name="Path 9048" d="M63.435,288.414H60.388a2.951,2.951,0,0,0-1.41,2.517v.7a.761.761,0,0,0,.706.759q4.643.328,9.3.328Z" transform="translate(1285.63 1158.462)" fill="url(#linear-gradient-8)"/>
      <path id="Path_9049" data-name="Path 9049" d="M158.281,288.414H146.759a8.006,8.006,0,0,0,4.774,4.061l.772.241q3.48,0,6.957-.184v-1.6A3.387,3.387,0,0,0,158.281,288.414Z" transform="translate(1202.306 1158.462)" fill="url(#linear-gradient-9)"/>
      <path id="Path_9050" data-name="Path 9050" d="M102.633,251.485H88.07a2.923,2.923,0,0,1-1.311,1.875h17.185A2.923,2.923,0,0,1,102.633,251.485Z" transform="translate(1259.26 1193.515)" fill="url(#linear-gradient-10)"/>
      <path id="Path_9051" data-name="Path 9051" d="M262.073,50.032A6.2,6.2,0,0,0,256,45.061c2.088,0,3.828,2.136,4.223,4.971l.841,5.509h2.218Z" transform="translate(1098.611 1389.459)" fill="url(#linear-gradient-11)"/>
      <path id="Path_9052" data-name="Path 9052" d="M355.746,251.485a3.132,3.132,0,0,0,.912,1.875h2.617a2.768,2.768,0,0,1-.358-.26,2.829,2.829,0,0,1-.212-.2,2.9,2.9,0,0,1-.356-.462,3.032,3.032,0,0,1-.385-.951h-2.217Z" transform="translate(1003.929 1193.515)" fill="url(#linear-gradient-12)"/>
      <path id="Path_9053" data-name="Path 9053" d="M90.717,251.485H88.07a3.032,3.032,0,0,1-.377.938,2.836,2.836,0,0,1-.934.937h3.046A3.132,3.132,0,0,0,90.717,251.485Z" transform="translate(1259.26 1193.515)" fill="url(#linear-gradient-13)"/>
      <path id="Path_9054" data-name="Path 9054" d="M154.924,251.485h-7.253a3.132,3.132,0,0,1-.912,1.875h9.476A2.923,2.923,0,0,1,154.924,251.485Z" transform="translate(1202.306 1193.515)" fill="url(#linear-gradient-14)"/>
    </g>
  </g>
</svg>
