<svg xmlns="http://www.w3.org/2000/svg" width="12" height="12" viewBox="0 0 12 12">
  <path id="star" d="M11.739,5.438a.923.923,0,0,0,.218-.923.866.866,0,0,0-.694-.611l-2.9-.44a.381.381,0,0,1-.286-.217L6.772.5A.845.845,0,0,0,5.229.5l-1.3,2.748a.381.381,0,0,1-.286.217L.738,3.906a.866.866,0,0,0-.694.611.923.923,0,0,0,.218.923l2.1,2.139a.408.408,0,0,1,.11.351l-.5,3.02a.907.907,0,0,0,.185.728.844.844,0,0,0,1.06.219l2.6-1.426a.374.374,0,0,1,.354,0l2.6,1.424a.823.823,0,0,0,.4.1.849.849,0,0,0,.66-.323.907.907,0,0,0,.185-.728l-.5-3.02a.408.408,0,0,1,.11-.351Z" fill="#ffb100"/>
</svg>
