<svg xmlns="http://www.w3.org/2000/svg" width="24" height="24" viewBox="0 0 24 24">
  <g id="twitter" transform="translate(-576 -6093)">
    <circle id="Ellipse_2687" data-name="Ellipse 2687" cx="12" cy="12" r="12" transform="translate(576 6093)" fill="#57658a"/>
    <path id="_001-twitter" data-name="001-twitter" d="M5.176,11.356a11.9,11.9,0,0,1-1.839-.146,8.63,8.63,0,0,1-2.515-.915L0,9.845l.89-.293c.973-.32,1.565-.518,2.3-.829A3.056,3.056,0,0,1,1.616,6.9l-.207-.629.17.026a3.088,3.088,0,0,1-.387-.477,2.927,2.927,0,0,1-.5-1.74l.039-.549.328.127a3.071,3.071,0,0,1-.3-.834A3.174,3.174,0,0,1,1.1.691L1.39.166l.383.46A7.042,7.042,0,0,0,6.335,3.194,2.729,2.729,0,0,1,6.5,1.744,2.714,2.714,0,0,1,7.6.479,3.315,3.315,0,0,1,9.528.007a3.073,3.073,0,0,1,1.889.779,6.34,6.34,0,0,0,.691-.231c.152-.057.323-.122.539-.2l.793-.273-.517,1.476.106-.007.846-.038-.5.684c-.029.039-.036.05-.046.066-.04.061-.091.136-.777,1.053a1.293,1.293,0,0,0-.242.842,7.966,7.966,0,0,1-.435,3.2A5.67,5.67,0,0,1,10.352,9.62a6.722,6.722,0,0,1-3.186,1.54A9.809,9.809,0,0,1,5.176,11.356Zm0,0" transform="translate(581.379 6099.626)" fill="#fff"/>
  </g>
</svg>
